G04 #@! TF.FileFunction,Soldermask,Bot*
%FSLAX46Y46*%
G04 Gerber Fmt 4.6, Leading zero omitted, Abs format (unit mm)*
G04 Created by KiCad (PCBNEW 4.0.2-stable) date Sunday, September 24, 2017 'PMt' 11:09:44 PM*
%MOMM*%
G01*
G04 APERTURE LIST*
%ADD10C,0.100000*%
G04 APERTURE END LIST*
D10*
G36*
X3820457Y6548970D02*
X4406573Y6428658D01*
X4958152Y6196795D01*
X5454195Y5862210D01*
X5875796Y5437655D01*
X6206909Y4939290D01*
X6434916Y4386104D01*
X6551080Y3799430D01*
X6551080Y3799419D01*
X6551130Y3799166D01*
X6541588Y3115758D01*
X6541530Y3115503D01*
X6541530Y3115493D01*
X6409031Y2532297D01*
X6165666Y1985690D01*
X5820769Y1496766D01*
X5387474Y1084145D01*
X4882282Y763541D01*
X4324445Y547171D01*
X3735205Y443272D01*
X3136999Y455802D01*
X2552626Y584286D01*
X2004336Y823827D01*
X1513019Y1165301D01*
X1097382Y1595706D01*
X773257Y2098648D01*
X552999Y2654957D01*
X444988Y3243467D01*
X453341Y3841735D01*
X577742Y4426995D01*
X813452Y4976945D01*
X1151489Y5470636D01*
X1578981Y5889268D01*
X2079640Y6216890D01*
X2634409Y6441031D01*
X3222142Y6553147D01*
X3820457Y6548970D01*
X3820457Y6548970D01*
G37*
G36*
X61820457Y6548970D02*
X62406573Y6428658D01*
X62958152Y6196795D01*
X63454195Y5862210D01*
X63875796Y5437655D01*
X64206909Y4939290D01*
X64434916Y4386104D01*
X64551080Y3799430D01*
X64551080Y3799419D01*
X64551130Y3799166D01*
X64541588Y3115758D01*
X64541530Y3115503D01*
X64541530Y3115493D01*
X64409031Y2532297D01*
X64165666Y1985690D01*
X63820769Y1496766D01*
X63387474Y1084145D01*
X62882282Y763541D01*
X62324445Y547171D01*
X61735205Y443272D01*
X61136999Y455802D01*
X60552626Y584286D01*
X60004336Y823827D01*
X59513019Y1165301D01*
X59097382Y1595706D01*
X58773257Y2098648D01*
X58552999Y2654957D01*
X58444988Y3243467D01*
X58453341Y3841735D01*
X58577742Y4426995D01*
X58813452Y4976945D01*
X59151489Y5470636D01*
X59578981Y5889268D01*
X60079640Y6216890D01*
X60634409Y6441031D01*
X61222142Y6553147D01*
X61820457Y6548970D01*
X61820457Y6548970D01*
G37*
G36*
X11093868Y3283488D02*
X11093873Y3283486D01*
X11093906Y3283483D01*
X11264422Y3230699D01*
X11421438Y3145801D01*
X11558973Y3032021D01*
X11671790Y2893695D01*
X11755590Y2736090D01*
X11807182Y2565210D01*
X11824600Y2387563D01*
X11824600Y2072437D01*
X11824511Y2059667D01*
X11804614Y1882281D01*
X11750641Y1712138D01*
X11664649Y1555718D01*
X11549912Y1418980D01*
X11410801Y1307132D01*
X11252615Y1224435D01*
X11081379Y1174037D01*
X11081348Y1174034D01*
X11081344Y1174033D01*
X10903613Y1157858D01*
X10726132Y1176512D01*
X10726127Y1176514D01*
X10726094Y1176517D01*
X10555578Y1229301D01*
X10398562Y1314199D01*
X10261027Y1427979D01*
X10148210Y1566305D01*
X10064410Y1723910D01*
X10012818Y1894790D01*
X9995400Y2072437D01*
X9995400Y2387563D01*
X9995489Y2400333D01*
X10015386Y2577719D01*
X10069359Y2747862D01*
X10155351Y2904282D01*
X10270088Y3041020D01*
X10409199Y3152868D01*
X10567385Y3235565D01*
X10738621Y3285963D01*
X10738652Y3285966D01*
X10738656Y3285967D01*
X10916387Y3302142D01*
X11093868Y3283488D01*
X11093868Y3283488D01*
G37*
G36*
X13633868Y3283488D02*
X13633873Y3283486D01*
X13633906Y3283483D01*
X13804422Y3230699D01*
X13961438Y3145801D01*
X14098973Y3032021D01*
X14211790Y2893695D01*
X14295590Y2736090D01*
X14347182Y2565210D01*
X14364600Y2387563D01*
X14364600Y2072437D01*
X14364511Y2059667D01*
X14344614Y1882281D01*
X14290641Y1712138D01*
X14204649Y1555718D01*
X14089912Y1418980D01*
X13950801Y1307132D01*
X13792615Y1224435D01*
X13621379Y1174037D01*
X13621348Y1174034D01*
X13621344Y1174033D01*
X13443613Y1157858D01*
X13266132Y1176512D01*
X13266127Y1176514D01*
X13266094Y1176517D01*
X13095578Y1229301D01*
X12938562Y1314199D01*
X12801027Y1427979D01*
X12688210Y1566305D01*
X12604410Y1723910D01*
X12552818Y1894790D01*
X12535400Y2072437D01*
X12535400Y2387563D01*
X12535489Y2400333D01*
X12555386Y2577719D01*
X12609359Y2747862D01*
X12695351Y2904282D01*
X12810088Y3041020D01*
X12949199Y3152868D01*
X13107385Y3235565D01*
X13278621Y3285963D01*
X13278652Y3285966D01*
X13278656Y3285967D01*
X13456387Y3302142D01*
X13633868Y3283488D01*
X13633868Y3283488D01*
G37*
G36*
X56813868Y3283488D02*
X56813873Y3283486D01*
X56813906Y3283483D01*
X56984422Y3230699D01*
X57141438Y3145801D01*
X57278973Y3032021D01*
X57391790Y2893695D01*
X57475590Y2736090D01*
X57527182Y2565210D01*
X57544600Y2387563D01*
X57544600Y2072437D01*
X57544511Y2059667D01*
X57524614Y1882281D01*
X57470641Y1712138D01*
X57384649Y1555718D01*
X57269912Y1418980D01*
X57130801Y1307132D01*
X56972615Y1224435D01*
X56801379Y1174037D01*
X56801348Y1174034D01*
X56801344Y1174033D01*
X56623613Y1157858D01*
X56446132Y1176512D01*
X56446127Y1176514D01*
X56446094Y1176517D01*
X56275578Y1229301D01*
X56118562Y1314199D01*
X55981027Y1427979D01*
X55868210Y1566305D01*
X55784410Y1723910D01*
X55732818Y1894790D01*
X55715400Y2072437D01*
X55715400Y2387563D01*
X55715489Y2400333D01*
X55735386Y2577719D01*
X55789359Y2747862D01*
X55875351Y2904282D01*
X55990088Y3041020D01*
X56129199Y3152868D01*
X56287385Y3235565D01*
X56458621Y3285963D01*
X56458652Y3285966D01*
X56458656Y3285967D01*
X56636387Y3302142D01*
X56813868Y3283488D01*
X56813868Y3283488D01*
G37*
G36*
X54273868Y3283488D02*
X54273873Y3283486D01*
X54273906Y3283483D01*
X54444422Y3230699D01*
X54601438Y3145801D01*
X54738973Y3032021D01*
X54851790Y2893695D01*
X54935590Y2736090D01*
X54987182Y2565210D01*
X55004600Y2387563D01*
X55004600Y2072437D01*
X55004511Y2059667D01*
X54984614Y1882281D01*
X54930641Y1712138D01*
X54844649Y1555718D01*
X54729912Y1418980D01*
X54590801Y1307132D01*
X54432615Y1224435D01*
X54261379Y1174037D01*
X54261348Y1174034D01*
X54261344Y1174033D01*
X54083613Y1157858D01*
X53906132Y1176512D01*
X53906127Y1176514D01*
X53906094Y1176517D01*
X53735578Y1229301D01*
X53578562Y1314199D01*
X53441027Y1427979D01*
X53328210Y1566305D01*
X53244410Y1723910D01*
X53192818Y1894790D01*
X53175400Y2072437D01*
X53175400Y2387563D01*
X53175489Y2400333D01*
X53195386Y2577719D01*
X53249359Y2747862D01*
X53335351Y2904282D01*
X53450088Y3041020D01*
X53589199Y3152868D01*
X53747385Y3235565D01*
X53918621Y3285963D01*
X53918652Y3285966D01*
X53918656Y3285967D01*
X54096387Y3302142D01*
X54273868Y3283488D01*
X54273868Y3283488D01*
G37*
G36*
X51733868Y3283488D02*
X51733873Y3283486D01*
X51733906Y3283483D01*
X51904422Y3230699D01*
X52061438Y3145801D01*
X52198973Y3032021D01*
X52311790Y2893695D01*
X52395590Y2736090D01*
X52447182Y2565210D01*
X52464600Y2387563D01*
X52464600Y2072437D01*
X52464511Y2059667D01*
X52444614Y1882281D01*
X52390641Y1712138D01*
X52304649Y1555718D01*
X52189912Y1418980D01*
X52050801Y1307132D01*
X51892615Y1224435D01*
X51721379Y1174037D01*
X51721348Y1174034D01*
X51721344Y1174033D01*
X51543613Y1157858D01*
X51366132Y1176512D01*
X51366127Y1176514D01*
X51366094Y1176517D01*
X51195578Y1229301D01*
X51038562Y1314199D01*
X50901027Y1427979D01*
X50788210Y1566305D01*
X50704410Y1723910D01*
X50652818Y1894790D01*
X50635400Y2072437D01*
X50635400Y2387563D01*
X50635489Y2400333D01*
X50655386Y2577719D01*
X50709359Y2747862D01*
X50795351Y2904282D01*
X50910088Y3041020D01*
X51049199Y3152868D01*
X51207385Y3235565D01*
X51378621Y3285963D01*
X51378652Y3285966D01*
X51378656Y3285967D01*
X51556387Y3302142D01*
X51733868Y3283488D01*
X51733868Y3283488D01*
G37*
G36*
X44113868Y3283488D02*
X44113873Y3283486D01*
X44113906Y3283483D01*
X44284422Y3230699D01*
X44441438Y3145801D01*
X44578973Y3032021D01*
X44691790Y2893695D01*
X44775590Y2736090D01*
X44827182Y2565210D01*
X44844600Y2387563D01*
X44844600Y2072437D01*
X44844511Y2059667D01*
X44824614Y1882281D01*
X44770641Y1712138D01*
X44684649Y1555718D01*
X44569912Y1418980D01*
X44430801Y1307132D01*
X44272615Y1224435D01*
X44101379Y1174037D01*
X44101348Y1174034D01*
X44101344Y1174033D01*
X43923613Y1157858D01*
X43746132Y1176512D01*
X43746127Y1176514D01*
X43746094Y1176517D01*
X43575578Y1229301D01*
X43418562Y1314199D01*
X43281027Y1427979D01*
X43168210Y1566305D01*
X43084410Y1723910D01*
X43032818Y1894790D01*
X43015400Y2072437D01*
X43015400Y2387563D01*
X43015489Y2400333D01*
X43035386Y2577719D01*
X43089359Y2747862D01*
X43175351Y2904282D01*
X43290088Y3041020D01*
X43429199Y3152868D01*
X43587385Y3235565D01*
X43758621Y3285963D01*
X43758652Y3285966D01*
X43758656Y3285967D01*
X43936387Y3302142D01*
X44113868Y3283488D01*
X44113868Y3283488D01*
G37*
G36*
X41573868Y3283488D02*
X41573873Y3283486D01*
X41573906Y3283483D01*
X41744422Y3230699D01*
X41901438Y3145801D01*
X42038973Y3032021D01*
X42151790Y2893695D01*
X42235590Y2736090D01*
X42287182Y2565210D01*
X42304600Y2387563D01*
X42304600Y2072437D01*
X42304511Y2059667D01*
X42284614Y1882281D01*
X42230641Y1712138D01*
X42144649Y1555718D01*
X42029912Y1418980D01*
X41890801Y1307132D01*
X41732615Y1224435D01*
X41561379Y1174037D01*
X41561348Y1174034D01*
X41561344Y1174033D01*
X41383613Y1157858D01*
X41206132Y1176512D01*
X41206127Y1176514D01*
X41206094Y1176517D01*
X41035578Y1229301D01*
X40878562Y1314199D01*
X40741027Y1427979D01*
X40628210Y1566305D01*
X40544410Y1723910D01*
X40492818Y1894790D01*
X40475400Y2072437D01*
X40475400Y2387563D01*
X40475489Y2400333D01*
X40495386Y2577719D01*
X40549359Y2747862D01*
X40635351Y2904282D01*
X40750088Y3041020D01*
X40889199Y3152868D01*
X41047385Y3235565D01*
X41218621Y3285963D01*
X41218652Y3285966D01*
X41218656Y3285967D01*
X41396387Y3302142D01*
X41573868Y3283488D01*
X41573868Y3283488D01*
G37*
G36*
X39033868Y3283488D02*
X39033873Y3283486D01*
X39033906Y3283483D01*
X39204422Y3230699D01*
X39361438Y3145801D01*
X39498973Y3032021D01*
X39611790Y2893695D01*
X39695590Y2736090D01*
X39747182Y2565210D01*
X39764600Y2387563D01*
X39764600Y2072437D01*
X39764511Y2059667D01*
X39744614Y1882281D01*
X39690641Y1712138D01*
X39604649Y1555718D01*
X39489912Y1418980D01*
X39350801Y1307132D01*
X39192615Y1224435D01*
X39021379Y1174037D01*
X39021348Y1174034D01*
X39021344Y1174033D01*
X38843613Y1157858D01*
X38666132Y1176512D01*
X38666127Y1176514D01*
X38666094Y1176517D01*
X38495578Y1229301D01*
X38338562Y1314199D01*
X38201027Y1427979D01*
X38088210Y1566305D01*
X38004410Y1723910D01*
X37952818Y1894790D01*
X37935400Y2072437D01*
X37935400Y2387563D01*
X37935489Y2400333D01*
X37955386Y2577719D01*
X38009359Y2747862D01*
X38095351Y2904282D01*
X38210088Y3041020D01*
X38349199Y3152868D01*
X38507385Y3235565D01*
X38678621Y3285963D01*
X38678652Y3285966D01*
X38678656Y3285967D01*
X38856387Y3302142D01*
X39033868Y3283488D01*
X39033868Y3283488D01*
G37*
G36*
X16173868Y3283488D02*
X16173873Y3283486D01*
X16173906Y3283483D01*
X16344422Y3230699D01*
X16501438Y3145801D01*
X16638973Y3032021D01*
X16751790Y2893695D01*
X16835590Y2736090D01*
X16887182Y2565210D01*
X16904600Y2387563D01*
X16904600Y2072437D01*
X16904511Y2059667D01*
X16884614Y1882281D01*
X16830641Y1712138D01*
X16744649Y1555718D01*
X16629912Y1418980D01*
X16490801Y1307132D01*
X16332615Y1224435D01*
X16161379Y1174037D01*
X16161348Y1174034D01*
X16161344Y1174033D01*
X15983613Y1157858D01*
X15806132Y1176512D01*
X15806127Y1176514D01*
X15806094Y1176517D01*
X15635578Y1229301D01*
X15478562Y1314199D01*
X15341027Y1427979D01*
X15228210Y1566305D01*
X15144410Y1723910D01*
X15092818Y1894790D01*
X15075400Y2072437D01*
X15075400Y2387563D01*
X15075489Y2400333D01*
X15095386Y2577719D01*
X15149359Y2747862D01*
X15235351Y2904282D01*
X15350088Y3041020D01*
X15489199Y3152868D01*
X15647385Y3235565D01*
X15818621Y3285963D01*
X15818652Y3285966D01*
X15818656Y3285967D01*
X15996387Y3302142D01*
X16173868Y3283488D01*
X16173868Y3283488D01*
G37*
G36*
X49924600Y1163000D02*
X48095400Y1163000D01*
X48095400Y3297000D01*
X49924600Y3297000D01*
X49924600Y1163000D01*
X49924600Y1163000D01*
G37*
G36*
X37224600Y1163000D02*
X35395400Y1163000D01*
X35395400Y3297000D01*
X37224600Y3297000D01*
X37224600Y1163000D01*
X37224600Y1163000D01*
G37*
G36*
X9284600Y1163000D02*
X7455400Y1163000D01*
X7455400Y3297000D01*
X9284600Y3297000D01*
X9284600Y1163000D01*
X9284600Y1163000D01*
G37*
G36*
X32061834Y4276832D02*
X32061844Y4276829D01*
X32061872Y4276826D01*
X32351037Y4187315D01*
X32617308Y4043342D01*
X32850544Y3850393D01*
X33041861Y3615815D01*
X33183971Y3348545D01*
X33271461Y3058762D01*
X33301000Y2757505D01*
X33301000Y2742435D01*
X33300860Y2722402D01*
X33300849Y2720840D01*
X33267107Y2420024D01*
X33175579Y2131491D01*
X33029751Y1866231D01*
X32835178Y1634348D01*
X32599271Y1444674D01*
X32331015Y1304433D01*
X32040628Y1218967D01*
X32040598Y1218964D01*
X32040594Y1218963D01*
X31739170Y1191532D01*
X31438166Y1223168D01*
X31438156Y1223171D01*
X31438128Y1223174D01*
X31148963Y1312685D01*
X30882692Y1456658D01*
X30649456Y1649607D01*
X30458139Y1884185D01*
X30316029Y2151455D01*
X30228539Y2441238D01*
X30199000Y2742495D01*
X30199000Y2757505D01*
X30199151Y2779160D01*
X30232893Y3079976D01*
X30324421Y3368509D01*
X30470249Y3633769D01*
X30664822Y3865652D01*
X30900729Y4055326D01*
X31168985Y4195567D01*
X31459372Y4281033D01*
X31459402Y4281036D01*
X31459406Y4281037D01*
X31760830Y4308468D01*
X32061834Y4276832D01*
X32061834Y4276832D01*
G37*
G36*
X24311834Y4276832D02*
X24311844Y4276829D01*
X24311872Y4276826D01*
X24601037Y4187315D01*
X24867308Y4043342D01*
X25100544Y3850393D01*
X25291861Y3615815D01*
X25433971Y3348545D01*
X25521461Y3058762D01*
X25551000Y2757505D01*
X25551000Y2742435D01*
X25550860Y2722402D01*
X25550849Y2720840D01*
X25517107Y2420024D01*
X25425579Y2131491D01*
X25279751Y1866231D01*
X25085178Y1634348D01*
X24849271Y1444674D01*
X24581015Y1304433D01*
X24290628Y1218967D01*
X24290598Y1218964D01*
X24290594Y1218963D01*
X23989170Y1191532D01*
X23688166Y1223168D01*
X23688156Y1223171D01*
X23688128Y1223174D01*
X23398963Y1312685D01*
X23132692Y1456658D01*
X22899456Y1649607D01*
X22708139Y1884185D01*
X22566029Y2151455D01*
X22478539Y2441238D01*
X22449000Y2742495D01*
X22449000Y2757505D01*
X22449151Y2779160D01*
X22482893Y3079976D01*
X22574421Y3368509D01*
X22720249Y3633769D01*
X22914822Y3865652D01*
X23150729Y4055326D01*
X23418985Y4195567D01*
X23709372Y4281033D01*
X23709402Y4281036D01*
X23709406Y4281037D01*
X24010830Y4308468D01*
X24311834Y4276832D01*
X24311834Y4276832D01*
G37*
G36*
X29801000Y1199000D02*
X26699000Y1199000D01*
X26699000Y4301000D01*
X29801000Y4301000D01*
X29801000Y1199000D01*
X29801000Y1199000D01*
G37*
G36*
X22051000Y1199000D02*
X18949000Y1199000D01*
X18949000Y4301000D01*
X22051000Y4301000D01*
X22051000Y1199000D01*
X22051000Y1199000D01*
G37*
G36*
X61820457Y29548970D02*
X62406573Y29428658D01*
X62958152Y29196795D01*
X63454195Y28862210D01*
X63875796Y28437655D01*
X64206909Y27939290D01*
X64434916Y27386104D01*
X64551080Y26799430D01*
X64551080Y26799419D01*
X64551130Y26799166D01*
X64541588Y26115758D01*
X64541530Y26115503D01*
X64541530Y26115493D01*
X64409031Y25532297D01*
X64165666Y24985690D01*
X63820769Y24496766D01*
X63387474Y24084145D01*
X62882282Y23763541D01*
X62324445Y23547171D01*
X61735205Y23443272D01*
X61136999Y23455802D01*
X60552626Y23584286D01*
X60004336Y23823827D01*
X59513019Y24165301D01*
X59097382Y24595706D01*
X58773257Y25098648D01*
X58552999Y25654957D01*
X58444988Y26243467D01*
X58453341Y26841735D01*
X58577742Y27426995D01*
X58813452Y27976945D01*
X59151489Y28470636D01*
X59578981Y28889268D01*
X60079640Y29216890D01*
X60634409Y29441031D01*
X61222142Y29553147D01*
X61820457Y29548970D01*
X61820457Y29548970D01*
G37*
G36*
X3820457Y29548970D02*
X4406573Y29428658D01*
X4958152Y29196795D01*
X5454195Y28862210D01*
X5875796Y28437655D01*
X6206909Y27939290D01*
X6434916Y27386104D01*
X6551080Y26799430D01*
X6551080Y26799419D01*
X6551130Y26799166D01*
X6541588Y26115758D01*
X6541530Y26115503D01*
X6541530Y26115493D01*
X6409031Y25532297D01*
X6165666Y24985690D01*
X5820769Y24496766D01*
X5387474Y24084145D01*
X4882282Y23763541D01*
X4324445Y23547171D01*
X3735205Y23443272D01*
X3136999Y23455802D01*
X2552626Y23584286D01*
X2004336Y23823827D01*
X1513019Y24165301D01*
X1097382Y24595706D01*
X773257Y25098648D01*
X552999Y25654957D01*
X444988Y26243467D01*
X453341Y26841735D01*
X577742Y27426995D01*
X813452Y27976945D01*
X1151489Y28470636D01*
X1578981Y28889268D01*
X2079640Y29216890D01*
X2634409Y29441031D01*
X3222142Y29553147D01*
X3820457Y29548970D01*
X3820457Y29548970D01*
G37*
G36*
X51634131Y26030468D02*
X51788009Y25998882D01*
X51932820Y25938009D01*
X52063048Y25850169D01*
X52173735Y25738706D01*
X52260665Y25607866D01*
X52320524Y25462636D01*
X52350983Y25308806D01*
X52351035Y25308542D01*
X52348529Y25129122D01*
X52348470Y25128863D01*
X52348470Y25128857D01*
X52313729Y24975939D01*
X52249839Y24832440D01*
X52159288Y24704076D01*
X52045533Y24595748D01*
X51912899Y24511577D01*
X51766449Y24454773D01*
X51611751Y24427495D01*
X51454697Y24430785D01*
X51301278Y24464517D01*
X51157334Y24527404D01*
X51028343Y24617055D01*
X50919224Y24730051D01*
X50834127Y24862095D01*
X50776301Y25008147D01*
X50747945Y25162649D01*
X50750138Y25319716D01*
X50782799Y25473371D01*
X50844682Y25617754D01*
X50933429Y25747366D01*
X51045662Y25857273D01*
X51177100Y25943284D01*
X51322751Y26002131D01*
X51477052Y26031565D01*
X51634131Y26030468D01*
X51634131Y26030468D01*
G37*
G36*
X49094131Y26030468D02*
X49248009Y25998882D01*
X49392820Y25938009D01*
X49523048Y25850169D01*
X49633735Y25738706D01*
X49720665Y25607866D01*
X49780524Y25462636D01*
X49810983Y25308806D01*
X49811035Y25308542D01*
X49808529Y25129122D01*
X49808470Y25128863D01*
X49808470Y25128857D01*
X49773729Y24975939D01*
X49709839Y24832440D01*
X49619288Y24704076D01*
X49505533Y24595748D01*
X49372899Y24511577D01*
X49226449Y24454773D01*
X49071751Y24427495D01*
X48914697Y24430785D01*
X48761278Y24464517D01*
X48617334Y24527404D01*
X48488343Y24617055D01*
X48379224Y24730051D01*
X48294127Y24862095D01*
X48236301Y25008147D01*
X48207945Y25162649D01*
X48210138Y25319716D01*
X48242799Y25473371D01*
X48304682Y25617754D01*
X48393429Y25747366D01*
X48505662Y25857273D01*
X48637100Y25943284D01*
X48782751Y26002131D01*
X48937052Y26031565D01*
X49094131Y26030468D01*
X49094131Y26030468D01*
G37*
G36*
X46554131Y26030468D02*
X46708009Y25998882D01*
X46852820Y25938009D01*
X46983048Y25850169D01*
X47093735Y25738706D01*
X47180665Y25607866D01*
X47240524Y25462636D01*
X47270983Y25308806D01*
X47271035Y25308542D01*
X47268529Y25129122D01*
X47268470Y25128863D01*
X47268470Y25128857D01*
X47233729Y24975939D01*
X47169839Y24832440D01*
X47079288Y24704076D01*
X46965533Y24595748D01*
X46832899Y24511577D01*
X46686449Y24454773D01*
X46531751Y24427495D01*
X46374697Y24430785D01*
X46221278Y24464517D01*
X46077334Y24527404D01*
X45948343Y24617055D01*
X45839224Y24730051D01*
X45754127Y24862095D01*
X45696301Y25008147D01*
X45667945Y25162649D01*
X45670138Y25319716D01*
X45702799Y25473371D01*
X45764682Y25617754D01*
X45853429Y25747366D01*
X45965662Y25857273D01*
X46097100Y25943284D01*
X46242751Y26002131D01*
X46397052Y26031565D01*
X46554131Y26030468D01*
X46554131Y26030468D01*
G37*
G36*
X44014131Y26030468D02*
X44168009Y25998882D01*
X44312820Y25938009D01*
X44443048Y25850169D01*
X44553735Y25738706D01*
X44640665Y25607866D01*
X44700524Y25462636D01*
X44730983Y25308806D01*
X44731035Y25308542D01*
X44728529Y25129122D01*
X44728470Y25128863D01*
X44728470Y25128857D01*
X44693729Y24975939D01*
X44629839Y24832440D01*
X44539288Y24704076D01*
X44425533Y24595748D01*
X44292899Y24511577D01*
X44146449Y24454773D01*
X43991751Y24427495D01*
X43834697Y24430785D01*
X43681278Y24464517D01*
X43537334Y24527404D01*
X43408343Y24617055D01*
X43299224Y24730051D01*
X43214127Y24862095D01*
X43156301Y25008147D01*
X43127945Y25162649D01*
X43130138Y25319716D01*
X43162799Y25473371D01*
X43224682Y25617754D01*
X43313429Y25747366D01*
X43425662Y25857273D01*
X43557100Y25943284D01*
X43702751Y26002131D01*
X43857052Y26031565D01*
X44014131Y26030468D01*
X44014131Y26030468D01*
G37*
G36*
X41474131Y26030468D02*
X41628009Y25998882D01*
X41772820Y25938009D01*
X41903048Y25850169D01*
X42013735Y25738706D01*
X42100665Y25607866D01*
X42160524Y25462636D01*
X42190983Y25308806D01*
X42191035Y25308542D01*
X42188529Y25129122D01*
X42188470Y25128863D01*
X42188470Y25128857D01*
X42153729Y24975939D01*
X42089839Y24832440D01*
X41999288Y24704076D01*
X41885533Y24595748D01*
X41752899Y24511577D01*
X41606449Y24454773D01*
X41451751Y24427495D01*
X41294697Y24430785D01*
X41141278Y24464517D01*
X40997334Y24527404D01*
X40868343Y24617055D01*
X40759224Y24730051D01*
X40674127Y24862095D01*
X40616301Y25008147D01*
X40587945Y25162649D01*
X40590138Y25319716D01*
X40622799Y25473371D01*
X40684682Y25617754D01*
X40773429Y25747366D01*
X40885662Y25857273D01*
X41017100Y25943284D01*
X41162751Y26002131D01*
X41317052Y26031565D01*
X41474131Y26030468D01*
X41474131Y26030468D01*
G37*
G36*
X38934131Y26030468D02*
X39088009Y25998882D01*
X39232820Y25938009D01*
X39363048Y25850169D01*
X39473735Y25738706D01*
X39560665Y25607866D01*
X39620524Y25462636D01*
X39650983Y25308806D01*
X39651035Y25308542D01*
X39648529Y25129122D01*
X39648470Y25128863D01*
X39648470Y25128857D01*
X39613729Y24975939D01*
X39549839Y24832440D01*
X39459288Y24704076D01*
X39345533Y24595748D01*
X39212899Y24511577D01*
X39066449Y24454773D01*
X38911751Y24427495D01*
X38754697Y24430785D01*
X38601278Y24464517D01*
X38457334Y24527404D01*
X38328343Y24617055D01*
X38219224Y24730051D01*
X38134127Y24862095D01*
X38076301Y25008147D01*
X38047945Y25162649D01*
X38050138Y25319716D01*
X38082799Y25473371D01*
X38144682Y25617754D01*
X38233429Y25747366D01*
X38345662Y25857273D01*
X38477100Y25943284D01*
X38622751Y26002131D01*
X38777052Y26031565D01*
X38934131Y26030468D01*
X38934131Y26030468D01*
G37*
G36*
X36394131Y26030468D02*
X36548009Y25998882D01*
X36692820Y25938009D01*
X36823048Y25850169D01*
X36933735Y25738706D01*
X37020665Y25607866D01*
X37080524Y25462636D01*
X37110983Y25308806D01*
X37111035Y25308542D01*
X37108529Y25129122D01*
X37108470Y25128863D01*
X37108470Y25128857D01*
X37073729Y24975939D01*
X37009839Y24832440D01*
X36919288Y24704076D01*
X36805533Y24595748D01*
X36672899Y24511577D01*
X36526449Y24454773D01*
X36371751Y24427495D01*
X36214697Y24430785D01*
X36061278Y24464517D01*
X35917334Y24527404D01*
X35788343Y24617055D01*
X35679224Y24730051D01*
X35594127Y24862095D01*
X35536301Y25008147D01*
X35507945Y25162649D01*
X35510138Y25319716D01*
X35542799Y25473371D01*
X35604682Y25617754D01*
X35693429Y25747366D01*
X35805662Y25857273D01*
X35937100Y25943284D01*
X36082751Y26002131D01*
X36237052Y26031565D01*
X36394131Y26030468D01*
X36394131Y26030468D01*
G37*
G36*
X33854131Y26030468D02*
X34008009Y25998882D01*
X34152820Y25938009D01*
X34283048Y25850169D01*
X34393735Y25738706D01*
X34480665Y25607866D01*
X34540524Y25462636D01*
X34570983Y25308806D01*
X34571035Y25308542D01*
X34568529Y25129122D01*
X34568470Y25128863D01*
X34568470Y25128857D01*
X34533729Y24975939D01*
X34469839Y24832440D01*
X34379288Y24704076D01*
X34265533Y24595748D01*
X34132899Y24511577D01*
X33986449Y24454773D01*
X33831751Y24427495D01*
X33674697Y24430785D01*
X33521278Y24464517D01*
X33377334Y24527404D01*
X33248343Y24617055D01*
X33139224Y24730051D01*
X33054127Y24862095D01*
X32996301Y25008147D01*
X32967945Y25162649D01*
X32970138Y25319716D01*
X33002799Y25473371D01*
X33064682Y25617754D01*
X33153429Y25747366D01*
X33265662Y25857273D01*
X33397100Y25943284D01*
X33542751Y26002131D01*
X33697052Y26031565D01*
X33854131Y26030468D01*
X33854131Y26030468D01*
G37*
G36*
X31314131Y26030468D02*
X31468009Y25998882D01*
X31612820Y25938009D01*
X31743048Y25850169D01*
X31853735Y25738706D01*
X31940665Y25607866D01*
X32000524Y25462636D01*
X32030983Y25308806D01*
X32031035Y25308542D01*
X32028529Y25129122D01*
X32028470Y25128863D01*
X32028470Y25128857D01*
X31993729Y24975939D01*
X31929839Y24832440D01*
X31839288Y24704076D01*
X31725533Y24595748D01*
X31592899Y24511577D01*
X31446449Y24454773D01*
X31291751Y24427495D01*
X31134697Y24430785D01*
X30981278Y24464517D01*
X30837334Y24527404D01*
X30708343Y24617055D01*
X30599224Y24730051D01*
X30514127Y24862095D01*
X30456301Y25008147D01*
X30427945Y25162649D01*
X30430138Y25319716D01*
X30462799Y25473371D01*
X30524682Y25617754D01*
X30613429Y25747366D01*
X30725662Y25857273D01*
X30857100Y25943284D01*
X31002751Y26002131D01*
X31157052Y26031565D01*
X31314131Y26030468D01*
X31314131Y26030468D01*
G37*
G36*
X28774131Y26030468D02*
X28928009Y25998882D01*
X29072820Y25938009D01*
X29203048Y25850169D01*
X29313735Y25738706D01*
X29400665Y25607866D01*
X29460524Y25462636D01*
X29490983Y25308806D01*
X29491035Y25308542D01*
X29488529Y25129122D01*
X29488470Y25128863D01*
X29488470Y25128857D01*
X29453729Y24975939D01*
X29389839Y24832440D01*
X29299288Y24704076D01*
X29185533Y24595748D01*
X29052899Y24511577D01*
X28906449Y24454773D01*
X28751751Y24427495D01*
X28594697Y24430785D01*
X28441278Y24464517D01*
X28297334Y24527404D01*
X28168343Y24617055D01*
X28059224Y24730051D01*
X27974127Y24862095D01*
X27916301Y25008147D01*
X27887945Y25162649D01*
X27890138Y25319716D01*
X27922799Y25473371D01*
X27984682Y25617754D01*
X28073429Y25747366D01*
X28185662Y25857273D01*
X28317100Y25943284D01*
X28462751Y26002131D01*
X28617052Y26031565D01*
X28774131Y26030468D01*
X28774131Y26030468D01*
G37*
G36*
X26234131Y26030468D02*
X26388009Y25998882D01*
X26532820Y25938009D01*
X26663048Y25850169D01*
X26773735Y25738706D01*
X26860665Y25607866D01*
X26920524Y25462636D01*
X26950983Y25308806D01*
X26951035Y25308542D01*
X26948529Y25129122D01*
X26948470Y25128863D01*
X26948470Y25128857D01*
X26913729Y24975939D01*
X26849839Y24832440D01*
X26759288Y24704076D01*
X26645533Y24595748D01*
X26512899Y24511577D01*
X26366449Y24454773D01*
X26211751Y24427495D01*
X26054697Y24430785D01*
X25901278Y24464517D01*
X25757334Y24527404D01*
X25628343Y24617055D01*
X25519224Y24730051D01*
X25434127Y24862095D01*
X25376301Y25008147D01*
X25347945Y25162649D01*
X25350138Y25319716D01*
X25382799Y25473371D01*
X25444682Y25617754D01*
X25533429Y25747366D01*
X25645662Y25857273D01*
X25777100Y25943284D01*
X25922751Y26002131D01*
X26077052Y26031565D01*
X26234131Y26030468D01*
X26234131Y26030468D01*
G37*
G36*
X23694131Y26030468D02*
X23848009Y25998882D01*
X23992820Y25938009D01*
X24123048Y25850169D01*
X24233735Y25738706D01*
X24320665Y25607866D01*
X24380524Y25462636D01*
X24410983Y25308806D01*
X24411035Y25308542D01*
X24408529Y25129122D01*
X24408470Y25128863D01*
X24408470Y25128857D01*
X24373729Y24975939D01*
X24309839Y24832440D01*
X24219288Y24704076D01*
X24105533Y24595748D01*
X23972899Y24511577D01*
X23826449Y24454773D01*
X23671751Y24427495D01*
X23514697Y24430785D01*
X23361278Y24464517D01*
X23217334Y24527404D01*
X23088343Y24617055D01*
X22979224Y24730051D01*
X22894127Y24862095D01*
X22836301Y25008147D01*
X22807945Y25162649D01*
X22810138Y25319716D01*
X22842799Y25473371D01*
X22904682Y25617754D01*
X22993429Y25747366D01*
X23105662Y25857273D01*
X23237100Y25943284D01*
X23382751Y26002131D01*
X23537052Y26031565D01*
X23694131Y26030468D01*
X23694131Y26030468D01*
G37*
G36*
X21154131Y26030468D02*
X21308009Y25998882D01*
X21452820Y25938009D01*
X21583048Y25850169D01*
X21693735Y25738706D01*
X21780665Y25607866D01*
X21840524Y25462636D01*
X21870983Y25308806D01*
X21871035Y25308542D01*
X21868529Y25129122D01*
X21868470Y25128863D01*
X21868470Y25128857D01*
X21833729Y24975939D01*
X21769839Y24832440D01*
X21679288Y24704076D01*
X21565533Y24595748D01*
X21432899Y24511577D01*
X21286449Y24454773D01*
X21131751Y24427495D01*
X20974697Y24430785D01*
X20821278Y24464517D01*
X20677334Y24527404D01*
X20548343Y24617055D01*
X20439224Y24730051D01*
X20354127Y24862095D01*
X20296301Y25008147D01*
X20267945Y25162649D01*
X20270138Y25319716D01*
X20302799Y25473371D01*
X20364682Y25617754D01*
X20453429Y25747366D01*
X20565662Y25857273D01*
X20697100Y25943284D01*
X20842751Y26002131D01*
X20997052Y26031565D01*
X21154131Y26030468D01*
X21154131Y26030468D01*
G37*
G36*
X18614131Y26030468D02*
X18768009Y25998882D01*
X18912820Y25938009D01*
X19043048Y25850169D01*
X19153735Y25738706D01*
X19240665Y25607866D01*
X19300524Y25462636D01*
X19330983Y25308806D01*
X19331035Y25308542D01*
X19328529Y25129122D01*
X19328470Y25128863D01*
X19328470Y25128857D01*
X19293729Y24975939D01*
X19229839Y24832440D01*
X19139288Y24704076D01*
X19025533Y24595748D01*
X18892899Y24511577D01*
X18746449Y24454773D01*
X18591751Y24427495D01*
X18434697Y24430785D01*
X18281278Y24464517D01*
X18137334Y24527404D01*
X18008343Y24617055D01*
X17899224Y24730051D01*
X17814127Y24862095D01*
X17756301Y25008147D01*
X17727945Y25162649D01*
X17730138Y25319716D01*
X17762799Y25473371D01*
X17824682Y25617754D01*
X17913429Y25747366D01*
X18025662Y25857273D01*
X18157100Y25943284D01*
X18302751Y26002131D01*
X18457052Y26031565D01*
X18614131Y26030468D01*
X18614131Y26030468D01*
G37*
G36*
X16074131Y26030468D02*
X16228009Y25998882D01*
X16372820Y25938009D01*
X16503048Y25850169D01*
X16613735Y25738706D01*
X16700665Y25607866D01*
X16760524Y25462636D01*
X16790983Y25308806D01*
X16791035Y25308542D01*
X16788529Y25129122D01*
X16788470Y25128863D01*
X16788470Y25128857D01*
X16753729Y24975939D01*
X16689839Y24832440D01*
X16599288Y24704076D01*
X16485533Y24595748D01*
X16352899Y24511577D01*
X16206449Y24454773D01*
X16051751Y24427495D01*
X15894697Y24430785D01*
X15741278Y24464517D01*
X15597334Y24527404D01*
X15468343Y24617055D01*
X15359224Y24730051D01*
X15274127Y24862095D01*
X15216301Y25008147D01*
X15187945Y25162649D01*
X15190138Y25319716D01*
X15222799Y25473371D01*
X15284682Y25617754D01*
X15373429Y25747366D01*
X15485662Y25857273D01*
X15617100Y25943284D01*
X15762751Y26002131D01*
X15917052Y26031565D01*
X16074131Y26030468D01*
X16074131Y26030468D01*
G37*
G36*
X13534131Y26030468D02*
X13688009Y25998882D01*
X13832820Y25938009D01*
X13963048Y25850169D01*
X14073735Y25738706D01*
X14160665Y25607866D01*
X14220524Y25462636D01*
X14250983Y25308806D01*
X14251035Y25308542D01*
X14248529Y25129122D01*
X14248470Y25128863D01*
X14248470Y25128857D01*
X14213729Y24975939D01*
X14149839Y24832440D01*
X14059288Y24704076D01*
X13945533Y24595748D01*
X13812899Y24511577D01*
X13666449Y24454773D01*
X13511751Y24427495D01*
X13354697Y24430785D01*
X13201278Y24464517D01*
X13057334Y24527404D01*
X12928343Y24617055D01*
X12819224Y24730051D01*
X12734127Y24862095D01*
X12676301Y25008147D01*
X12647945Y25162649D01*
X12650138Y25319716D01*
X12682799Y25473371D01*
X12744682Y25617754D01*
X12833429Y25747366D01*
X12945662Y25857273D01*
X13077100Y25943284D01*
X13222751Y26002131D01*
X13377052Y26031565D01*
X13534131Y26030468D01*
X13534131Y26030468D01*
G37*
G36*
X8454131Y26030468D02*
X8608009Y25998882D01*
X8752820Y25938009D01*
X8883048Y25850169D01*
X8993735Y25738706D01*
X9080665Y25607866D01*
X9140524Y25462636D01*
X9170983Y25308806D01*
X9171035Y25308542D01*
X9168529Y25129122D01*
X9168470Y25128863D01*
X9168470Y25128857D01*
X9133729Y24975939D01*
X9069839Y24832440D01*
X8979288Y24704076D01*
X8865533Y24595748D01*
X8732899Y24511577D01*
X8586449Y24454773D01*
X8431751Y24427495D01*
X8274697Y24430785D01*
X8121278Y24464517D01*
X7977334Y24527404D01*
X7848343Y24617055D01*
X7739224Y24730051D01*
X7654127Y24862095D01*
X7596301Y25008147D01*
X7567945Y25162649D01*
X7570138Y25319716D01*
X7602799Y25473371D01*
X7664682Y25617754D01*
X7753429Y25747366D01*
X7865662Y25857273D01*
X7997100Y25943284D01*
X8142751Y26002131D01*
X8297052Y26031565D01*
X8454131Y26030468D01*
X8454131Y26030468D01*
G37*
G36*
X10994131Y26030468D02*
X11148009Y25998882D01*
X11292820Y25938009D01*
X11423048Y25850169D01*
X11533735Y25738706D01*
X11620665Y25607866D01*
X11680524Y25462636D01*
X11710983Y25308806D01*
X11711035Y25308542D01*
X11708529Y25129122D01*
X11708470Y25128863D01*
X11708470Y25128857D01*
X11673729Y24975939D01*
X11609839Y24832440D01*
X11519288Y24704076D01*
X11405533Y24595748D01*
X11272899Y24511577D01*
X11126449Y24454773D01*
X10971751Y24427495D01*
X10814697Y24430785D01*
X10661278Y24464517D01*
X10517334Y24527404D01*
X10388343Y24617055D01*
X10279224Y24730051D01*
X10194127Y24862095D01*
X10136301Y25008147D01*
X10107945Y25162649D01*
X10110138Y25319716D01*
X10142799Y25473371D01*
X10204682Y25617754D01*
X10293429Y25747366D01*
X10405662Y25857273D01*
X10537100Y25943284D01*
X10682751Y26002131D01*
X10837052Y26031565D01*
X10994131Y26030468D01*
X10994131Y26030468D01*
G37*
G36*
X54174131Y26030468D02*
X54328009Y25998882D01*
X54472820Y25938009D01*
X54603048Y25850169D01*
X54713735Y25738706D01*
X54800665Y25607866D01*
X54860524Y25462636D01*
X54890983Y25308806D01*
X54891035Y25308542D01*
X54888529Y25129122D01*
X54888470Y25128863D01*
X54888470Y25128857D01*
X54853729Y24975939D01*
X54789839Y24832440D01*
X54699288Y24704076D01*
X54585533Y24595748D01*
X54452899Y24511577D01*
X54306449Y24454773D01*
X54151751Y24427495D01*
X53994697Y24430785D01*
X53841278Y24464517D01*
X53697334Y24527404D01*
X53568343Y24617055D01*
X53459224Y24730051D01*
X53374127Y24862095D01*
X53316301Y25008147D01*
X53287945Y25162649D01*
X53290138Y25319716D01*
X53322799Y25473371D01*
X53384682Y25617754D01*
X53473429Y25747366D01*
X53585662Y25857273D01*
X53717100Y25943284D01*
X53862751Y26002131D01*
X54017052Y26031565D01*
X54174131Y26030468D01*
X54174131Y26030468D01*
G37*
G36*
X56714131Y26030468D02*
X56868009Y25998882D01*
X57012820Y25938009D01*
X57143048Y25850169D01*
X57253735Y25738706D01*
X57340665Y25607866D01*
X57400524Y25462636D01*
X57430983Y25308806D01*
X57431035Y25308542D01*
X57428529Y25129122D01*
X57428470Y25128863D01*
X57428470Y25128857D01*
X57393729Y24975939D01*
X57329839Y24832440D01*
X57239288Y24704076D01*
X57125533Y24595748D01*
X56992899Y24511577D01*
X56846449Y24454773D01*
X56691751Y24427495D01*
X56534697Y24430785D01*
X56381278Y24464517D01*
X56237334Y24527404D01*
X56108343Y24617055D01*
X55999224Y24730051D01*
X55914127Y24862095D01*
X55856301Y25008147D01*
X55827945Y25162649D01*
X55830138Y25319716D01*
X55862799Y25473371D01*
X55924682Y25617754D01*
X56013429Y25747366D01*
X56125662Y25857273D01*
X56257100Y25943284D01*
X56402751Y26002131D01*
X56557052Y26031565D01*
X56714131Y26030468D01*
X56714131Y26030468D01*
G37*
G36*
X28774131Y28570468D02*
X28928009Y28538882D01*
X29072820Y28478009D01*
X29203048Y28390169D01*
X29313735Y28278706D01*
X29400665Y28147866D01*
X29460524Y28002636D01*
X29490983Y27848806D01*
X29491035Y27848542D01*
X29488529Y27669122D01*
X29488470Y27668863D01*
X29488470Y27668857D01*
X29453729Y27515939D01*
X29389839Y27372440D01*
X29299288Y27244076D01*
X29185533Y27135748D01*
X29052899Y27051577D01*
X28906449Y26994773D01*
X28751751Y26967495D01*
X28594697Y26970785D01*
X28441278Y27004517D01*
X28297334Y27067404D01*
X28168343Y27157055D01*
X28059224Y27270051D01*
X27974127Y27402095D01*
X27916301Y27548147D01*
X27887945Y27702649D01*
X27890138Y27859716D01*
X27922799Y28013371D01*
X27984682Y28157754D01*
X28073429Y28287366D01*
X28185662Y28397273D01*
X28317100Y28483284D01*
X28462751Y28542131D01*
X28617052Y28571565D01*
X28774131Y28570468D01*
X28774131Y28570468D01*
G37*
G36*
X31314131Y28570468D02*
X31468009Y28538882D01*
X31612820Y28478009D01*
X31743048Y28390169D01*
X31853735Y28278706D01*
X31940665Y28147866D01*
X32000524Y28002636D01*
X32030983Y27848806D01*
X32031035Y27848542D01*
X32028529Y27669122D01*
X32028470Y27668863D01*
X32028470Y27668857D01*
X31993729Y27515939D01*
X31929839Y27372440D01*
X31839288Y27244076D01*
X31725533Y27135748D01*
X31592899Y27051577D01*
X31446449Y26994773D01*
X31291751Y26967495D01*
X31134697Y26970785D01*
X30981278Y27004517D01*
X30837334Y27067404D01*
X30708343Y27157055D01*
X30599224Y27270051D01*
X30514127Y27402095D01*
X30456301Y27548147D01*
X30427945Y27702649D01*
X30430138Y27859716D01*
X30462799Y28013371D01*
X30524682Y28157754D01*
X30613429Y28287366D01*
X30725662Y28397273D01*
X30857100Y28483284D01*
X31002751Y28542131D01*
X31157052Y28571565D01*
X31314131Y28570468D01*
X31314131Y28570468D01*
G37*
G36*
X33854131Y28570468D02*
X34008009Y28538882D01*
X34152820Y28478009D01*
X34283048Y28390169D01*
X34393735Y28278706D01*
X34480665Y28147866D01*
X34540524Y28002636D01*
X34570983Y27848806D01*
X34571035Y27848542D01*
X34568529Y27669122D01*
X34568470Y27668863D01*
X34568470Y27668857D01*
X34533729Y27515939D01*
X34469839Y27372440D01*
X34379288Y27244076D01*
X34265533Y27135748D01*
X34132899Y27051577D01*
X33986449Y26994773D01*
X33831751Y26967495D01*
X33674697Y26970785D01*
X33521278Y27004517D01*
X33377334Y27067404D01*
X33248343Y27157055D01*
X33139224Y27270051D01*
X33054127Y27402095D01*
X32996301Y27548147D01*
X32967945Y27702649D01*
X32970138Y27859716D01*
X33002799Y28013371D01*
X33064682Y28157754D01*
X33153429Y28287366D01*
X33265662Y28397273D01*
X33397100Y28483284D01*
X33542751Y28542131D01*
X33697052Y28571565D01*
X33854131Y28570468D01*
X33854131Y28570468D01*
G37*
G36*
X36394131Y28570468D02*
X36548009Y28538882D01*
X36692820Y28478009D01*
X36823048Y28390169D01*
X36933735Y28278706D01*
X37020665Y28147866D01*
X37080524Y28002636D01*
X37110983Y27848806D01*
X37111035Y27848542D01*
X37108529Y27669122D01*
X37108470Y27668863D01*
X37108470Y27668857D01*
X37073729Y27515939D01*
X37009839Y27372440D01*
X36919288Y27244076D01*
X36805533Y27135748D01*
X36672899Y27051577D01*
X36526449Y26994773D01*
X36371751Y26967495D01*
X36214697Y26970785D01*
X36061278Y27004517D01*
X35917334Y27067404D01*
X35788343Y27157055D01*
X35679224Y27270051D01*
X35594127Y27402095D01*
X35536301Y27548147D01*
X35507945Y27702649D01*
X35510138Y27859716D01*
X35542799Y28013371D01*
X35604682Y28157754D01*
X35693429Y28287366D01*
X35805662Y28397273D01*
X35937100Y28483284D01*
X36082751Y28542131D01*
X36237052Y28571565D01*
X36394131Y28570468D01*
X36394131Y28570468D01*
G37*
G36*
X38934131Y28570468D02*
X39088009Y28538882D01*
X39232820Y28478009D01*
X39363048Y28390169D01*
X39473735Y28278706D01*
X39560665Y28147866D01*
X39620524Y28002636D01*
X39650983Y27848806D01*
X39651035Y27848542D01*
X39648529Y27669122D01*
X39648470Y27668863D01*
X39648470Y27668857D01*
X39613729Y27515939D01*
X39549839Y27372440D01*
X39459288Y27244076D01*
X39345533Y27135748D01*
X39212899Y27051577D01*
X39066449Y26994773D01*
X38911751Y26967495D01*
X38754697Y26970785D01*
X38601278Y27004517D01*
X38457334Y27067404D01*
X38328343Y27157055D01*
X38219224Y27270051D01*
X38134127Y27402095D01*
X38076301Y27548147D01*
X38047945Y27702649D01*
X38050138Y27859716D01*
X38082799Y28013371D01*
X38144682Y28157754D01*
X38233429Y28287366D01*
X38345662Y28397273D01*
X38477100Y28483284D01*
X38622751Y28542131D01*
X38777052Y28571565D01*
X38934131Y28570468D01*
X38934131Y28570468D01*
G37*
G36*
X41474131Y28570468D02*
X41628009Y28538882D01*
X41772820Y28478009D01*
X41903048Y28390169D01*
X42013735Y28278706D01*
X42100665Y28147866D01*
X42160524Y28002636D01*
X42190983Y27848806D01*
X42191035Y27848542D01*
X42188529Y27669122D01*
X42188470Y27668863D01*
X42188470Y27668857D01*
X42153729Y27515939D01*
X42089839Y27372440D01*
X41999288Y27244076D01*
X41885533Y27135748D01*
X41752899Y27051577D01*
X41606449Y26994773D01*
X41451751Y26967495D01*
X41294697Y26970785D01*
X41141278Y27004517D01*
X40997334Y27067404D01*
X40868343Y27157055D01*
X40759224Y27270051D01*
X40674127Y27402095D01*
X40616301Y27548147D01*
X40587945Y27702649D01*
X40590138Y27859716D01*
X40622799Y28013371D01*
X40684682Y28157754D01*
X40773429Y28287366D01*
X40885662Y28397273D01*
X41017100Y28483284D01*
X41162751Y28542131D01*
X41317052Y28571565D01*
X41474131Y28570468D01*
X41474131Y28570468D01*
G37*
G36*
X44014131Y28570468D02*
X44168009Y28538882D01*
X44312820Y28478009D01*
X44443048Y28390169D01*
X44553735Y28278706D01*
X44640665Y28147866D01*
X44700524Y28002636D01*
X44730983Y27848806D01*
X44731035Y27848542D01*
X44728529Y27669122D01*
X44728470Y27668863D01*
X44728470Y27668857D01*
X44693729Y27515939D01*
X44629839Y27372440D01*
X44539288Y27244076D01*
X44425533Y27135748D01*
X44292899Y27051577D01*
X44146449Y26994773D01*
X43991751Y26967495D01*
X43834697Y26970785D01*
X43681278Y27004517D01*
X43537334Y27067404D01*
X43408343Y27157055D01*
X43299224Y27270051D01*
X43214127Y27402095D01*
X43156301Y27548147D01*
X43127945Y27702649D01*
X43130138Y27859716D01*
X43162799Y28013371D01*
X43224682Y28157754D01*
X43313429Y28287366D01*
X43425662Y28397273D01*
X43557100Y28483284D01*
X43702751Y28542131D01*
X43857052Y28571565D01*
X44014131Y28570468D01*
X44014131Y28570468D01*
G37*
G36*
X46554131Y28570468D02*
X46708009Y28538882D01*
X46852820Y28478009D01*
X46983048Y28390169D01*
X47093735Y28278706D01*
X47180665Y28147866D01*
X47240524Y28002636D01*
X47270983Y27848806D01*
X47271035Y27848542D01*
X47268529Y27669122D01*
X47268470Y27668863D01*
X47268470Y27668857D01*
X47233729Y27515939D01*
X47169839Y27372440D01*
X47079288Y27244076D01*
X46965533Y27135748D01*
X46832899Y27051577D01*
X46686449Y26994773D01*
X46531751Y26967495D01*
X46374697Y26970785D01*
X46221278Y27004517D01*
X46077334Y27067404D01*
X45948343Y27157055D01*
X45839224Y27270051D01*
X45754127Y27402095D01*
X45696301Y27548147D01*
X45667945Y27702649D01*
X45670138Y27859716D01*
X45702799Y28013371D01*
X45764682Y28157754D01*
X45853429Y28287366D01*
X45965662Y28397273D01*
X46097100Y28483284D01*
X46242751Y28542131D01*
X46397052Y28571565D01*
X46554131Y28570468D01*
X46554131Y28570468D01*
G37*
G36*
X49094131Y28570468D02*
X49248009Y28538882D01*
X49392820Y28478009D01*
X49523048Y28390169D01*
X49633735Y28278706D01*
X49720665Y28147866D01*
X49780524Y28002636D01*
X49810983Y27848806D01*
X49811035Y27848542D01*
X49808529Y27669122D01*
X49808470Y27668863D01*
X49808470Y27668857D01*
X49773729Y27515939D01*
X49709839Y27372440D01*
X49619288Y27244076D01*
X49505533Y27135748D01*
X49372899Y27051577D01*
X49226449Y26994773D01*
X49071751Y26967495D01*
X48914697Y26970785D01*
X48761278Y27004517D01*
X48617334Y27067404D01*
X48488343Y27157055D01*
X48379224Y27270051D01*
X48294127Y27402095D01*
X48236301Y27548147D01*
X48207945Y27702649D01*
X48210138Y27859716D01*
X48242799Y28013371D01*
X48304682Y28157754D01*
X48393429Y28287366D01*
X48505662Y28397273D01*
X48637100Y28483284D01*
X48782751Y28542131D01*
X48937052Y28571565D01*
X49094131Y28570468D01*
X49094131Y28570468D01*
G37*
G36*
X51634131Y28570468D02*
X51788009Y28538882D01*
X51932820Y28478009D01*
X52063048Y28390169D01*
X52173735Y28278706D01*
X52260665Y28147866D01*
X52320524Y28002636D01*
X52350983Y27848806D01*
X52351035Y27848542D01*
X52348529Y27669122D01*
X52348470Y27668863D01*
X52348470Y27668857D01*
X52313729Y27515939D01*
X52249839Y27372440D01*
X52159288Y27244076D01*
X52045533Y27135748D01*
X51912899Y27051577D01*
X51766449Y26994773D01*
X51611751Y26967495D01*
X51454697Y26970785D01*
X51301278Y27004517D01*
X51157334Y27067404D01*
X51028343Y27157055D01*
X50919224Y27270051D01*
X50834127Y27402095D01*
X50776301Y27548147D01*
X50747945Y27702649D01*
X50750138Y27859716D01*
X50782799Y28013371D01*
X50844682Y28157754D01*
X50933429Y28287366D01*
X51045662Y28397273D01*
X51177100Y28483284D01*
X51322751Y28542131D01*
X51477052Y28571565D01*
X51634131Y28570468D01*
X51634131Y28570468D01*
G37*
G36*
X26234131Y28570468D02*
X26388009Y28538882D01*
X26532820Y28478009D01*
X26663048Y28390169D01*
X26773735Y28278706D01*
X26860665Y28147866D01*
X26920524Y28002636D01*
X26950983Y27848806D01*
X26951035Y27848542D01*
X26948529Y27669122D01*
X26948470Y27668863D01*
X26948470Y27668857D01*
X26913729Y27515939D01*
X26849839Y27372440D01*
X26759288Y27244076D01*
X26645533Y27135748D01*
X26512899Y27051577D01*
X26366449Y26994773D01*
X26211751Y26967495D01*
X26054697Y26970785D01*
X25901278Y27004517D01*
X25757334Y27067404D01*
X25628343Y27157055D01*
X25519224Y27270051D01*
X25434127Y27402095D01*
X25376301Y27548147D01*
X25347945Y27702649D01*
X25350138Y27859716D01*
X25382799Y28013371D01*
X25444682Y28157754D01*
X25533429Y28287366D01*
X25645662Y28397273D01*
X25777100Y28483284D01*
X25922751Y28542131D01*
X26077052Y28571565D01*
X26234131Y28570468D01*
X26234131Y28570468D01*
G37*
G36*
X23694131Y28570468D02*
X23848009Y28538882D01*
X23992820Y28478009D01*
X24123048Y28390169D01*
X24233735Y28278706D01*
X24320665Y28147866D01*
X24380524Y28002636D01*
X24410983Y27848806D01*
X24411035Y27848542D01*
X24408529Y27669122D01*
X24408470Y27668863D01*
X24408470Y27668857D01*
X24373729Y27515939D01*
X24309839Y27372440D01*
X24219288Y27244076D01*
X24105533Y27135748D01*
X23972899Y27051577D01*
X23826449Y26994773D01*
X23671751Y26967495D01*
X23514697Y26970785D01*
X23361278Y27004517D01*
X23217334Y27067404D01*
X23088343Y27157055D01*
X22979224Y27270051D01*
X22894127Y27402095D01*
X22836301Y27548147D01*
X22807945Y27702649D01*
X22810138Y27859716D01*
X22842799Y28013371D01*
X22904682Y28157754D01*
X22993429Y28287366D01*
X23105662Y28397273D01*
X23237100Y28483284D01*
X23382751Y28542131D01*
X23537052Y28571565D01*
X23694131Y28570468D01*
X23694131Y28570468D01*
G37*
G36*
X21154131Y28570468D02*
X21308009Y28538882D01*
X21452820Y28478009D01*
X21583048Y28390169D01*
X21693735Y28278706D01*
X21780665Y28147866D01*
X21840524Y28002636D01*
X21870983Y27848806D01*
X21871035Y27848542D01*
X21868529Y27669122D01*
X21868470Y27668863D01*
X21868470Y27668857D01*
X21833729Y27515939D01*
X21769839Y27372440D01*
X21679288Y27244076D01*
X21565533Y27135748D01*
X21432899Y27051577D01*
X21286449Y26994773D01*
X21131751Y26967495D01*
X20974697Y26970785D01*
X20821278Y27004517D01*
X20677334Y27067404D01*
X20548343Y27157055D01*
X20439224Y27270051D01*
X20354127Y27402095D01*
X20296301Y27548147D01*
X20267945Y27702649D01*
X20270138Y27859716D01*
X20302799Y28013371D01*
X20364682Y28157754D01*
X20453429Y28287366D01*
X20565662Y28397273D01*
X20697100Y28483284D01*
X20842751Y28542131D01*
X20997052Y28571565D01*
X21154131Y28570468D01*
X21154131Y28570468D01*
G37*
G36*
X56714131Y28570468D02*
X56868009Y28538882D01*
X57012820Y28478009D01*
X57143048Y28390169D01*
X57253735Y28278706D01*
X57340665Y28147866D01*
X57400524Y28002636D01*
X57430983Y27848806D01*
X57431035Y27848542D01*
X57428529Y27669122D01*
X57428470Y27668863D01*
X57428470Y27668857D01*
X57393729Y27515939D01*
X57329839Y27372440D01*
X57239288Y27244076D01*
X57125533Y27135748D01*
X56992899Y27051577D01*
X56846449Y26994773D01*
X56691751Y26967495D01*
X56534697Y26970785D01*
X56381278Y27004517D01*
X56237334Y27067404D01*
X56108343Y27157055D01*
X55999224Y27270051D01*
X55914127Y27402095D01*
X55856301Y27548147D01*
X55827945Y27702649D01*
X55830138Y27859716D01*
X55862799Y28013371D01*
X55924682Y28157754D01*
X56013429Y28287366D01*
X56125662Y28397273D01*
X56257100Y28483284D01*
X56402751Y28542131D01*
X56557052Y28571565D01*
X56714131Y28570468D01*
X56714131Y28570468D01*
G37*
G36*
X54174131Y28570468D02*
X54328009Y28538882D01*
X54472820Y28478009D01*
X54603048Y28390169D01*
X54713735Y28278706D01*
X54800665Y28147866D01*
X54860524Y28002636D01*
X54890983Y27848806D01*
X54891035Y27848542D01*
X54888529Y27669122D01*
X54888470Y27668863D01*
X54888470Y27668857D01*
X54853729Y27515939D01*
X54789839Y27372440D01*
X54699288Y27244076D01*
X54585533Y27135748D01*
X54452899Y27051577D01*
X54306449Y26994773D01*
X54151751Y26967495D01*
X53994697Y26970785D01*
X53841278Y27004517D01*
X53697334Y27067404D01*
X53568343Y27157055D01*
X53459224Y27270051D01*
X53374127Y27402095D01*
X53316301Y27548147D01*
X53287945Y27702649D01*
X53290138Y27859716D01*
X53322799Y28013371D01*
X53384682Y28157754D01*
X53473429Y28287366D01*
X53585662Y28397273D01*
X53717100Y28483284D01*
X53862751Y28542131D01*
X54017052Y28571565D01*
X54174131Y28570468D01*
X54174131Y28570468D01*
G37*
G36*
X8454131Y28570468D02*
X8608009Y28538882D01*
X8752820Y28478009D01*
X8883048Y28390169D01*
X8993735Y28278706D01*
X9080665Y28147866D01*
X9140524Y28002636D01*
X9170983Y27848806D01*
X9171035Y27848542D01*
X9168529Y27669122D01*
X9168470Y27668863D01*
X9168470Y27668857D01*
X9133729Y27515939D01*
X9069839Y27372440D01*
X8979288Y27244076D01*
X8865533Y27135748D01*
X8732899Y27051577D01*
X8586449Y26994773D01*
X8431751Y26967495D01*
X8274697Y26970785D01*
X8121278Y27004517D01*
X7977334Y27067404D01*
X7848343Y27157055D01*
X7739224Y27270051D01*
X7654127Y27402095D01*
X7596301Y27548147D01*
X7567945Y27702649D01*
X7570138Y27859716D01*
X7602799Y28013371D01*
X7664682Y28157754D01*
X7753429Y28287366D01*
X7865662Y28397273D01*
X7997100Y28483284D01*
X8142751Y28542131D01*
X8297052Y28571565D01*
X8454131Y28570468D01*
X8454131Y28570468D01*
G37*
G36*
X10994131Y28570468D02*
X11148009Y28538882D01*
X11292820Y28478009D01*
X11423048Y28390169D01*
X11533735Y28278706D01*
X11620665Y28147866D01*
X11680524Y28002636D01*
X11710983Y27848806D01*
X11711035Y27848542D01*
X11708529Y27669122D01*
X11708470Y27668863D01*
X11708470Y27668857D01*
X11673729Y27515939D01*
X11609839Y27372440D01*
X11519288Y27244076D01*
X11405533Y27135748D01*
X11272899Y27051577D01*
X11126449Y26994773D01*
X10971751Y26967495D01*
X10814697Y26970785D01*
X10661278Y27004517D01*
X10517334Y27067404D01*
X10388343Y27157055D01*
X10279224Y27270051D01*
X10194127Y27402095D01*
X10136301Y27548147D01*
X10107945Y27702649D01*
X10110138Y27859716D01*
X10142799Y28013371D01*
X10204682Y28157754D01*
X10293429Y28287366D01*
X10405662Y28397273D01*
X10537100Y28483284D01*
X10682751Y28542131D01*
X10837052Y28571565D01*
X10994131Y28570468D01*
X10994131Y28570468D01*
G37*
G36*
X18614131Y28570468D02*
X18768009Y28538882D01*
X18912820Y28478009D01*
X19043048Y28390169D01*
X19153735Y28278706D01*
X19240665Y28147866D01*
X19300524Y28002636D01*
X19330983Y27848806D01*
X19331035Y27848542D01*
X19328529Y27669122D01*
X19328470Y27668863D01*
X19328470Y27668857D01*
X19293729Y27515939D01*
X19229839Y27372440D01*
X19139288Y27244076D01*
X19025533Y27135748D01*
X18892899Y27051577D01*
X18746449Y26994773D01*
X18591751Y26967495D01*
X18434697Y26970785D01*
X18281278Y27004517D01*
X18137334Y27067404D01*
X18008343Y27157055D01*
X17899224Y27270051D01*
X17814127Y27402095D01*
X17756301Y27548147D01*
X17727945Y27702649D01*
X17730138Y27859716D01*
X17762799Y28013371D01*
X17824682Y28157754D01*
X17913429Y28287366D01*
X18025662Y28397273D01*
X18157100Y28483284D01*
X18302751Y28542131D01*
X18457052Y28571565D01*
X18614131Y28570468D01*
X18614131Y28570468D01*
G37*
G36*
X16074131Y28570468D02*
X16228009Y28538882D01*
X16372820Y28478009D01*
X16503048Y28390169D01*
X16613735Y28278706D01*
X16700665Y28147866D01*
X16760524Y28002636D01*
X16790983Y27848806D01*
X16791035Y27848542D01*
X16788529Y27669122D01*
X16788470Y27668863D01*
X16788470Y27668857D01*
X16753729Y27515939D01*
X16689839Y27372440D01*
X16599288Y27244076D01*
X16485533Y27135748D01*
X16352899Y27051577D01*
X16206449Y26994773D01*
X16051751Y26967495D01*
X15894697Y26970785D01*
X15741278Y27004517D01*
X15597334Y27067404D01*
X15468343Y27157055D01*
X15359224Y27270051D01*
X15274127Y27402095D01*
X15216301Y27548147D01*
X15187945Y27702649D01*
X15190138Y27859716D01*
X15222799Y28013371D01*
X15284682Y28157754D01*
X15373429Y28287366D01*
X15485662Y28397273D01*
X15617100Y28483284D01*
X15762751Y28542131D01*
X15917052Y28571565D01*
X16074131Y28570468D01*
X16074131Y28570468D01*
G37*
G36*
X13534131Y28570468D02*
X13688009Y28538882D01*
X13832820Y28478009D01*
X13963048Y28390169D01*
X14073735Y28278706D01*
X14160665Y28147866D01*
X14220524Y28002636D01*
X14250983Y27848806D01*
X14251035Y27848542D01*
X14248529Y27669122D01*
X14248470Y27668863D01*
X14248470Y27668857D01*
X14213729Y27515939D01*
X14149839Y27372440D01*
X14059288Y27244076D01*
X13945533Y27135748D01*
X13812899Y27051577D01*
X13666449Y26994773D01*
X13511751Y26967495D01*
X13354697Y26970785D01*
X13201278Y27004517D01*
X13057334Y27067404D01*
X12928343Y27157055D01*
X12819224Y27270051D01*
X12734127Y27402095D01*
X12676301Y27548147D01*
X12647945Y27702649D01*
X12650138Y27859716D01*
X12682799Y28013371D01*
X12744682Y28157754D01*
X12833429Y28287366D01*
X12945662Y28397273D01*
X13077100Y28483284D01*
X13222751Y28542131D01*
X13377052Y28571565D01*
X13534131Y28570468D01*
X13534131Y28570468D01*
G37*
M02*
