M48
;DRILL file {KiCad 4.0.2-stable} date Sunday, October 23, 2016 'AMt' 12:13:40 AM
;FORMAT={-:-/ absolute / metric / decimal}
FMAT,2
METRIC,TZ
T1C0.305
T2C1.016
T3C1.500
T4C3.150
%
G90
G05
M71
T1
X7.Y-22.5
X13.5Y-20.25
X14.5Y-12.25
X18.5Y-12.25
X18.5Y-15.5
X22.Y-18.25
X22.5Y-7.5
X22.75Y-17.5
X23.25Y-14.25
X23.5Y-16.75
X24.Y-9.
X25.Y-21.75
X27.5Y-11.5
X28.Y-21.75
X28.5Y-9.
X29.5Y-14.25
X30.75Y-22.
X31.Y-18.
X31.75Y-20.
X32.5Y-16.
X33.Y-20.75
X33.5Y-9.
X34.Y-12.25
X34.Y-17.75
X34.75Y-14.25
X35.Y-7.25
X35.5Y-12.25
X38.Y-15.5
X38.Y-20.
X38.Y-21.75
X39.25Y-10.
X39.25Y-11.
X40.Y-15.5
X42.5Y-13.
X42.5Y-16.
X43.5Y-19.
X44.75Y-13.
X44.75Y-14.75
X48.Y-24.5
T2
X8.37Y-2.23
X8.37Y-4.77
X10.91Y-2.23
X10.91Y-4.77
X13.45Y-2.23
X13.45Y-4.77
X15.99Y-2.23
X15.99Y-4.77
X18.53Y-2.23
X18.53Y-4.77
X21.07Y-2.23
X21.07Y-4.77
X23.61Y-2.23
X23.61Y-4.77
X26.15Y-2.23
X26.15Y-4.77
X28.69Y-2.23
X28.69Y-4.77
X28.69Y-27.77
X31.23Y-2.23
X31.23Y-4.77
X31.23Y-27.77
X33.77Y-2.23
X33.77Y-4.77
X33.77Y-27.77
X36.31Y-2.23
X36.31Y-4.77
X36.31Y-27.77
X38.85Y-2.23
X38.85Y-4.77
X41.39Y-2.23
X41.39Y-4.77
X41.39Y-27.77
X43.93Y-2.23
X43.93Y-4.77
X43.93Y-27.77
X46.47Y-2.23
X46.47Y-4.77
X46.47Y-27.77
X49.01Y-2.23
X49.01Y-4.77
X51.55Y-2.23
X51.55Y-4.77
X51.55Y-27.77
X54.09Y-2.23
X54.09Y-4.77
X54.09Y-27.77
X56.63Y-2.23
X56.63Y-4.77
X56.63Y-27.77
T3
X11.Y-26.
X14.5Y-26.
X18.5Y-26.
X22.Y-26.
T4
X3.5Y-3.5
X3.5Y-26.5
X61.5Y-3.5
X61.5Y-26.5
T0
M30
