M48
;DRILL file {KiCad 4.0.2-stable} date Sunday, September 24, 2017 'PMt' 11:10:28 PM
;FORMAT={-:-/ absolute / metric / decimal}
FMAT,2
METRIC,TZ
T1C0.305
T2C1.016
T3C1.500
T4C3.150
%
G90
G05
M71
T1
X2.25Y22.25
X2.75Y17.75
X3.5Y17.75
X3.75Y22.25
X4.25Y17.75
X6.5Y17.75
X7.25Y17.75
X8.Y18.5
X8.Y17.75
X8.Y17.
X8.75Y18.5
X8.75Y17.75
X8.75Y17.
X9.5Y18.5
X9.5Y17.75
X9.5Y17.
X10.25Y17.75
X10.25Y9.
X10.75Y7.217
X11.Y17.75
X12.Y10.
X13.75Y7.533
X13.75Y4.25
X14.25Y9.
X17.25Y23.5
X18.5Y20.75
X18.5Y10.25
X19.75Y23.5
X20.Y17.75
X20.5Y7.5
X20.75Y17.75
X22.25Y23.5
X25.Y23.5
X25.Y22.25
X26.5Y7.5
X27.25Y23.5
X27.5Y13.25
X27.5Y12.25
X27.5Y11.25
X29.Y10.75
X35.Y13.
X35.75Y18.25
X35.75Y10.25
X38.25Y9.
X38.75Y7.217
X40.Y10.
X41.75Y7.533
X41.75Y4.25
X42.Y22.5
X42.25Y9.
X42.75Y23.5
X43.5Y17.25
X45.25Y23.5
X45.5Y18.25
X45.75Y21.
X46.75Y21.
X48.25Y17.25
X48.25Y10.25
X50.25Y23.5
X50.25Y18.75
X50.75Y9.
X51.25Y16.
X51.25Y7.217
X52.5Y10.
X52.75Y23.5
X54.25Y7.533
X54.25Y4.25
X54.75Y9.
X56.25Y18.5
X56.25Y17.75
X56.25Y17.
X57.Y17.75
X57.Y17.
X57.35Y18.85
X58.25Y15.508
X60.5Y20.25
X60.5Y19.25
X60.5Y18.5
X60.5Y17.75
X60.5Y15.5
X62.Y19.75
X62.75Y23.
X64.25Y23.
T2
X8.37Y27.77
X8.37Y25.23
X8.37Y2.23
X10.91Y27.77
X10.91Y25.23
X10.91Y2.23
X13.45Y27.77
X13.45Y25.23
X13.45Y2.23
X15.99Y27.77
X15.99Y25.23
X15.99Y2.23
X18.53Y27.77
X18.53Y25.23
X21.07Y27.77
X21.07Y25.23
X23.61Y27.77
X23.61Y25.23
X26.15Y27.77
X26.15Y25.23
X28.69Y27.77
X28.69Y25.23
X31.23Y27.77
X31.23Y25.23
X33.77Y27.77
X33.77Y25.23
X36.31Y27.77
X36.31Y25.23
X36.31Y2.23
X38.85Y27.77
X38.85Y25.23
X38.85Y2.23
X41.39Y27.77
X41.39Y25.23
X41.39Y2.23
X43.93Y27.77
X43.93Y25.23
X43.93Y2.23
X46.47Y27.77
X46.47Y25.23
X49.01Y27.77
X49.01Y25.23
X49.01Y2.23
X51.55Y27.77
X51.55Y25.23
X51.55Y2.23
X54.09Y27.77
X54.09Y25.23
X54.09Y2.23
X56.63Y27.77
X56.63Y25.23
X56.63Y2.23
T3
X20.5Y2.75
X24.Y2.75
X28.25Y2.75
X31.75Y2.75
T4
X3.5Y26.5
X3.5Y3.5
X61.5Y26.5
X61.5Y3.5
T0
M30
