G04 #@! TF.FileFunction,Legend,Top*
%FSLAX46Y46*%
G04 Gerber Fmt 4.6, Leading zero omitted, Abs format (unit mm)*
G04 Created by KiCad (PCBNEW 4.0.2-stable) date Sunday, October 23, 2016 'AMt' 12:13:38 AM*
%MOMM*%
G01*
G04 APERTURE LIST*
%ADD10C,0.100000*%
%ADD11C,0.150000*%
G04 APERTURE END LIST*
D10*
D11*
X7566666Y-21816667D02*
X7166666Y-21816667D01*
X7366666Y-21816667D02*
X7366666Y-21116667D01*
X7300000Y-21216667D01*
X7233333Y-21283333D01*
X7166666Y-21316667D01*
X7833333Y-21183333D02*
X7866667Y-21150000D01*
X7933333Y-21116667D01*
X8100000Y-21116667D01*
X8166667Y-21150000D01*
X8200000Y-21183333D01*
X8233333Y-21250000D01*
X8233333Y-21316667D01*
X8200000Y-21416667D01*
X7800000Y-21816667D01*
X8233333Y-21816667D01*
X8433334Y-21116667D02*
X8666667Y-21816667D01*
X8900000Y-21116667D01*
X26783333Y-27366667D02*
X26816667Y-27266667D01*
X26816667Y-27100000D01*
X26783333Y-27033333D01*
X26750000Y-27000000D01*
X26683333Y-26966667D01*
X26616667Y-26966667D01*
X26550000Y-27000000D01*
X26516667Y-27033333D01*
X26483333Y-27100000D01*
X26450000Y-27233333D01*
X26416667Y-27300000D01*
X26383333Y-27333333D01*
X26316667Y-27366667D01*
X26250000Y-27366667D01*
X26183333Y-27333333D01*
X26150000Y-27300000D01*
X26116667Y-27233333D01*
X26116667Y-27066667D01*
X26150000Y-26966667D01*
X26116667Y-26733333D02*
X26816667Y-26566666D01*
X26316667Y-26433333D01*
X26816667Y-26300000D01*
X26116667Y-26133333D01*
X26116667Y-25966666D02*
X26116667Y-25566666D01*
X26816667Y-25766666D02*
X26116667Y-25766666D01*
X42366667Y-22633333D02*
X42366667Y-22966666D01*
X42700000Y-23000000D01*
X42666667Y-22966666D01*
X42633333Y-22900000D01*
X42633333Y-22733333D01*
X42666667Y-22666666D01*
X42700000Y-22633333D01*
X42766667Y-22600000D01*
X42933333Y-22600000D01*
X43000000Y-22633333D01*
X43033333Y-22666666D01*
X43066667Y-22733333D01*
X43066667Y-22900000D01*
X43033333Y-22966666D01*
X43000000Y-23000000D01*
X42366667Y-22399999D02*
X43066667Y-22166666D01*
X42366667Y-21933333D01*
X6806320Y-17700000D02*
X6806320Y-17899800D01*
X6349280Y-17750000D02*
X6349280Y-17899000D01*
X2203840Y-17700000D02*
X2203840Y-17849000D01*
X6801240Y-21300000D02*
X6801240Y-21151000D01*
X6349280Y-21300000D02*
X6349280Y-21151000D01*
X2198760Y-21300000D02*
X2198760Y-21151000D01*
X6349280Y-17551020D02*
X6349280Y-17749140D01*
X6349280Y-21498980D02*
X6349280Y-21300860D01*
X2203840Y-17503560D02*
X2203840Y-17701680D01*
X6806320Y-17503560D02*
X2203840Y-17503560D01*
X6806320Y-17503560D02*
X6806320Y-17701680D01*
X6801240Y-21498980D02*
X6801240Y-21300860D01*
X6801240Y-21498980D02*
X2198760Y-21498980D01*
X2198760Y-21498980D02*
X2198760Y-21300860D01*
X700160Y-12101220D02*
X700160Y-12898780D01*
X8299840Y-12101220D02*
X8299840Y-12949580D01*
X51550000Y-26220000D02*
X50000000Y-26220000D01*
X50000000Y-26220000D02*
X50000000Y-29320000D01*
X50000000Y-29320000D02*
X51550000Y-29320000D01*
X52820000Y-26500000D02*
X57900000Y-26500000D01*
X57900000Y-26500000D02*
X57900000Y-29040000D01*
X57900000Y-29040000D02*
X52820000Y-29040000D01*
X52820000Y-29040000D02*
X52820000Y-26500000D01*
X57900000Y-960000D02*
X57900000Y-6040000D01*
X6820000Y-4770000D02*
X6820000Y-7310000D01*
X7100000Y-960000D02*
X7100000Y-7310000D01*
X41390000Y-26220000D02*
X39840000Y-26220000D01*
X39840000Y-26220000D02*
X39840000Y-29320000D01*
X39840000Y-29320000D02*
X41390000Y-29320000D01*
X42660000Y-26500000D02*
X47740000Y-26500000D01*
X47740000Y-26500000D02*
X47740000Y-29040000D01*
X47740000Y-29040000D02*
X42660000Y-29040000D01*
X42660000Y-29040000D02*
X42660000Y-26500000D01*
X16750000Y-29000000D02*
X23750000Y-29000000D01*
X16750000Y-22000000D02*
X16750000Y-30000000D01*
X23730000Y-22000000D02*
X16750000Y-22000000D01*
X23750000Y-30000000D02*
X23750000Y-22000000D01*
X16750000Y-30000000D02*
X23750000Y-30000000D01*
X33299160Y-18349760D02*
X33250900Y-18349760D01*
X30500180Y-19050800D02*
X30500180Y-18349760D01*
X30500180Y-18349760D02*
X30749100Y-18349760D01*
X33299160Y-18349760D02*
X33499820Y-18349760D01*
X33499820Y-18349760D02*
X33499820Y-19050800D01*
X28575000Y-14925000D02*
X28430000Y-14925000D01*
X28575000Y-19075000D02*
X28430000Y-19075000D01*
X23425000Y-19075000D02*
X23570000Y-19075000D01*
X23425000Y-14925000D02*
X23570000Y-14925000D01*
X28575000Y-14925000D02*
X28575000Y-19075000D01*
X23425000Y-14925000D02*
X23425000Y-19075000D01*
X28430000Y-14925000D02*
X28430000Y-13525000D01*
X12900000Y-10550000D02*
G75*
G03X12900000Y-10550000I-100000J0D01*
G01*
X13050000Y-10000000D02*
X13050000Y-10500000D01*
X15950000Y-10000000D02*
X13050000Y-10000000D01*
X15950000Y-10500000D02*
X15950000Y-10000000D01*
X13050000Y-10500000D02*
X15950000Y-10500000D01*
X31375000Y-21875000D02*
X31375000Y-22100000D01*
X34625000Y-21875000D02*
X34625000Y-22100000D01*
X34625000Y-25125000D02*
X34625000Y-24900000D01*
X31375000Y-25125000D02*
X31375000Y-24900000D01*
X31375000Y-21875000D02*
X34625000Y-21875000D01*
X31375000Y-25125000D02*
X34625000Y-25125000D01*
X31375000Y-22100000D02*
X30300000Y-22100000D01*
X19350000Y-10750000D02*
X19350000Y-9750000D01*
X17650000Y-9750000D02*
X17650000Y-10750000D01*
X12650000Y-14000000D02*
X12650000Y-15000000D01*
X14350000Y-15000000D02*
X14350000Y-14000000D01*
X27150000Y-23000000D02*
X27150000Y-24000000D01*
X28850000Y-24000000D02*
X28850000Y-23000000D01*
X14350000Y-19000000D02*
X14350000Y-18000000D01*
X12650000Y-18000000D02*
X12650000Y-19000000D01*
X37150000Y-23000000D02*
X37150000Y-24000000D01*
X38850000Y-24000000D02*
X38850000Y-23000000D01*
X43250000Y-21900000D02*
X43250000Y-24600000D01*
X44750000Y-21900000D02*
X44750000Y-24600000D01*
X43850000Y-23400000D02*
X44100000Y-23400000D01*
X44100000Y-23400000D02*
X43950000Y-23250000D01*
X44350000Y-23150000D02*
X43650000Y-23150000D01*
X44000000Y-23500000D02*
X44000000Y-23850000D01*
X44000000Y-23150000D02*
X44350000Y-23500000D01*
X44350000Y-23500000D02*
X43650000Y-23500000D01*
X43650000Y-23500000D02*
X44000000Y-23150000D01*
X7250000Y-25900000D02*
X7250000Y-28600000D01*
X8750000Y-25900000D02*
X8750000Y-28600000D01*
X7850000Y-27400000D02*
X8100000Y-27400000D01*
X8100000Y-27400000D02*
X7950000Y-27250000D01*
X8350000Y-27150000D02*
X7650000Y-27150000D01*
X8000000Y-27500000D02*
X8000000Y-27850000D01*
X8000000Y-27150000D02*
X8350000Y-27500000D01*
X8350000Y-27500000D02*
X7650000Y-27500000D01*
X7650000Y-27500000D02*
X8000000Y-27150000D01*
X9250000Y-29000000D02*
X16250000Y-29000000D01*
X9250000Y-22000000D02*
X9250000Y-30000000D01*
X16230000Y-22000000D02*
X9250000Y-22000000D01*
X16250000Y-30000000D02*
X16250000Y-22000000D01*
X9250000Y-30000000D02*
X16250000Y-30000000D01*
X17375000Y-13900000D02*
X17375000Y-15100000D01*
X15625000Y-15100000D02*
X15625000Y-13900000D01*
X18625000Y-15100000D02*
X18625000Y-13900000D01*
X20375000Y-13900000D02*
X20375000Y-15100000D01*
X41875000Y-22900000D02*
X41875000Y-24100000D01*
X40125000Y-24100000D02*
X40125000Y-22900000D01*
X15625000Y-19100000D02*
X15625000Y-17900000D01*
X17375000Y-17900000D02*
X17375000Y-19100000D01*
X18625000Y-19100000D02*
X18625000Y-17900000D01*
X20375000Y-17900000D02*
X20375000Y-19100000D01*
X34375000Y-14400000D02*
X34375000Y-15600000D01*
X32625000Y-15600000D02*
X32625000Y-14400000D01*
X31375000Y-14400000D02*
X31375000Y-15600000D01*
X29625000Y-15600000D02*
X29625000Y-14400000D01*
X46125000Y-24100000D02*
X46125000Y-22900000D01*
X47875000Y-22900000D02*
X47875000Y-24100000D01*
X8875000Y-22900000D02*
X8875000Y-24100000D01*
X7125000Y-24100000D02*
X7125000Y-22900000D01*
X29960000Y-26500000D02*
X37580000Y-26500000D01*
X29960000Y-29040000D02*
X37580000Y-29040000D01*
X27140000Y-29320000D02*
X28690000Y-29320000D01*
X37580000Y-26500000D02*
X37580000Y-29040000D01*
X29960000Y-29040000D02*
X29960000Y-26500000D01*
X28690000Y-26220000D02*
X27140000Y-26220000D01*
X27140000Y-26220000D02*
X27140000Y-29320000D01*
X39850000Y-15000000D02*
X39850000Y-14000000D01*
X38150000Y-14000000D02*
X38150000Y-15000000D01*
X40500000Y-11525000D02*
X42500000Y-11525000D01*
X42500000Y-9475000D02*
X40500000Y-9475000D01*
X24250000Y-25900000D02*
X24250000Y-28600000D01*
X25750000Y-25900000D02*
X25750000Y-28600000D01*
X24850000Y-27400000D02*
X25100000Y-27400000D01*
X25100000Y-27400000D02*
X24950000Y-27250000D01*
X25350000Y-27150000D02*
X24650000Y-27150000D01*
X25000000Y-27500000D02*
X25000000Y-27850000D01*
X25000000Y-27150000D02*
X25350000Y-27500000D01*
X25350000Y-27500000D02*
X24650000Y-27500000D01*
X24650000Y-27500000D02*
X25000000Y-27150000D01*
X30400000Y-10900000D02*
G75*
G03X30400000Y-10900000I-100000J0D01*
G01*
X30550000Y-10250000D02*
X30550000Y-10750000D01*
X33450000Y-10250000D02*
X30550000Y-10250000D01*
X33450000Y-10750000D02*
X33450000Y-10250000D01*
X30550000Y-10750000D02*
X33450000Y-10750000D01*
X25650240Y-11799160D02*
X25650240Y-11750900D01*
X24949200Y-9000180D02*
X25650240Y-9000180D01*
X25650240Y-9000180D02*
X25650240Y-9249100D01*
X25650240Y-11799160D02*
X25650240Y-11999820D01*
X25650240Y-11999820D02*
X24949200Y-11999820D01*
X46100000Y-20375000D02*
X44900000Y-20375000D01*
X44900000Y-18625000D02*
X46100000Y-18625000D01*
X42875000Y-18400000D02*
X42875000Y-19600000D01*
X41125000Y-19600000D02*
X41125000Y-18400000D01*
X38125000Y-19600000D02*
X38125000Y-18400000D01*
X39875000Y-18400000D02*
X39875000Y-19600000D01*
X34625000Y-11100000D02*
X34625000Y-9900000D01*
X36375000Y-9900000D02*
X36375000Y-11100000D01*
X27625000Y-11100000D02*
X27625000Y-9900000D01*
X29375000Y-9900000D02*
X29375000Y-11100000D01*
X25875000Y-22900000D02*
X25875000Y-24100000D01*
X24125000Y-24100000D02*
X24125000Y-22900000D01*
X41925000Y-16125000D02*
X43075000Y-16125000D01*
X41150000Y-12875000D02*
X43075000Y-12875000D01*
X53049840Y-13898780D02*
X53049840Y-13101220D01*
X45450160Y-13898780D02*
X45450160Y-13050420D01*
X3933334Y-22566667D02*
X3933334Y-21866667D01*
X4100000Y-21866667D01*
X4200000Y-21900000D01*
X4266667Y-21966667D01*
X4300000Y-22033333D01*
X4333334Y-22166667D01*
X4333334Y-22266667D01*
X4300000Y-22400000D01*
X4266667Y-22466667D01*
X4200000Y-22533333D01*
X4100000Y-22566667D01*
X3933334Y-22566667D01*
X5000000Y-22566667D02*
X4600000Y-22566667D01*
X4800000Y-22566667D02*
X4800000Y-21866667D01*
X4733334Y-21966667D01*
X4666667Y-22033333D01*
X4600000Y-22066667D01*
X7488095Y-16652381D02*
X7488095Y-15652381D01*
X8059524Y-16652381D02*
X7630952Y-16080952D01*
X8059524Y-15652381D02*
X7488095Y-16223810D01*
X1261905Y-16466667D02*
X1738096Y-16466667D01*
X1166667Y-16752381D02*
X1500000Y-15752381D01*
X1833334Y-16752381D01*
X9316667Y-12616667D02*
X9316667Y-12950000D01*
X8616667Y-12950000D01*
X9316667Y-12016667D02*
X9316667Y-12416667D01*
X9316667Y-12216667D02*
X8616667Y-12216667D01*
X8716667Y-12283333D01*
X8783333Y-12350000D01*
X8816667Y-12416667D01*
X49983334Y-26066667D02*
X49983334Y-25366667D01*
X50250000Y-25366667D01*
X50316667Y-25400000D01*
X50350000Y-25433333D01*
X50383334Y-25500000D01*
X50383334Y-25600000D01*
X50350000Y-25666667D01*
X50316667Y-25700000D01*
X50250000Y-25733333D01*
X49983334Y-25733333D01*
X51050000Y-26066667D02*
X50650000Y-26066667D01*
X50850000Y-26066667D02*
X50850000Y-25366667D01*
X50783334Y-25466667D01*
X50716667Y-25533333D01*
X50650000Y-25566667D01*
X3586667Y-5286666D02*
X2886667Y-5286666D01*
X2886667Y-5020000D01*
X2920000Y-4953333D01*
X2953333Y-4920000D01*
X3020000Y-4886666D01*
X3120000Y-4886666D01*
X3186667Y-4920000D01*
X3220000Y-4953333D01*
X3253333Y-5020000D01*
X3253333Y-5286666D01*
X2953333Y-4620000D02*
X2920000Y-4586666D01*
X2886667Y-4520000D01*
X2886667Y-4353333D01*
X2920000Y-4286666D01*
X2953333Y-4253333D01*
X3020000Y-4220000D01*
X3086667Y-4220000D01*
X3186667Y-4253333D01*
X3586667Y-4653333D01*
X3586667Y-4220000D01*
X39983334Y-26066667D02*
X39983334Y-25366667D01*
X40250000Y-25366667D01*
X40316667Y-25400000D01*
X40350000Y-25433333D01*
X40383334Y-25500000D01*
X40383334Y-25600000D01*
X40350000Y-25666667D01*
X40316667Y-25700000D01*
X40250000Y-25733333D01*
X39983334Y-25733333D01*
X40616667Y-25366667D02*
X41050000Y-25366667D01*
X40816667Y-25633333D01*
X40916667Y-25633333D01*
X40983334Y-25666667D01*
X41016667Y-25700000D01*
X41050000Y-25766667D01*
X41050000Y-25933333D01*
X41016667Y-26000000D01*
X40983334Y-26033333D01*
X40916667Y-26066667D01*
X40716667Y-26066667D01*
X40650000Y-26033333D01*
X40616667Y-26000000D01*
X16983334Y-21816667D02*
X16983334Y-21116667D01*
X17250000Y-21116667D01*
X17316667Y-21150000D01*
X17350000Y-21183333D01*
X17383334Y-21250000D01*
X17383334Y-21350000D01*
X17350000Y-21416667D01*
X17316667Y-21450000D01*
X17250000Y-21483333D01*
X16983334Y-21483333D01*
X18016667Y-21116667D02*
X17683334Y-21116667D01*
X17650000Y-21450000D01*
X17683334Y-21416667D01*
X17750000Y-21383333D01*
X17916667Y-21383333D01*
X17983334Y-21416667D01*
X18016667Y-21450000D01*
X18050000Y-21516667D01*
X18050000Y-21683333D01*
X18016667Y-21750000D01*
X17983334Y-21783333D01*
X17916667Y-21816667D01*
X17750000Y-21816667D01*
X17683334Y-21783333D01*
X17650000Y-21750000D01*
X33383333Y-17566667D02*
X33350000Y-17633333D01*
X33283333Y-17700000D01*
X33183333Y-17800000D01*
X33150000Y-17866667D01*
X33150000Y-17933333D01*
X33316667Y-17900000D02*
X33283333Y-17966667D01*
X33216667Y-18033333D01*
X33083333Y-18066667D01*
X32850000Y-18066667D01*
X32716667Y-18033333D01*
X32650000Y-17966667D01*
X32616667Y-17900000D01*
X32616667Y-17766667D01*
X32650000Y-17700000D01*
X32716667Y-17633333D01*
X32850000Y-17600000D01*
X33083333Y-17600000D01*
X33216667Y-17633333D01*
X33283333Y-17700000D01*
X33316667Y-17766667D01*
X33316667Y-17900000D01*
X33316667Y-16933334D02*
X33316667Y-17333334D01*
X33316667Y-17133334D02*
X32616667Y-17133334D01*
X32716667Y-17200000D01*
X32783333Y-17266667D01*
X32816667Y-17333334D01*
X29883333Y-17566667D02*
X29850000Y-17633333D01*
X29783333Y-17700000D01*
X29683333Y-17800000D01*
X29650000Y-17866667D01*
X29650000Y-17933333D01*
X29816667Y-17900000D02*
X29783333Y-17966667D01*
X29716667Y-18033333D01*
X29583333Y-18066667D01*
X29350000Y-18066667D01*
X29216667Y-18033333D01*
X29150000Y-17966667D01*
X29116667Y-17900000D01*
X29116667Y-17766667D01*
X29150000Y-17700000D01*
X29216667Y-17633333D01*
X29350000Y-17600000D01*
X29583333Y-17600000D01*
X29716667Y-17633333D01*
X29783333Y-17700000D01*
X29816667Y-17766667D01*
X29816667Y-17900000D01*
X29183333Y-17333334D02*
X29150000Y-17300000D01*
X29116667Y-17233334D01*
X29116667Y-17066667D01*
X29150000Y-17000000D01*
X29183333Y-16966667D01*
X29250000Y-16933334D01*
X29316667Y-16933334D01*
X29416667Y-16966667D01*
X29816667Y-17366667D01*
X29816667Y-16933334D01*
X12116667Y-9783333D02*
X12683333Y-9783333D01*
X12750000Y-9750000D01*
X12783333Y-9716667D01*
X12816667Y-9650000D01*
X12816667Y-9516667D01*
X12783333Y-9450000D01*
X12750000Y-9416667D01*
X12683333Y-9383333D01*
X12116667Y-9383333D01*
X12816667Y-8683334D02*
X12816667Y-9083334D01*
X12816667Y-8883334D02*
X12116667Y-8883334D01*
X12216667Y-8950000D01*
X12283333Y-9016667D01*
X12316667Y-9083334D01*
X29966667Y-21116667D02*
X29966667Y-21683333D01*
X30000000Y-21750000D01*
X30033333Y-21783333D01*
X30100000Y-21816667D01*
X30233333Y-21816667D01*
X30300000Y-21783333D01*
X30333333Y-21750000D01*
X30366667Y-21683333D01*
X30366667Y-21116667D01*
X30666666Y-21183333D02*
X30700000Y-21150000D01*
X30766666Y-21116667D01*
X30933333Y-21116667D01*
X31000000Y-21150000D01*
X31033333Y-21183333D01*
X31066666Y-21250000D01*
X31066666Y-21316667D01*
X31033333Y-21416667D01*
X30633333Y-21816667D01*
X31066666Y-21816667D01*
X17250000Y-10366666D02*
X17283333Y-10400000D01*
X17316667Y-10500000D01*
X17316667Y-10566666D01*
X17283333Y-10666666D01*
X17216667Y-10733333D01*
X17150000Y-10766666D01*
X17016667Y-10800000D01*
X16916667Y-10800000D01*
X16783333Y-10766666D01*
X16716667Y-10733333D01*
X16650000Y-10666666D01*
X16616667Y-10566666D01*
X16616667Y-10500000D01*
X16650000Y-10400000D01*
X16683333Y-10366666D01*
X17316667Y-9700000D02*
X17316667Y-10100000D01*
X17316667Y-9900000D02*
X16616667Y-9900000D01*
X16716667Y-9966666D01*
X16783333Y-10033333D01*
X16816667Y-10100000D01*
X12250000Y-14616666D02*
X12283333Y-14650000D01*
X12316667Y-14750000D01*
X12316667Y-14816666D01*
X12283333Y-14916666D01*
X12216667Y-14983333D01*
X12150000Y-15016666D01*
X12016667Y-15050000D01*
X11916667Y-15050000D01*
X11783333Y-15016666D01*
X11716667Y-14983333D01*
X11650000Y-14916666D01*
X11616667Y-14816666D01*
X11616667Y-14750000D01*
X11650000Y-14650000D01*
X11683333Y-14616666D01*
X11683333Y-14350000D02*
X11650000Y-14316666D01*
X11616667Y-14250000D01*
X11616667Y-14083333D01*
X11650000Y-14016666D01*
X11683333Y-13983333D01*
X11750000Y-13950000D01*
X11816667Y-13950000D01*
X11916667Y-13983333D01*
X12316667Y-14383333D01*
X12316667Y-13950000D01*
X29750000Y-23616666D02*
X29783333Y-23650000D01*
X29816667Y-23750000D01*
X29816667Y-23816666D01*
X29783333Y-23916666D01*
X29716667Y-23983333D01*
X29650000Y-24016666D01*
X29516667Y-24050000D01*
X29416667Y-24050000D01*
X29283333Y-24016666D01*
X29216667Y-23983333D01*
X29150000Y-23916666D01*
X29116667Y-23816666D01*
X29116667Y-23750000D01*
X29150000Y-23650000D01*
X29183333Y-23616666D01*
X29116667Y-23383333D02*
X29116667Y-22950000D01*
X29383333Y-23183333D01*
X29383333Y-23083333D01*
X29416667Y-23016666D01*
X29450000Y-22983333D01*
X29516667Y-22950000D01*
X29683333Y-22950000D01*
X29750000Y-22983333D01*
X29783333Y-23016666D01*
X29816667Y-23083333D01*
X29816667Y-23283333D01*
X29783333Y-23350000D01*
X29750000Y-23383333D01*
X12250000Y-18616666D02*
X12283333Y-18650000D01*
X12316667Y-18750000D01*
X12316667Y-18816666D01*
X12283333Y-18916666D01*
X12216667Y-18983333D01*
X12150000Y-19016666D01*
X12016667Y-19050000D01*
X11916667Y-19050000D01*
X11783333Y-19016666D01*
X11716667Y-18983333D01*
X11650000Y-18916666D01*
X11616667Y-18816666D01*
X11616667Y-18750000D01*
X11650000Y-18650000D01*
X11683333Y-18616666D01*
X11850000Y-18016666D02*
X12316667Y-18016666D01*
X11583333Y-18183333D02*
X12083333Y-18350000D01*
X12083333Y-17916666D01*
X36750000Y-23616666D02*
X36783333Y-23650000D01*
X36816667Y-23750000D01*
X36816667Y-23816666D01*
X36783333Y-23916666D01*
X36716667Y-23983333D01*
X36650000Y-24016666D01*
X36516667Y-24050000D01*
X36416667Y-24050000D01*
X36283333Y-24016666D01*
X36216667Y-23983333D01*
X36150000Y-23916666D01*
X36116667Y-23816666D01*
X36116667Y-23750000D01*
X36150000Y-23650000D01*
X36183333Y-23616666D01*
X36116667Y-22983333D02*
X36116667Y-23316666D01*
X36450000Y-23350000D01*
X36416667Y-23316666D01*
X36383333Y-23250000D01*
X36383333Y-23083333D01*
X36416667Y-23016666D01*
X36450000Y-22983333D01*
X36516667Y-22950000D01*
X36683333Y-22950000D01*
X36750000Y-22983333D01*
X36783333Y-23016666D01*
X36816667Y-23083333D01*
X36816667Y-23250000D01*
X36783333Y-23316666D01*
X36750000Y-23350000D01*
X43066667Y-25016666D02*
X42366667Y-25016666D01*
X42366667Y-24850000D01*
X42400000Y-24750000D01*
X42466667Y-24683333D01*
X42533333Y-24650000D01*
X42666667Y-24616666D01*
X42766667Y-24616666D01*
X42900000Y-24650000D01*
X42966667Y-24683333D01*
X43033333Y-24750000D01*
X43066667Y-24850000D01*
X43066667Y-25016666D01*
X42366667Y-24016666D02*
X42366667Y-24150000D01*
X42400000Y-24216666D01*
X42433333Y-24250000D01*
X42533333Y-24316666D01*
X42666667Y-24350000D01*
X42933333Y-24350000D01*
X43000000Y-24316666D01*
X43033333Y-24283333D01*
X43066667Y-24216666D01*
X43066667Y-24083333D01*
X43033333Y-24016666D01*
X43000000Y-23983333D01*
X42933333Y-23950000D01*
X42766667Y-23950000D01*
X42700000Y-23983333D01*
X42666667Y-24016666D01*
X42633333Y-24083333D01*
X42633333Y-24216666D01*
X42666667Y-24283333D01*
X42700000Y-24316666D01*
X42766667Y-24350000D01*
X7066667Y-29016666D02*
X6366667Y-29016666D01*
X6366667Y-28850000D01*
X6400000Y-28750000D01*
X6466667Y-28683333D01*
X6533333Y-28650000D01*
X6666667Y-28616666D01*
X6766667Y-28616666D01*
X6900000Y-28650000D01*
X6966667Y-28683333D01*
X7033333Y-28750000D01*
X7066667Y-28850000D01*
X7066667Y-29016666D01*
X6366667Y-28383333D02*
X6366667Y-27916666D01*
X7066667Y-28216666D01*
X9483334Y-21816667D02*
X9483334Y-21116667D01*
X9750000Y-21116667D01*
X9816667Y-21150000D01*
X9850000Y-21183333D01*
X9883334Y-21250000D01*
X9883334Y-21350000D01*
X9850000Y-21416667D01*
X9816667Y-21450000D01*
X9750000Y-21483333D01*
X9483334Y-21483333D01*
X10483334Y-21116667D02*
X10350000Y-21116667D01*
X10283334Y-21150000D01*
X10250000Y-21183333D01*
X10183334Y-21283333D01*
X10150000Y-21416667D01*
X10150000Y-21683333D01*
X10183334Y-21750000D01*
X10216667Y-21783333D01*
X10283334Y-21816667D01*
X10416667Y-21816667D01*
X10483334Y-21783333D01*
X10516667Y-21750000D01*
X10550000Y-21683333D01*
X10550000Y-21516667D01*
X10516667Y-21450000D01*
X10483334Y-21416667D01*
X10416667Y-21383333D01*
X10283334Y-21383333D01*
X10216667Y-21416667D01*
X10183334Y-21450000D01*
X10150000Y-21516667D01*
X15316667Y-14616666D02*
X14983333Y-14850000D01*
X15316667Y-15016666D02*
X14616667Y-15016666D01*
X14616667Y-14750000D01*
X14650000Y-14683333D01*
X14683333Y-14650000D01*
X14750000Y-14616666D01*
X14850000Y-14616666D01*
X14916667Y-14650000D01*
X14950000Y-14683333D01*
X14983333Y-14750000D01*
X14983333Y-15016666D01*
X15316667Y-13950000D02*
X15316667Y-14350000D01*
X15316667Y-14150000D02*
X14616667Y-14150000D01*
X14716667Y-14216666D01*
X14783333Y-14283333D01*
X14816667Y-14350000D01*
X18316667Y-14616666D02*
X17983333Y-14850000D01*
X18316667Y-15016666D02*
X17616667Y-15016666D01*
X17616667Y-14750000D01*
X17650000Y-14683333D01*
X17683333Y-14650000D01*
X17750000Y-14616666D01*
X17850000Y-14616666D01*
X17916667Y-14650000D01*
X17950000Y-14683333D01*
X17983333Y-14750000D01*
X17983333Y-15016666D01*
X17683333Y-14350000D02*
X17650000Y-14316666D01*
X17616667Y-14250000D01*
X17616667Y-14083333D01*
X17650000Y-14016666D01*
X17683333Y-13983333D01*
X17750000Y-13950000D01*
X17816667Y-13950000D01*
X17916667Y-13983333D01*
X18316667Y-14383333D01*
X18316667Y-13950000D01*
X39816667Y-23616666D02*
X39483333Y-23850000D01*
X39816667Y-24016666D02*
X39116667Y-24016666D01*
X39116667Y-23750000D01*
X39150000Y-23683333D01*
X39183333Y-23650000D01*
X39250000Y-23616666D01*
X39350000Y-23616666D01*
X39416667Y-23650000D01*
X39450000Y-23683333D01*
X39483333Y-23750000D01*
X39483333Y-24016666D01*
X39116667Y-23383333D02*
X39116667Y-22950000D01*
X39383333Y-23183333D01*
X39383333Y-23083333D01*
X39416667Y-23016666D01*
X39450000Y-22983333D01*
X39516667Y-22950000D01*
X39683333Y-22950000D01*
X39750000Y-22983333D01*
X39783333Y-23016666D01*
X39816667Y-23083333D01*
X39816667Y-23283333D01*
X39783333Y-23350000D01*
X39750000Y-23383333D01*
X15316667Y-18616666D02*
X14983333Y-18850000D01*
X15316667Y-19016666D02*
X14616667Y-19016666D01*
X14616667Y-18750000D01*
X14650000Y-18683333D01*
X14683333Y-18650000D01*
X14750000Y-18616666D01*
X14850000Y-18616666D01*
X14916667Y-18650000D01*
X14950000Y-18683333D01*
X14983333Y-18750000D01*
X14983333Y-19016666D01*
X14850000Y-18016666D02*
X15316667Y-18016666D01*
X14583333Y-18183333D02*
X15083333Y-18350000D01*
X15083333Y-17916666D01*
X18316667Y-18616666D02*
X17983333Y-18850000D01*
X18316667Y-19016666D02*
X17616667Y-19016666D01*
X17616667Y-18750000D01*
X17650000Y-18683333D01*
X17683333Y-18650000D01*
X17750000Y-18616666D01*
X17850000Y-18616666D01*
X17916667Y-18650000D01*
X17950000Y-18683333D01*
X17983333Y-18750000D01*
X17983333Y-19016666D01*
X17616667Y-17983333D02*
X17616667Y-18316666D01*
X17950000Y-18350000D01*
X17916667Y-18316666D01*
X17883333Y-18250000D01*
X17883333Y-18083333D01*
X17916667Y-18016666D01*
X17950000Y-17983333D01*
X18016667Y-17950000D01*
X18183333Y-17950000D01*
X18250000Y-17983333D01*
X18283333Y-18016666D01*
X18316667Y-18083333D01*
X18316667Y-18250000D01*
X18283333Y-18316666D01*
X18250000Y-18350000D01*
X35316667Y-15116666D02*
X34983333Y-15350000D01*
X35316667Y-15516666D02*
X34616667Y-15516666D01*
X34616667Y-15250000D01*
X34650000Y-15183333D01*
X34683333Y-15150000D01*
X34750000Y-15116666D01*
X34850000Y-15116666D01*
X34916667Y-15150000D01*
X34950000Y-15183333D01*
X34983333Y-15250000D01*
X34983333Y-15516666D01*
X34616667Y-14516666D02*
X34616667Y-14650000D01*
X34650000Y-14716666D01*
X34683333Y-14750000D01*
X34783333Y-14816666D01*
X34916667Y-14850000D01*
X35183333Y-14850000D01*
X35250000Y-14816666D01*
X35283333Y-14783333D01*
X35316667Y-14716666D01*
X35316667Y-14583333D01*
X35283333Y-14516666D01*
X35250000Y-14483333D01*
X35183333Y-14450000D01*
X35016667Y-14450000D01*
X34950000Y-14483333D01*
X34916667Y-14516666D01*
X34883333Y-14583333D01*
X34883333Y-14716666D01*
X34916667Y-14783333D01*
X34950000Y-14816666D01*
X35016667Y-14850000D01*
X32316667Y-15116666D02*
X31983333Y-15350000D01*
X32316667Y-15516666D02*
X31616667Y-15516666D01*
X31616667Y-15250000D01*
X31650000Y-15183333D01*
X31683333Y-15150000D01*
X31750000Y-15116666D01*
X31850000Y-15116666D01*
X31916667Y-15150000D01*
X31950000Y-15183333D01*
X31983333Y-15250000D01*
X31983333Y-15516666D01*
X31616667Y-14883333D02*
X31616667Y-14416666D01*
X32316667Y-14716666D01*
X45816667Y-23950000D02*
X45483333Y-24183334D01*
X45816667Y-24350000D02*
X45116667Y-24350000D01*
X45116667Y-24083334D01*
X45150000Y-24016667D01*
X45183333Y-23983334D01*
X45250000Y-23950000D01*
X45350000Y-23950000D01*
X45416667Y-23983334D01*
X45450000Y-24016667D01*
X45483333Y-24083334D01*
X45483333Y-24350000D01*
X45816667Y-23283334D02*
X45816667Y-23683334D01*
X45816667Y-23483334D02*
X45116667Y-23483334D01*
X45216667Y-23550000D01*
X45283333Y-23616667D01*
X45316667Y-23683334D01*
X45116667Y-23050000D02*
X45116667Y-22616667D01*
X45383333Y-22850000D01*
X45383333Y-22750000D01*
X45416667Y-22683333D01*
X45450000Y-22650000D01*
X45516667Y-22616667D01*
X45683333Y-22616667D01*
X45750000Y-22650000D01*
X45783333Y-22683333D01*
X45816667Y-22750000D01*
X45816667Y-22950000D01*
X45783333Y-23016667D01*
X45750000Y-23050000D01*
X6816667Y-23950000D02*
X6483333Y-24183334D01*
X6816667Y-24350000D02*
X6116667Y-24350000D01*
X6116667Y-24083334D01*
X6150000Y-24016667D01*
X6183333Y-23983334D01*
X6250000Y-23950000D01*
X6350000Y-23950000D01*
X6416667Y-23983334D01*
X6450000Y-24016667D01*
X6483333Y-24083334D01*
X6483333Y-24350000D01*
X6183333Y-23683334D02*
X6150000Y-23650000D01*
X6116667Y-23583334D01*
X6116667Y-23416667D01*
X6150000Y-23350000D01*
X6183333Y-23316667D01*
X6250000Y-23283334D01*
X6316667Y-23283334D01*
X6416667Y-23316667D01*
X6816667Y-23716667D01*
X6816667Y-23283334D01*
X6350000Y-22683333D02*
X6816667Y-22683333D01*
X6083333Y-22850000D02*
X6583333Y-23016667D01*
X6583333Y-22583333D01*
X27233334Y-26066667D02*
X27233334Y-25366667D01*
X27500000Y-25366667D01*
X27566667Y-25400000D01*
X27600000Y-25433333D01*
X27633334Y-25500000D01*
X27633334Y-25600000D01*
X27600000Y-25666667D01*
X27566667Y-25700000D01*
X27500000Y-25733333D01*
X27233334Y-25733333D01*
X28233334Y-25600000D02*
X28233334Y-26066667D01*
X28066667Y-25333333D02*
X27900000Y-25833333D01*
X28333334Y-25833333D01*
X40750000Y-14616666D02*
X40783333Y-14650000D01*
X40816667Y-14750000D01*
X40816667Y-14816666D01*
X40783333Y-14916666D01*
X40716667Y-14983333D01*
X40650000Y-15016666D01*
X40516667Y-15050000D01*
X40416667Y-15050000D01*
X40283333Y-15016666D01*
X40216667Y-14983333D01*
X40150000Y-14916666D01*
X40116667Y-14816666D01*
X40116667Y-14750000D01*
X40150000Y-14650000D01*
X40183333Y-14616666D01*
X40116667Y-14016666D02*
X40116667Y-14150000D01*
X40150000Y-14216666D01*
X40183333Y-14250000D01*
X40283333Y-14316666D01*
X40416667Y-14350000D01*
X40683333Y-14350000D01*
X40750000Y-14316666D01*
X40783333Y-14283333D01*
X40816667Y-14216666D01*
X40816667Y-14083333D01*
X40783333Y-14016666D01*
X40750000Y-13983333D01*
X40683333Y-13950000D01*
X40516667Y-13950000D01*
X40450000Y-13983333D01*
X40416667Y-14016666D01*
X40383333Y-14083333D01*
X40383333Y-14216666D01*
X40416667Y-14283333D01*
X40450000Y-14316666D01*
X40516667Y-14350000D01*
X44250000Y-10616666D02*
X44283333Y-10650000D01*
X44316667Y-10750000D01*
X44316667Y-10816666D01*
X44283333Y-10916666D01*
X44216667Y-10983333D01*
X44150000Y-11016666D01*
X44016667Y-11050000D01*
X43916667Y-11050000D01*
X43783333Y-11016666D01*
X43716667Y-10983333D01*
X43650000Y-10916666D01*
X43616667Y-10816666D01*
X43616667Y-10750000D01*
X43650000Y-10650000D01*
X43683333Y-10616666D01*
X43916667Y-10216666D02*
X43883333Y-10283333D01*
X43850000Y-10316666D01*
X43783333Y-10350000D01*
X43750000Y-10350000D01*
X43683333Y-10316666D01*
X43650000Y-10283333D01*
X43616667Y-10216666D01*
X43616667Y-10083333D01*
X43650000Y-10016666D01*
X43683333Y-9983333D01*
X43750000Y-9950000D01*
X43783333Y-9950000D01*
X43850000Y-9983333D01*
X43883333Y-10016666D01*
X43916667Y-10083333D01*
X43916667Y-10216666D01*
X43950000Y-10283333D01*
X43983333Y-10316666D01*
X44050000Y-10350000D01*
X44183333Y-10350000D01*
X44250000Y-10316666D01*
X44283333Y-10283333D01*
X44316667Y-10216666D01*
X44316667Y-10083333D01*
X44283333Y-10016666D01*
X44250000Y-9983333D01*
X44183333Y-9950000D01*
X44050000Y-9950000D01*
X43983333Y-9983333D01*
X43950000Y-10016666D01*
X43916667Y-10083333D01*
X26816667Y-29266666D02*
X26116667Y-29266666D01*
X26116667Y-29100000D01*
X26150000Y-29000000D01*
X26216667Y-28933333D01*
X26283333Y-28900000D01*
X26416667Y-28866666D01*
X26516667Y-28866666D01*
X26650000Y-28900000D01*
X26716667Y-28933333D01*
X26783333Y-29000000D01*
X26816667Y-29100000D01*
X26816667Y-29266666D01*
X26183333Y-28600000D02*
X26150000Y-28566666D01*
X26116667Y-28500000D01*
X26116667Y-28333333D01*
X26150000Y-28266666D01*
X26183333Y-28233333D01*
X26250000Y-28200000D01*
X26316667Y-28200000D01*
X26416667Y-28233333D01*
X26816667Y-28633333D01*
X26816667Y-28200000D01*
X34383333Y-10566667D02*
X34350000Y-10633333D01*
X34283333Y-10700000D01*
X34183333Y-10800000D01*
X34150000Y-10866667D01*
X34150000Y-10933333D01*
X34316667Y-10900000D02*
X34283333Y-10966667D01*
X34216667Y-11033333D01*
X34083333Y-11066667D01*
X33850000Y-11066667D01*
X33716667Y-11033333D01*
X33650000Y-10966667D01*
X33616667Y-10900000D01*
X33616667Y-10766667D01*
X33650000Y-10700000D01*
X33716667Y-10633333D01*
X33850000Y-10600000D01*
X34083333Y-10600000D01*
X34216667Y-10633333D01*
X34283333Y-10700000D01*
X34316667Y-10766667D01*
X34316667Y-10900000D01*
X33616667Y-10366667D02*
X33616667Y-9933334D01*
X33883333Y-10166667D01*
X33883333Y-10066667D01*
X33916667Y-10000000D01*
X33950000Y-9966667D01*
X34016667Y-9933334D01*
X34183333Y-9933334D01*
X34250000Y-9966667D01*
X34283333Y-10000000D01*
X34316667Y-10066667D01*
X34316667Y-10266667D01*
X34283333Y-10333334D01*
X34250000Y-10366667D01*
X26433333Y-11883333D02*
X26366667Y-11850000D01*
X26300000Y-11783333D01*
X26200000Y-11683333D01*
X26133333Y-11650000D01*
X26066667Y-11650000D01*
X26100000Y-11816667D02*
X26033333Y-11783333D01*
X25966667Y-11716667D01*
X25933333Y-11583333D01*
X25933333Y-11350000D01*
X25966667Y-11216667D01*
X26033333Y-11150000D01*
X26100000Y-11116667D01*
X26233333Y-11116667D01*
X26300000Y-11150000D01*
X26366667Y-11216667D01*
X26400000Y-11350000D01*
X26400000Y-11583333D01*
X26366667Y-11716667D01*
X26300000Y-11783333D01*
X26233333Y-11816667D01*
X26100000Y-11816667D01*
X27000000Y-11350000D02*
X27000000Y-11816667D01*
X26833333Y-11083333D02*
X26666666Y-11583333D01*
X27100000Y-11583333D01*
X47816667Y-19616666D02*
X47483333Y-19850000D01*
X47816667Y-20016666D02*
X47116667Y-20016666D01*
X47116667Y-19750000D01*
X47150000Y-19683333D01*
X47183333Y-19650000D01*
X47250000Y-19616666D01*
X47350000Y-19616666D01*
X47416667Y-19650000D01*
X47450000Y-19683333D01*
X47483333Y-19750000D01*
X47483333Y-20016666D01*
X47416667Y-19216666D02*
X47383333Y-19283333D01*
X47350000Y-19316666D01*
X47283333Y-19350000D01*
X47250000Y-19350000D01*
X47183333Y-19316666D01*
X47150000Y-19283333D01*
X47116667Y-19216666D01*
X47116667Y-19083333D01*
X47150000Y-19016666D01*
X47183333Y-18983333D01*
X47250000Y-18950000D01*
X47283333Y-18950000D01*
X47350000Y-18983333D01*
X47383333Y-19016666D01*
X47416667Y-19083333D01*
X47416667Y-19216666D01*
X47450000Y-19283333D01*
X47483333Y-19316666D01*
X47550000Y-19350000D01*
X47683333Y-19350000D01*
X47750000Y-19316666D01*
X47783333Y-19283333D01*
X47816667Y-19216666D01*
X47816667Y-19083333D01*
X47783333Y-19016666D01*
X47750000Y-18983333D01*
X47683333Y-18950000D01*
X47550000Y-18950000D01*
X47483333Y-18983333D01*
X47450000Y-19016666D01*
X47416667Y-19083333D01*
X40816667Y-19116666D02*
X40483333Y-19350000D01*
X40816667Y-19516666D02*
X40116667Y-19516666D01*
X40116667Y-19250000D01*
X40150000Y-19183333D01*
X40183333Y-19150000D01*
X40250000Y-19116666D01*
X40350000Y-19116666D01*
X40416667Y-19150000D01*
X40450000Y-19183333D01*
X40483333Y-19250000D01*
X40483333Y-19516666D01*
X40816667Y-18783333D02*
X40816667Y-18650000D01*
X40783333Y-18583333D01*
X40750000Y-18550000D01*
X40650000Y-18483333D01*
X40516667Y-18450000D01*
X40250000Y-18450000D01*
X40183333Y-18483333D01*
X40150000Y-18516666D01*
X40116667Y-18583333D01*
X40116667Y-18716666D01*
X40150000Y-18783333D01*
X40183333Y-18816666D01*
X40250000Y-18850000D01*
X40416667Y-18850000D01*
X40483333Y-18816666D01*
X40516667Y-18783333D01*
X40550000Y-18716666D01*
X40550000Y-18583333D01*
X40516667Y-18516666D01*
X40483333Y-18483333D01*
X40416667Y-18450000D01*
X37816667Y-19450000D02*
X37483333Y-19683334D01*
X37816667Y-19850000D02*
X37116667Y-19850000D01*
X37116667Y-19583334D01*
X37150000Y-19516667D01*
X37183333Y-19483334D01*
X37250000Y-19450000D01*
X37350000Y-19450000D01*
X37416667Y-19483334D01*
X37450000Y-19516667D01*
X37483333Y-19583334D01*
X37483333Y-19850000D01*
X37816667Y-18783334D02*
X37816667Y-19183334D01*
X37816667Y-18983334D02*
X37116667Y-18983334D01*
X37216667Y-19050000D01*
X37283333Y-19116667D01*
X37316667Y-19183334D01*
X37116667Y-18350000D02*
X37116667Y-18283333D01*
X37150000Y-18216667D01*
X37183333Y-18183333D01*
X37250000Y-18150000D01*
X37383333Y-18116667D01*
X37550000Y-18116667D01*
X37683333Y-18150000D01*
X37750000Y-18183333D01*
X37783333Y-18216667D01*
X37816667Y-18283333D01*
X37816667Y-18350000D01*
X37783333Y-18416667D01*
X37750000Y-18450000D01*
X37683333Y-18483333D01*
X37550000Y-18516667D01*
X37383333Y-18516667D01*
X37250000Y-18483333D01*
X37183333Y-18450000D01*
X37150000Y-18416667D01*
X37116667Y-18350000D01*
X37316667Y-10950000D02*
X36983333Y-11183334D01*
X37316667Y-11350000D02*
X36616667Y-11350000D01*
X36616667Y-11083334D01*
X36650000Y-11016667D01*
X36683333Y-10983334D01*
X36750000Y-10950000D01*
X36850000Y-10950000D01*
X36916667Y-10983334D01*
X36950000Y-11016667D01*
X36983333Y-11083334D01*
X36983333Y-11350000D01*
X37316667Y-10283334D02*
X37316667Y-10683334D01*
X37316667Y-10483334D02*
X36616667Y-10483334D01*
X36716667Y-10550000D01*
X36783333Y-10616667D01*
X36816667Y-10683334D01*
X37316667Y-9616667D02*
X37316667Y-10016667D01*
X37316667Y-9816667D02*
X36616667Y-9816667D01*
X36716667Y-9883333D01*
X36783333Y-9950000D01*
X36816667Y-10016667D01*
X30391668Y-10950000D02*
X30058334Y-11183334D01*
X30391668Y-11350000D02*
X29691668Y-11350000D01*
X29691668Y-11083334D01*
X29725001Y-11016667D01*
X29758334Y-10983334D01*
X29825001Y-10950000D01*
X29925001Y-10950000D01*
X29991668Y-10983334D01*
X30025001Y-11016667D01*
X30058334Y-11083334D01*
X30058334Y-11350000D01*
X30391668Y-10283334D02*
X30391668Y-10683334D01*
X30391668Y-10483334D02*
X29691668Y-10483334D01*
X29791668Y-10550000D01*
X29858334Y-10616667D01*
X29891668Y-10683334D01*
X29758334Y-10016667D02*
X29725001Y-9983333D01*
X29691668Y-9916667D01*
X29691668Y-9750000D01*
X29725001Y-9683333D01*
X29758334Y-9650000D01*
X29825001Y-9616667D01*
X29891668Y-9616667D01*
X29991668Y-9650000D01*
X30391668Y-10050000D01*
X30391668Y-9616667D01*
X26816667Y-23950000D02*
X26483333Y-24183334D01*
X26816667Y-24350000D02*
X26116667Y-24350000D01*
X26116667Y-24083334D01*
X26150000Y-24016667D01*
X26183333Y-23983334D01*
X26250000Y-23950000D01*
X26350000Y-23950000D01*
X26416667Y-23983334D01*
X26450000Y-24016667D01*
X26483333Y-24083334D01*
X26483333Y-24350000D01*
X26816667Y-23283334D02*
X26816667Y-23683334D01*
X26816667Y-23483334D02*
X26116667Y-23483334D01*
X26216667Y-23550000D01*
X26283333Y-23616667D01*
X26316667Y-23683334D01*
X26350000Y-22683333D02*
X26816667Y-22683333D01*
X26083333Y-22850000D02*
X26583333Y-23016667D01*
X26583333Y-22583333D01*
X41966667Y-11866667D02*
X41966667Y-12433333D01*
X42000000Y-12500000D01*
X42033333Y-12533333D01*
X42100000Y-12566667D01*
X42233333Y-12566667D01*
X42300000Y-12533333D01*
X42333333Y-12500000D01*
X42366667Y-12433333D01*
X42366667Y-11866667D01*
X42633333Y-11866667D02*
X43066666Y-11866667D01*
X42833333Y-12133333D01*
X42933333Y-12133333D01*
X43000000Y-12166667D01*
X43033333Y-12200000D01*
X43066666Y-12266667D01*
X43066666Y-12433333D01*
X43033333Y-12500000D01*
X43000000Y-12533333D01*
X42933333Y-12566667D01*
X42733333Y-12566667D01*
X42666666Y-12533333D01*
X42633333Y-12500000D01*
X54066667Y-13616667D02*
X54066667Y-13950000D01*
X53366667Y-13950000D01*
X53433333Y-13416667D02*
X53400000Y-13383333D01*
X53366667Y-13316667D01*
X53366667Y-13150000D01*
X53400000Y-13083333D01*
X53433333Y-13050000D01*
X53500000Y-13016667D01*
X53566667Y-13016667D01*
X53666667Y-13050000D01*
X54066667Y-13450000D01*
X54066667Y-13016667D01*
M02*
