G04 #@! TF.FileFunction,Paste,Top*
%FSLAX46Y46*%
G04 Gerber Fmt 4.6, Leading zero omitted, Abs format (unit mm)*
G04 Created by KiCad (PCBNEW 4.0.2-stable) date Sunday, September 24, 2017 'PMt' 11:09:44 PM*
%MOMM*%
G01*
G04 APERTURE LIST*
%ADD10C,0.100000*%
%ADD11R,2.499360X2.301240*%
%ADD12R,2.999740X7.500620*%
%ADD13R,0.600000X1.550000*%
%ADD14R,1.060000X0.650000*%
%ADD15R,0.650000X1.060000*%
%ADD16R,0.800100X0.800100*%
%ADD17R,0.250000X0.700000*%
%ADD18R,0.720000X0.384000*%
%ADD19R,0.750000X0.800000*%
%ADD20R,0.797560X0.797560*%
%ADD21R,0.900000X0.500000*%
%ADD22R,0.500000X0.900000*%
%ADD23R,1.000000X1.250000*%
%ADD24R,1.250000X1.000000*%
%ADD25R,1.300000X0.700000*%
%ADD26R,0.700000X1.300000*%
%ADD27C,1.524000*%
G04 APERTURE END LIST*
D10*
D11*
X14898840Y14250000D03*
X10601160Y14250000D03*
D12*
X1750640Y11250000D03*
X6749360Y11250000D03*
D13*
X33905000Y13950000D03*
X32635000Y13950000D03*
X31365000Y13950000D03*
X30095000Y13950000D03*
X30095000Y8550000D03*
X31365000Y8550000D03*
X32635000Y8550000D03*
X33905000Y8550000D03*
D14*
X5350000Y16800000D03*
X5350000Y17750000D03*
X5350000Y18700000D03*
X3150000Y18700000D03*
X3150000Y16800000D03*
D15*
X48450000Y18350000D03*
X47500000Y18350000D03*
X46550000Y18350000D03*
X46550000Y16150000D03*
X48450000Y16150000D03*
X47500000Y16150000D03*
D16*
X46499240Y21950000D03*
X46499240Y20050000D03*
X48498220Y21000000D03*
D17*
X59750000Y18675000D03*
X59250000Y18675000D03*
X58750000Y18675000D03*
X58250000Y18675000D03*
X57750000Y18675000D03*
X57750000Y16825000D03*
X58250000Y16825000D03*
X58750000Y16825000D03*
X59250000Y16825000D03*
X59750000Y16825000D03*
D18*
X58150000Y17750000D03*
X59350000Y17750000D03*
D12*
X58250640Y11250000D03*
X63249360Y11250000D03*
D19*
X3000000Y20750000D03*
X3000000Y22250000D03*
X15750000Y18000000D03*
X15750000Y19500000D03*
D20*
X28250000Y8250700D03*
X28250000Y9749300D03*
X9500000Y6499300D03*
X9500000Y5000700D03*
X15000000Y6499300D03*
X15000000Y5000700D03*
X37500000Y6499300D03*
X37500000Y5000700D03*
X22250000Y8250700D03*
X22250000Y9749300D03*
D14*
X26400000Y13200000D03*
X26400000Y12250000D03*
X26400000Y11300000D03*
X28600000Y11300000D03*
X28600000Y13200000D03*
X28600000Y12250000D03*
X13350000Y4800000D03*
X13350000Y5750000D03*
X13350000Y6700000D03*
X11150000Y6700000D03*
X11150000Y4800000D03*
X11150000Y5750000D03*
X11150000Y9950000D03*
X11150000Y9000000D03*
X11150000Y8050000D03*
X13350000Y8050000D03*
X13350000Y9950000D03*
X13350000Y9000000D03*
D21*
X14000000Y18000000D03*
X14000000Y19500000D03*
X12250000Y19500000D03*
X12250000Y18000000D03*
X7750000Y5000000D03*
X7750000Y6500000D03*
X5500000Y20750000D03*
X5500000Y22250000D03*
X50000000Y9750000D03*
X50000000Y8250000D03*
D22*
X27000000Y22000000D03*
X25500000Y22000000D03*
X26750000Y14750000D03*
X28250000Y14750000D03*
D21*
X61750000Y16000000D03*
X61750000Y17500000D03*
X61750000Y18750000D03*
X61750000Y20250000D03*
X50250000Y16500000D03*
X50250000Y18000000D03*
D22*
X45000000Y16250000D03*
X43500000Y16250000D03*
D21*
X37500000Y9750000D03*
X37500000Y8250000D03*
X26500000Y9750000D03*
X26500000Y8250000D03*
X16750000Y5000000D03*
X16750000Y6500000D03*
X55500000Y8250000D03*
X55500000Y9750000D03*
X43000000Y8250000D03*
X43000000Y9750000D03*
X9500000Y9750000D03*
X9500000Y8250000D03*
X15000000Y8250000D03*
X15000000Y9750000D03*
X36000000Y14500000D03*
X36000000Y13000000D03*
X48250000Y5000000D03*
X48250000Y6500000D03*
X20500000Y9750000D03*
X20500000Y8250000D03*
D20*
X50000000Y6499300D03*
X50000000Y5000700D03*
X55500000Y6499300D03*
X55500000Y5000700D03*
X43000000Y6499300D03*
X43000000Y5000700D03*
D21*
X46500000Y8250000D03*
X46500000Y9750000D03*
X48250000Y8250000D03*
X48250000Y9750000D03*
X44750000Y8250000D03*
X44750000Y9750000D03*
X35750000Y8250000D03*
X35750000Y9750000D03*
X16750000Y8250000D03*
X16750000Y9750000D03*
X18500000Y8250000D03*
X18500000Y9750000D03*
D14*
X39150000Y9950000D03*
X39150000Y9000000D03*
X39150000Y8050000D03*
X41350000Y8050000D03*
X41350000Y9950000D03*
X41350000Y9000000D03*
X51650000Y9950000D03*
X51650000Y9000000D03*
X51650000Y8050000D03*
X53850000Y8050000D03*
X53850000Y9950000D03*
X53850000Y9000000D03*
X41350000Y4800000D03*
X41350000Y5750000D03*
X41350000Y6700000D03*
X39150000Y6700000D03*
X39150000Y4800000D03*
X39150000Y5750000D03*
X53850000Y4800000D03*
X53850000Y5750000D03*
X53850000Y6700000D03*
X51650000Y6700000D03*
X51650000Y4800000D03*
X51650000Y5750000D03*
D21*
X35750000Y5000000D03*
X35750000Y6500000D03*
X57250000Y5000000D03*
X57250000Y6500000D03*
X44750000Y5000000D03*
X44750000Y6500000D03*
D23*
X18500000Y16500000D03*
X20500000Y16500000D03*
X18500000Y19000000D03*
X20500000Y19000000D03*
D24*
X52250000Y18250000D03*
X52250000Y16250000D03*
X63500000Y21000000D03*
X63500000Y23000000D03*
D25*
X54500000Y16300000D03*
X54500000Y18200000D03*
D26*
X18550000Y14000000D03*
X20450000Y14000000D03*
D27*
X55750000Y13250000D03*
M02*
