G04 #@! TF.FileFunction,Soldermask,Bot*
%FSLAX46Y46*%
G04 Gerber Fmt 4.6, Leading zero omitted, Abs format (unit mm)*
G04 Created by KiCad (PCBNEW 4.0.2-stable) date Sunday, October 23, 2016 'AMt' 12:13:38 AM*
%MOMM*%
G01*
G04 APERTURE LIST*
%ADD10C,0.100000*%
G04 APERTURE END LIST*
D10*
G36*
X3820457Y-23451030D02*
X4406573Y-23571342D01*
X4958152Y-23803205D01*
X5454195Y-24137790D01*
X5875796Y-24562345D01*
X6206909Y-25060710D01*
X6434916Y-25613896D01*
X6551080Y-26200570D01*
X6551080Y-26200581D01*
X6551130Y-26200834D01*
X6541588Y-26884242D01*
X6541530Y-26884497D01*
X6541530Y-26884507D01*
X6409031Y-27467703D01*
X6165666Y-28014310D01*
X5820769Y-28503234D01*
X5387474Y-28915855D01*
X4882282Y-29236459D01*
X4324445Y-29452829D01*
X3735205Y-29556728D01*
X3136999Y-29544198D01*
X2552626Y-29415714D01*
X2004336Y-29176173D01*
X1513019Y-28834699D01*
X1097382Y-28404294D01*
X773257Y-27901352D01*
X552999Y-27345043D01*
X444988Y-26756533D01*
X453341Y-26158265D01*
X577742Y-25573005D01*
X813452Y-25023055D01*
X1151489Y-24529364D01*
X1578981Y-24110732D01*
X2079640Y-23783110D01*
X2634409Y-23558969D01*
X3222142Y-23446853D01*
X3820457Y-23451030D01*
X3820457Y-23451030D01*
G37*
G36*
X61820457Y-23451030D02*
X62406573Y-23571342D01*
X62958152Y-23803205D01*
X63454195Y-24137790D01*
X63875796Y-24562345D01*
X64206909Y-25060710D01*
X64434916Y-25613896D01*
X64551080Y-26200570D01*
X64551080Y-26200581D01*
X64551130Y-26200834D01*
X64541588Y-26884242D01*
X64541530Y-26884497D01*
X64541530Y-26884507D01*
X64409031Y-27467703D01*
X64165666Y-28014310D01*
X63820769Y-28503234D01*
X63387474Y-28915855D01*
X62882282Y-29236459D01*
X62324445Y-29452829D01*
X61735205Y-29556728D01*
X61136999Y-29544198D01*
X60552626Y-29415714D01*
X60004336Y-29176173D01*
X59513019Y-28834699D01*
X59097382Y-28404294D01*
X58773257Y-27901352D01*
X58552999Y-27345043D01*
X58444988Y-26756533D01*
X58453341Y-26158265D01*
X58577742Y-25573005D01*
X58813452Y-25023055D01*
X59151489Y-24529364D01*
X59578981Y-24110732D01*
X60079640Y-23783110D01*
X60634409Y-23558969D01*
X61222142Y-23446853D01*
X61820457Y-23451030D01*
X61820457Y-23451030D01*
G37*
G36*
X36493868Y-26716512D02*
X36493873Y-26716514D01*
X36493906Y-26716517D01*
X36664422Y-26769301D01*
X36821438Y-26854199D01*
X36958973Y-26967979D01*
X37071790Y-27106305D01*
X37155590Y-27263910D01*
X37207182Y-27434790D01*
X37224600Y-27612437D01*
X37224600Y-27927563D01*
X37224511Y-27940333D01*
X37204614Y-28117719D01*
X37150641Y-28287862D01*
X37064649Y-28444282D01*
X36949912Y-28581020D01*
X36810801Y-28692868D01*
X36652615Y-28775565D01*
X36481379Y-28825963D01*
X36481348Y-28825966D01*
X36481344Y-28825967D01*
X36303613Y-28842142D01*
X36126132Y-28823488D01*
X36126127Y-28823486D01*
X36126094Y-28823483D01*
X35955578Y-28770699D01*
X35798562Y-28685801D01*
X35661027Y-28572021D01*
X35548210Y-28433695D01*
X35464410Y-28276090D01*
X35412818Y-28105210D01*
X35395400Y-27927563D01*
X35395400Y-27612437D01*
X35395489Y-27599667D01*
X35415386Y-27422281D01*
X35469359Y-27252138D01*
X35555351Y-27095718D01*
X35670088Y-26958980D01*
X35809199Y-26847132D01*
X35967385Y-26764435D01*
X36138621Y-26714037D01*
X36138652Y-26714034D01*
X36138656Y-26714033D01*
X36316387Y-26697858D01*
X36493868Y-26716512D01*
X36493868Y-26716512D01*
G37*
G36*
X44113868Y-26716512D02*
X44113873Y-26716514D01*
X44113906Y-26716517D01*
X44284422Y-26769301D01*
X44441438Y-26854199D01*
X44578973Y-26967979D01*
X44691790Y-27106305D01*
X44775590Y-27263910D01*
X44827182Y-27434790D01*
X44844600Y-27612437D01*
X44844600Y-27927563D01*
X44844511Y-27940333D01*
X44824614Y-28117719D01*
X44770641Y-28287862D01*
X44684649Y-28444282D01*
X44569912Y-28581020D01*
X44430801Y-28692868D01*
X44272615Y-28775565D01*
X44101379Y-28825963D01*
X44101348Y-28825966D01*
X44101344Y-28825967D01*
X43923613Y-28842142D01*
X43746132Y-28823488D01*
X43746127Y-28823486D01*
X43746094Y-28823483D01*
X43575578Y-28770699D01*
X43418562Y-28685801D01*
X43281027Y-28572021D01*
X43168210Y-28433695D01*
X43084410Y-28276090D01*
X43032818Y-28105210D01*
X43015400Y-27927563D01*
X43015400Y-27612437D01*
X43015489Y-27599667D01*
X43035386Y-27422281D01*
X43089359Y-27252138D01*
X43175351Y-27095718D01*
X43290088Y-26958980D01*
X43429199Y-26847132D01*
X43587385Y-26764435D01*
X43758621Y-26714037D01*
X43758652Y-26714034D01*
X43758656Y-26714033D01*
X43936387Y-26697858D01*
X44113868Y-26716512D01*
X44113868Y-26716512D01*
G37*
G36*
X46653868Y-26716512D02*
X46653873Y-26716514D01*
X46653906Y-26716517D01*
X46824422Y-26769301D01*
X46981438Y-26854199D01*
X47118973Y-26967979D01*
X47231790Y-27106305D01*
X47315590Y-27263910D01*
X47367182Y-27434790D01*
X47384600Y-27612437D01*
X47384600Y-27927563D01*
X47384511Y-27940333D01*
X47364614Y-28117719D01*
X47310641Y-28287862D01*
X47224649Y-28444282D01*
X47109912Y-28581020D01*
X46970801Y-28692868D01*
X46812615Y-28775565D01*
X46641379Y-28825963D01*
X46641348Y-28825966D01*
X46641344Y-28825967D01*
X46463613Y-28842142D01*
X46286132Y-28823488D01*
X46286127Y-28823486D01*
X46286094Y-28823483D01*
X46115578Y-28770699D01*
X45958562Y-28685801D01*
X45821027Y-28572021D01*
X45708210Y-28433695D01*
X45624410Y-28276090D01*
X45572818Y-28105210D01*
X45555400Y-27927563D01*
X45555400Y-27612437D01*
X45555489Y-27599667D01*
X45575386Y-27422281D01*
X45629359Y-27252138D01*
X45715351Y-27095718D01*
X45830088Y-26958980D01*
X45969199Y-26847132D01*
X46127385Y-26764435D01*
X46298621Y-26714037D01*
X46298652Y-26714034D01*
X46298656Y-26714033D01*
X46476387Y-26697858D01*
X46653868Y-26716512D01*
X46653868Y-26716512D01*
G37*
G36*
X54273868Y-26716512D02*
X54273873Y-26716514D01*
X54273906Y-26716517D01*
X54444422Y-26769301D01*
X54601438Y-26854199D01*
X54738973Y-26967979D01*
X54851790Y-27106305D01*
X54935590Y-27263910D01*
X54987182Y-27434790D01*
X55004600Y-27612437D01*
X55004600Y-27927563D01*
X55004511Y-27940333D01*
X54984614Y-28117719D01*
X54930641Y-28287862D01*
X54844649Y-28444282D01*
X54729912Y-28581020D01*
X54590801Y-28692868D01*
X54432615Y-28775565D01*
X54261379Y-28825963D01*
X54261348Y-28825966D01*
X54261344Y-28825967D01*
X54083613Y-28842142D01*
X53906132Y-28823488D01*
X53906127Y-28823486D01*
X53906094Y-28823483D01*
X53735578Y-28770699D01*
X53578562Y-28685801D01*
X53441027Y-28572021D01*
X53328210Y-28433695D01*
X53244410Y-28276090D01*
X53192818Y-28105210D01*
X53175400Y-27927563D01*
X53175400Y-27612437D01*
X53175489Y-27599667D01*
X53195386Y-27422281D01*
X53249359Y-27252138D01*
X53335351Y-27095718D01*
X53450088Y-26958980D01*
X53589199Y-26847132D01*
X53747385Y-26764435D01*
X53918621Y-26714037D01*
X53918652Y-26714034D01*
X53918656Y-26714033D01*
X54096387Y-26697858D01*
X54273868Y-26716512D01*
X54273868Y-26716512D01*
G37*
G36*
X56813868Y-26716512D02*
X56813873Y-26716514D01*
X56813906Y-26716517D01*
X56984422Y-26769301D01*
X57141438Y-26854199D01*
X57278973Y-26967979D01*
X57391790Y-27106305D01*
X57475590Y-27263910D01*
X57527182Y-27434790D01*
X57544600Y-27612437D01*
X57544600Y-27927563D01*
X57544511Y-27940333D01*
X57524614Y-28117719D01*
X57470641Y-28287862D01*
X57384649Y-28444282D01*
X57269912Y-28581020D01*
X57130801Y-28692868D01*
X56972615Y-28775565D01*
X56801379Y-28825963D01*
X56801348Y-28825966D01*
X56801344Y-28825967D01*
X56623613Y-28842142D01*
X56446132Y-28823488D01*
X56446127Y-28823486D01*
X56446094Y-28823483D01*
X56275578Y-28770699D01*
X56118562Y-28685801D01*
X55981027Y-28572021D01*
X55868210Y-28433695D01*
X55784410Y-28276090D01*
X55732818Y-28105210D01*
X55715400Y-27927563D01*
X55715400Y-27612437D01*
X55715489Y-27599667D01*
X55735386Y-27422281D01*
X55789359Y-27252138D01*
X55875351Y-27095718D01*
X55990088Y-26958980D01*
X56129199Y-26847132D01*
X56287385Y-26764435D01*
X56458621Y-26714037D01*
X56458652Y-26714034D01*
X56458656Y-26714033D01*
X56636387Y-26697858D01*
X56813868Y-26716512D01*
X56813868Y-26716512D01*
G37*
G36*
X33953868Y-26716512D02*
X33953873Y-26716514D01*
X33953906Y-26716517D01*
X34124422Y-26769301D01*
X34281438Y-26854199D01*
X34418973Y-26967979D01*
X34531790Y-27106305D01*
X34615590Y-27263910D01*
X34667182Y-27434790D01*
X34684600Y-27612437D01*
X34684600Y-27927563D01*
X34684511Y-27940333D01*
X34664614Y-28117719D01*
X34610641Y-28287862D01*
X34524649Y-28444282D01*
X34409912Y-28581020D01*
X34270801Y-28692868D01*
X34112615Y-28775565D01*
X33941379Y-28825963D01*
X33941348Y-28825966D01*
X33941344Y-28825967D01*
X33763613Y-28842142D01*
X33586132Y-28823488D01*
X33586127Y-28823486D01*
X33586094Y-28823483D01*
X33415578Y-28770699D01*
X33258562Y-28685801D01*
X33121027Y-28572021D01*
X33008210Y-28433695D01*
X32924410Y-28276090D01*
X32872818Y-28105210D01*
X32855400Y-27927563D01*
X32855400Y-27612437D01*
X32855489Y-27599667D01*
X32875386Y-27422281D01*
X32929359Y-27252138D01*
X33015351Y-27095718D01*
X33130088Y-26958980D01*
X33269199Y-26847132D01*
X33427385Y-26764435D01*
X33598621Y-26714037D01*
X33598652Y-26714034D01*
X33598656Y-26714033D01*
X33776387Y-26697858D01*
X33953868Y-26716512D01*
X33953868Y-26716512D01*
G37*
G36*
X31413868Y-26716512D02*
X31413873Y-26716514D01*
X31413906Y-26716517D01*
X31584422Y-26769301D01*
X31741438Y-26854199D01*
X31878973Y-26967979D01*
X31991790Y-27106305D01*
X32075590Y-27263910D01*
X32127182Y-27434790D01*
X32144600Y-27612437D01*
X32144600Y-27927563D01*
X32144511Y-27940333D01*
X32124614Y-28117719D01*
X32070641Y-28287862D01*
X31984649Y-28444282D01*
X31869912Y-28581020D01*
X31730801Y-28692868D01*
X31572615Y-28775565D01*
X31401379Y-28825963D01*
X31401348Y-28825966D01*
X31401344Y-28825967D01*
X31223613Y-28842142D01*
X31046132Y-28823488D01*
X31046127Y-28823486D01*
X31046094Y-28823483D01*
X30875578Y-28770699D01*
X30718562Y-28685801D01*
X30581027Y-28572021D01*
X30468210Y-28433695D01*
X30384410Y-28276090D01*
X30332818Y-28105210D01*
X30315400Y-27927563D01*
X30315400Y-27612437D01*
X30315489Y-27599667D01*
X30335386Y-27422281D01*
X30389359Y-27252138D01*
X30475351Y-27095718D01*
X30590088Y-26958980D01*
X30729199Y-26847132D01*
X30887385Y-26764435D01*
X31058621Y-26714037D01*
X31058652Y-26714034D01*
X31058656Y-26714033D01*
X31236387Y-26697858D01*
X31413868Y-26716512D01*
X31413868Y-26716512D01*
G37*
G36*
X52464600Y-28837000D02*
X50635400Y-28837000D01*
X50635400Y-26703000D01*
X52464600Y-26703000D01*
X52464600Y-28837000D01*
X52464600Y-28837000D01*
G37*
G36*
X42304600Y-28837000D02*
X40475400Y-28837000D01*
X40475400Y-26703000D01*
X42304600Y-26703000D01*
X42304600Y-28837000D01*
X42304600Y-28837000D01*
G37*
G36*
X29604600Y-28837000D02*
X27775400Y-28837000D01*
X27775400Y-26703000D01*
X29604600Y-26703000D01*
X29604600Y-28837000D01*
X29604600Y-28837000D01*
G37*
G36*
X22311834Y-24473168D02*
X22311844Y-24473171D01*
X22311872Y-24473174D01*
X22601037Y-24562685D01*
X22867308Y-24706658D01*
X23100544Y-24899607D01*
X23291861Y-25134185D01*
X23433971Y-25401455D01*
X23521461Y-25691238D01*
X23551000Y-25992495D01*
X23551000Y-26007505D01*
X23550849Y-26029160D01*
X23517107Y-26329976D01*
X23425579Y-26618509D01*
X23279751Y-26883769D01*
X23085178Y-27115652D01*
X22849271Y-27305326D01*
X22581015Y-27445567D01*
X22290628Y-27531033D01*
X22290598Y-27531036D01*
X22290594Y-27531037D01*
X21989170Y-27558468D01*
X21688166Y-27526832D01*
X21688156Y-27526829D01*
X21688128Y-27526826D01*
X21398963Y-27437315D01*
X21132692Y-27293342D01*
X20899456Y-27100393D01*
X20708139Y-26865815D01*
X20566029Y-26598545D01*
X20478539Y-26308762D01*
X20449000Y-26007505D01*
X20449000Y-25992495D01*
X20449151Y-25970840D01*
X20482893Y-25670024D01*
X20574421Y-25381491D01*
X20720249Y-25116231D01*
X20914822Y-24884348D01*
X21150729Y-24694674D01*
X21418985Y-24554433D01*
X21709372Y-24468967D01*
X21709402Y-24468964D01*
X21709406Y-24468963D01*
X22010830Y-24441532D01*
X22311834Y-24473168D01*
X22311834Y-24473168D01*
G37*
G36*
X14811834Y-24473168D02*
X14811844Y-24473171D01*
X14811872Y-24473174D01*
X15101037Y-24562685D01*
X15367308Y-24706658D01*
X15600544Y-24899607D01*
X15791861Y-25134185D01*
X15933971Y-25401455D01*
X16021461Y-25691238D01*
X16051000Y-25992495D01*
X16051000Y-26007505D01*
X16050849Y-26029160D01*
X16017107Y-26329976D01*
X15925579Y-26618509D01*
X15779751Y-26883769D01*
X15585178Y-27115652D01*
X15349271Y-27305326D01*
X15081015Y-27445567D01*
X14790628Y-27531033D01*
X14790598Y-27531036D01*
X14790594Y-27531037D01*
X14489170Y-27558468D01*
X14188166Y-27526832D01*
X14188156Y-27526829D01*
X14188128Y-27526826D01*
X13898963Y-27437315D01*
X13632692Y-27293342D01*
X13399456Y-27100393D01*
X13208139Y-26865815D01*
X13066029Y-26598545D01*
X12978539Y-26308762D01*
X12949000Y-26007505D01*
X12949000Y-25992495D01*
X12949151Y-25970840D01*
X12982893Y-25670024D01*
X13074421Y-25381491D01*
X13220249Y-25116231D01*
X13414822Y-24884348D01*
X13650729Y-24694674D01*
X13918985Y-24554433D01*
X14209372Y-24468967D01*
X14209402Y-24468964D01*
X14209406Y-24468963D01*
X14510830Y-24441532D01*
X14811834Y-24473168D01*
X14811834Y-24473168D01*
G37*
G36*
X12551000Y-27551000D02*
X9449000Y-27551000D01*
X9449000Y-24449000D01*
X12551000Y-24449000D01*
X12551000Y-27551000D01*
X12551000Y-27551000D01*
G37*
G36*
X20051000Y-27551000D02*
X16949000Y-27551000D01*
X16949000Y-24449000D01*
X20051000Y-24449000D01*
X20051000Y-27551000D01*
X20051000Y-27551000D01*
G37*
G36*
X3820457Y-451030D02*
X4406573Y-571342D01*
X4958152Y-803205D01*
X5454195Y-1137790D01*
X5875796Y-1562345D01*
X6206909Y-2060710D01*
X6434916Y-2613896D01*
X6551080Y-3200570D01*
X6551080Y-3200581D01*
X6551130Y-3200834D01*
X6541588Y-3884242D01*
X6541530Y-3884497D01*
X6541530Y-3884507D01*
X6409031Y-4467703D01*
X6165666Y-5014310D01*
X5820769Y-5503234D01*
X5387474Y-5915855D01*
X4882282Y-6236459D01*
X4324445Y-6452829D01*
X3735205Y-6556728D01*
X3136999Y-6544198D01*
X2552626Y-6415714D01*
X2004336Y-6176173D01*
X1513019Y-5834699D01*
X1097382Y-5404294D01*
X773257Y-4901352D01*
X552999Y-4345043D01*
X444988Y-3756533D01*
X453341Y-3158265D01*
X577742Y-2573005D01*
X813452Y-2023055D01*
X1151489Y-1529364D01*
X1578981Y-1110732D01*
X2079640Y-783110D01*
X2634409Y-558969D01*
X3222142Y-446853D01*
X3820457Y-451030D01*
X3820457Y-451030D01*
G37*
G36*
X61820457Y-451030D02*
X62406573Y-571342D01*
X62958152Y-803205D01*
X63454195Y-1137790D01*
X63875796Y-1562345D01*
X64206909Y-2060710D01*
X64434916Y-2613896D01*
X64551080Y-3200570D01*
X64551080Y-3200581D01*
X64551130Y-3200834D01*
X64541588Y-3884242D01*
X64541530Y-3884497D01*
X64541530Y-3884507D01*
X64409031Y-4467703D01*
X64165666Y-5014310D01*
X63820769Y-5503234D01*
X63387474Y-5915855D01*
X62882282Y-6236459D01*
X62324445Y-6452829D01*
X61735205Y-6556728D01*
X61136999Y-6544198D01*
X60552626Y-6415714D01*
X60004336Y-6176173D01*
X59513019Y-5834699D01*
X59097382Y-5404294D01*
X58773257Y-4901352D01*
X58552999Y-4345043D01*
X58444988Y-3756533D01*
X58453341Y-3158265D01*
X58577742Y-2573005D01*
X58813452Y-2023055D01*
X59151489Y-1529364D01*
X59578981Y-1110732D01*
X60079640Y-783110D01*
X60634409Y-558969D01*
X61222142Y-446853D01*
X61820457Y-451030D01*
X61820457Y-451030D01*
G37*
G36*
X10994131Y-3969532D02*
X11148009Y-4001118D01*
X11292820Y-4061991D01*
X11423048Y-4149831D01*
X11533735Y-4261294D01*
X11620665Y-4392134D01*
X11680524Y-4537364D01*
X11710983Y-4691194D01*
X11711035Y-4691458D01*
X11708529Y-4870878D01*
X11708470Y-4871137D01*
X11708470Y-4871143D01*
X11673729Y-5024061D01*
X11609839Y-5167560D01*
X11519288Y-5295924D01*
X11405533Y-5404252D01*
X11272899Y-5488423D01*
X11126449Y-5545227D01*
X10971751Y-5572505D01*
X10814697Y-5569215D01*
X10661278Y-5535483D01*
X10517334Y-5472596D01*
X10388343Y-5382945D01*
X10279224Y-5269949D01*
X10194127Y-5137905D01*
X10136301Y-4991853D01*
X10107945Y-4837351D01*
X10110138Y-4680284D01*
X10142799Y-4526629D01*
X10204682Y-4382246D01*
X10293429Y-4252634D01*
X10405662Y-4142727D01*
X10537100Y-4056716D01*
X10682751Y-3997869D01*
X10837052Y-3968435D01*
X10994131Y-3969532D01*
X10994131Y-3969532D01*
G37*
G36*
X56714131Y-3969532D02*
X56868009Y-4001118D01*
X57012820Y-4061991D01*
X57143048Y-4149831D01*
X57253735Y-4261294D01*
X57340665Y-4392134D01*
X57400524Y-4537364D01*
X57430983Y-4691194D01*
X57431035Y-4691458D01*
X57428529Y-4870878D01*
X57428470Y-4871137D01*
X57428470Y-4871143D01*
X57393729Y-5024061D01*
X57329839Y-5167560D01*
X57239288Y-5295924D01*
X57125533Y-5404252D01*
X56992899Y-5488423D01*
X56846449Y-5545227D01*
X56691751Y-5572505D01*
X56534697Y-5569215D01*
X56381278Y-5535483D01*
X56237334Y-5472596D01*
X56108343Y-5382945D01*
X55999224Y-5269949D01*
X55914127Y-5137905D01*
X55856301Y-4991853D01*
X55827945Y-4837351D01*
X55830138Y-4680284D01*
X55862799Y-4526629D01*
X55924682Y-4382246D01*
X56013429Y-4252634D01*
X56125662Y-4142727D01*
X56257100Y-4056716D01*
X56402751Y-3997869D01*
X56557052Y-3968435D01*
X56714131Y-3969532D01*
X56714131Y-3969532D01*
G37*
G36*
X54174131Y-3969532D02*
X54328009Y-4001118D01*
X54472820Y-4061991D01*
X54603048Y-4149831D01*
X54713735Y-4261294D01*
X54800665Y-4392134D01*
X54860524Y-4537364D01*
X54890983Y-4691194D01*
X54891035Y-4691458D01*
X54888529Y-4870878D01*
X54888470Y-4871137D01*
X54888470Y-4871143D01*
X54853729Y-5024061D01*
X54789839Y-5167560D01*
X54699288Y-5295924D01*
X54585533Y-5404252D01*
X54452899Y-5488423D01*
X54306449Y-5545227D01*
X54151751Y-5572505D01*
X53994697Y-5569215D01*
X53841278Y-5535483D01*
X53697334Y-5472596D01*
X53568343Y-5382945D01*
X53459224Y-5269949D01*
X53374127Y-5137905D01*
X53316301Y-4991853D01*
X53287945Y-4837351D01*
X53290138Y-4680284D01*
X53322799Y-4526629D01*
X53384682Y-4382246D01*
X53473429Y-4252634D01*
X53585662Y-4142727D01*
X53717100Y-4056716D01*
X53862751Y-3997869D01*
X54017052Y-3968435D01*
X54174131Y-3969532D01*
X54174131Y-3969532D01*
G37*
G36*
X51634131Y-3969532D02*
X51788009Y-4001118D01*
X51932820Y-4061991D01*
X52063048Y-4149831D01*
X52173735Y-4261294D01*
X52260665Y-4392134D01*
X52320524Y-4537364D01*
X52350983Y-4691194D01*
X52351035Y-4691458D01*
X52348529Y-4870878D01*
X52348470Y-4871137D01*
X52348470Y-4871143D01*
X52313729Y-5024061D01*
X52249839Y-5167560D01*
X52159288Y-5295924D01*
X52045533Y-5404252D01*
X51912899Y-5488423D01*
X51766449Y-5545227D01*
X51611751Y-5572505D01*
X51454697Y-5569215D01*
X51301278Y-5535483D01*
X51157334Y-5472596D01*
X51028343Y-5382945D01*
X50919224Y-5269949D01*
X50834127Y-5137905D01*
X50776301Y-4991853D01*
X50747945Y-4837351D01*
X50750138Y-4680284D01*
X50782799Y-4526629D01*
X50844682Y-4382246D01*
X50933429Y-4252634D01*
X51045662Y-4142727D01*
X51177100Y-4056716D01*
X51322751Y-3997869D01*
X51477052Y-3968435D01*
X51634131Y-3969532D01*
X51634131Y-3969532D01*
G37*
G36*
X49094131Y-3969532D02*
X49248009Y-4001118D01*
X49392820Y-4061991D01*
X49523048Y-4149831D01*
X49633735Y-4261294D01*
X49720665Y-4392134D01*
X49780524Y-4537364D01*
X49810983Y-4691194D01*
X49811035Y-4691458D01*
X49808529Y-4870878D01*
X49808470Y-4871137D01*
X49808470Y-4871143D01*
X49773729Y-5024061D01*
X49709839Y-5167560D01*
X49619288Y-5295924D01*
X49505533Y-5404252D01*
X49372899Y-5488423D01*
X49226449Y-5545227D01*
X49071751Y-5572505D01*
X48914697Y-5569215D01*
X48761278Y-5535483D01*
X48617334Y-5472596D01*
X48488343Y-5382945D01*
X48379224Y-5269949D01*
X48294127Y-5137905D01*
X48236301Y-4991853D01*
X48207945Y-4837351D01*
X48210138Y-4680284D01*
X48242799Y-4526629D01*
X48304682Y-4382246D01*
X48393429Y-4252634D01*
X48505662Y-4142727D01*
X48637100Y-4056716D01*
X48782751Y-3997869D01*
X48937052Y-3968435D01*
X49094131Y-3969532D01*
X49094131Y-3969532D01*
G37*
G36*
X46554131Y-3969532D02*
X46708009Y-4001118D01*
X46852820Y-4061991D01*
X46983048Y-4149831D01*
X47093735Y-4261294D01*
X47180665Y-4392134D01*
X47240524Y-4537364D01*
X47270983Y-4691194D01*
X47271035Y-4691458D01*
X47268529Y-4870878D01*
X47268470Y-4871137D01*
X47268470Y-4871143D01*
X47233729Y-5024061D01*
X47169839Y-5167560D01*
X47079288Y-5295924D01*
X46965533Y-5404252D01*
X46832899Y-5488423D01*
X46686449Y-5545227D01*
X46531751Y-5572505D01*
X46374697Y-5569215D01*
X46221278Y-5535483D01*
X46077334Y-5472596D01*
X45948343Y-5382945D01*
X45839224Y-5269949D01*
X45754127Y-5137905D01*
X45696301Y-4991853D01*
X45667945Y-4837351D01*
X45670138Y-4680284D01*
X45702799Y-4526629D01*
X45764682Y-4382246D01*
X45853429Y-4252634D01*
X45965662Y-4142727D01*
X46097100Y-4056716D01*
X46242751Y-3997869D01*
X46397052Y-3968435D01*
X46554131Y-3969532D01*
X46554131Y-3969532D01*
G37*
G36*
X44014131Y-3969532D02*
X44168009Y-4001118D01*
X44312820Y-4061991D01*
X44443048Y-4149831D01*
X44553735Y-4261294D01*
X44640665Y-4392134D01*
X44700524Y-4537364D01*
X44730983Y-4691194D01*
X44731035Y-4691458D01*
X44728529Y-4870878D01*
X44728470Y-4871137D01*
X44728470Y-4871143D01*
X44693729Y-5024061D01*
X44629839Y-5167560D01*
X44539288Y-5295924D01*
X44425533Y-5404252D01*
X44292899Y-5488423D01*
X44146449Y-5545227D01*
X43991751Y-5572505D01*
X43834697Y-5569215D01*
X43681278Y-5535483D01*
X43537334Y-5472596D01*
X43408343Y-5382945D01*
X43299224Y-5269949D01*
X43214127Y-5137905D01*
X43156301Y-4991853D01*
X43127945Y-4837351D01*
X43130138Y-4680284D01*
X43162799Y-4526629D01*
X43224682Y-4382246D01*
X43313429Y-4252634D01*
X43425662Y-4142727D01*
X43557100Y-4056716D01*
X43702751Y-3997869D01*
X43857052Y-3968435D01*
X44014131Y-3969532D01*
X44014131Y-3969532D01*
G37*
G36*
X41474131Y-3969532D02*
X41628009Y-4001118D01*
X41772820Y-4061991D01*
X41903048Y-4149831D01*
X42013735Y-4261294D01*
X42100665Y-4392134D01*
X42160524Y-4537364D01*
X42190983Y-4691194D01*
X42191035Y-4691458D01*
X42188529Y-4870878D01*
X42188470Y-4871137D01*
X42188470Y-4871143D01*
X42153729Y-5024061D01*
X42089839Y-5167560D01*
X41999288Y-5295924D01*
X41885533Y-5404252D01*
X41752899Y-5488423D01*
X41606449Y-5545227D01*
X41451751Y-5572505D01*
X41294697Y-5569215D01*
X41141278Y-5535483D01*
X40997334Y-5472596D01*
X40868343Y-5382945D01*
X40759224Y-5269949D01*
X40674127Y-5137905D01*
X40616301Y-4991853D01*
X40587945Y-4837351D01*
X40590138Y-4680284D01*
X40622799Y-4526629D01*
X40684682Y-4382246D01*
X40773429Y-4252634D01*
X40885662Y-4142727D01*
X41017100Y-4056716D01*
X41162751Y-3997869D01*
X41317052Y-3968435D01*
X41474131Y-3969532D01*
X41474131Y-3969532D01*
G37*
G36*
X38934131Y-3969532D02*
X39088009Y-4001118D01*
X39232820Y-4061991D01*
X39363048Y-4149831D01*
X39473735Y-4261294D01*
X39560665Y-4392134D01*
X39620524Y-4537364D01*
X39650983Y-4691194D01*
X39651035Y-4691458D01*
X39648529Y-4870878D01*
X39648470Y-4871137D01*
X39648470Y-4871143D01*
X39613729Y-5024061D01*
X39549839Y-5167560D01*
X39459288Y-5295924D01*
X39345533Y-5404252D01*
X39212899Y-5488423D01*
X39066449Y-5545227D01*
X38911751Y-5572505D01*
X38754697Y-5569215D01*
X38601278Y-5535483D01*
X38457334Y-5472596D01*
X38328343Y-5382945D01*
X38219224Y-5269949D01*
X38134127Y-5137905D01*
X38076301Y-4991853D01*
X38047945Y-4837351D01*
X38050138Y-4680284D01*
X38082799Y-4526629D01*
X38144682Y-4382246D01*
X38233429Y-4252634D01*
X38345662Y-4142727D01*
X38477100Y-4056716D01*
X38622751Y-3997869D01*
X38777052Y-3968435D01*
X38934131Y-3969532D01*
X38934131Y-3969532D01*
G37*
G36*
X36394131Y-3969532D02*
X36548009Y-4001118D01*
X36692820Y-4061991D01*
X36823048Y-4149831D01*
X36933735Y-4261294D01*
X37020665Y-4392134D01*
X37080524Y-4537364D01*
X37110983Y-4691194D01*
X37111035Y-4691458D01*
X37108529Y-4870878D01*
X37108470Y-4871137D01*
X37108470Y-4871143D01*
X37073729Y-5024061D01*
X37009839Y-5167560D01*
X36919288Y-5295924D01*
X36805533Y-5404252D01*
X36672899Y-5488423D01*
X36526449Y-5545227D01*
X36371751Y-5572505D01*
X36214697Y-5569215D01*
X36061278Y-5535483D01*
X35917334Y-5472596D01*
X35788343Y-5382945D01*
X35679224Y-5269949D01*
X35594127Y-5137905D01*
X35536301Y-4991853D01*
X35507945Y-4837351D01*
X35510138Y-4680284D01*
X35542799Y-4526629D01*
X35604682Y-4382246D01*
X35693429Y-4252634D01*
X35805662Y-4142727D01*
X35937100Y-4056716D01*
X36082751Y-3997869D01*
X36237052Y-3968435D01*
X36394131Y-3969532D01*
X36394131Y-3969532D01*
G37*
G36*
X33854131Y-3969532D02*
X34008009Y-4001118D01*
X34152820Y-4061991D01*
X34283048Y-4149831D01*
X34393735Y-4261294D01*
X34480665Y-4392134D01*
X34540524Y-4537364D01*
X34570983Y-4691194D01*
X34571035Y-4691458D01*
X34568529Y-4870878D01*
X34568470Y-4871137D01*
X34568470Y-4871143D01*
X34533729Y-5024061D01*
X34469839Y-5167560D01*
X34379288Y-5295924D01*
X34265533Y-5404252D01*
X34132899Y-5488423D01*
X33986449Y-5545227D01*
X33831751Y-5572505D01*
X33674697Y-5569215D01*
X33521278Y-5535483D01*
X33377334Y-5472596D01*
X33248343Y-5382945D01*
X33139224Y-5269949D01*
X33054127Y-5137905D01*
X32996301Y-4991853D01*
X32967945Y-4837351D01*
X32970138Y-4680284D01*
X33002799Y-4526629D01*
X33064682Y-4382246D01*
X33153429Y-4252634D01*
X33265662Y-4142727D01*
X33397100Y-4056716D01*
X33542751Y-3997869D01*
X33697052Y-3968435D01*
X33854131Y-3969532D01*
X33854131Y-3969532D01*
G37*
G36*
X31314131Y-3969532D02*
X31468009Y-4001118D01*
X31612820Y-4061991D01*
X31743048Y-4149831D01*
X31853735Y-4261294D01*
X31940665Y-4392134D01*
X32000524Y-4537364D01*
X32030983Y-4691194D01*
X32031035Y-4691458D01*
X32028529Y-4870878D01*
X32028470Y-4871137D01*
X32028470Y-4871143D01*
X31993729Y-5024061D01*
X31929839Y-5167560D01*
X31839288Y-5295924D01*
X31725533Y-5404252D01*
X31592899Y-5488423D01*
X31446449Y-5545227D01*
X31291751Y-5572505D01*
X31134697Y-5569215D01*
X30981278Y-5535483D01*
X30837334Y-5472596D01*
X30708343Y-5382945D01*
X30599224Y-5269949D01*
X30514127Y-5137905D01*
X30456301Y-4991853D01*
X30427945Y-4837351D01*
X30430138Y-4680284D01*
X30462799Y-4526629D01*
X30524682Y-4382246D01*
X30613429Y-4252634D01*
X30725662Y-4142727D01*
X30857100Y-4056716D01*
X31002751Y-3997869D01*
X31157052Y-3968435D01*
X31314131Y-3969532D01*
X31314131Y-3969532D01*
G37*
G36*
X28774131Y-3969532D02*
X28928009Y-4001118D01*
X29072820Y-4061991D01*
X29203048Y-4149831D01*
X29313735Y-4261294D01*
X29400665Y-4392134D01*
X29460524Y-4537364D01*
X29490983Y-4691194D01*
X29491035Y-4691458D01*
X29488529Y-4870878D01*
X29488470Y-4871137D01*
X29488470Y-4871143D01*
X29453729Y-5024061D01*
X29389839Y-5167560D01*
X29299288Y-5295924D01*
X29185533Y-5404252D01*
X29052899Y-5488423D01*
X28906449Y-5545227D01*
X28751751Y-5572505D01*
X28594697Y-5569215D01*
X28441278Y-5535483D01*
X28297334Y-5472596D01*
X28168343Y-5382945D01*
X28059224Y-5269949D01*
X27974127Y-5137905D01*
X27916301Y-4991853D01*
X27887945Y-4837351D01*
X27890138Y-4680284D01*
X27922799Y-4526629D01*
X27984682Y-4382246D01*
X28073429Y-4252634D01*
X28185662Y-4142727D01*
X28317100Y-4056716D01*
X28462751Y-3997869D01*
X28617052Y-3968435D01*
X28774131Y-3969532D01*
X28774131Y-3969532D01*
G37*
G36*
X26234131Y-3969532D02*
X26388009Y-4001118D01*
X26532820Y-4061991D01*
X26663048Y-4149831D01*
X26773735Y-4261294D01*
X26860665Y-4392134D01*
X26920524Y-4537364D01*
X26950983Y-4691194D01*
X26951035Y-4691458D01*
X26948529Y-4870878D01*
X26948470Y-4871137D01*
X26948470Y-4871143D01*
X26913729Y-5024061D01*
X26849839Y-5167560D01*
X26759288Y-5295924D01*
X26645533Y-5404252D01*
X26512899Y-5488423D01*
X26366449Y-5545227D01*
X26211751Y-5572505D01*
X26054697Y-5569215D01*
X25901278Y-5535483D01*
X25757334Y-5472596D01*
X25628343Y-5382945D01*
X25519224Y-5269949D01*
X25434127Y-5137905D01*
X25376301Y-4991853D01*
X25347945Y-4837351D01*
X25350138Y-4680284D01*
X25382799Y-4526629D01*
X25444682Y-4382246D01*
X25533429Y-4252634D01*
X25645662Y-4142727D01*
X25777100Y-4056716D01*
X25922751Y-3997869D01*
X26077052Y-3968435D01*
X26234131Y-3969532D01*
X26234131Y-3969532D01*
G37*
G36*
X23694131Y-3969532D02*
X23848009Y-4001118D01*
X23992820Y-4061991D01*
X24123048Y-4149831D01*
X24233735Y-4261294D01*
X24320665Y-4392134D01*
X24380524Y-4537364D01*
X24410983Y-4691194D01*
X24411035Y-4691458D01*
X24408529Y-4870878D01*
X24408470Y-4871137D01*
X24408470Y-4871143D01*
X24373729Y-5024061D01*
X24309839Y-5167560D01*
X24219288Y-5295924D01*
X24105533Y-5404252D01*
X23972899Y-5488423D01*
X23826449Y-5545227D01*
X23671751Y-5572505D01*
X23514697Y-5569215D01*
X23361278Y-5535483D01*
X23217334Y-5472596D01*
X23088343Y-5382945D01*
X22979224Y-5269949D01*
X22894127Y-5137905D01*
X22836301Y-4991853D01*
X22807945Y-4837351D01*
X22810138Y-4680284D01*
X22842799Y-4526629D01*
X22904682Y-4382246D01*
X22993429Y-4252634D01*
X23105662Y-4142727D01*
X23237100Y-4056716D01*
X23382751Y-3997869D01*
X23537052Y-3968435D01*
X23694131Y-3969532D01*
X23694131Y-3969532D01*
G37*
G36*
X21154131Y-3969532D02*
X21308009Y-4001118D01*
X21452820Y-4061991D01*
X21583048Y-4149831D01*
X21693735Y-4261294D01*
X21780665Y-4392134D01*
X21840524Y-4537364D01*
X21870983Y-4691194D01*
X21871035Y-4691458D01*
X21868529Y-4870878D01*
X21868470Y-4871137D01*
X21868470Y-4871143D01*
X21833729Y-5024061D01*
X21769839Y-5167560D01*
X21679288Y-5295924D01*
X21565533Y-5404252D01*
X21432899Y-5488423D01*
X21286449Y-5545227D01*
X21131751Y-5572505D01*
X20974697Y-5569215D01*
X20821278Y-5535483D01*
X20677334Y-5472596D01*
X20548343Y-5382945D01*
X20439224Y-5269949D01*
X20354127Y-5137905D01*
X20296301Y-4991853D01*
X20267945Y-4837351D01*
X20270138Y-4680284D01*
X20302799Y-4526629D01*
X20364682Y-4382246D01*
X20453429Y-4252634D01*
X20565662Y-4142727D01*
X20697100Y-4056716D01*
X20842751Y-3997869D01*
X20997052Y-3968435D01*
X21154131Y-3969532D01*
X21154131Y-3969532D01*
G37*
G36*
X18614131Y-3969532D02*
X18768009Y-4001118D01*
X18912820Y-4061991D01*
X19043048Y-4149831D01*
X19153735Y-4261294D01*
X19240665Y-4392134D01*
X19300524Y-4537364D01*
X19330983Y-4691194D01*
X19331035Y-4691458D01*
X19328529Y-4870878D01*
X19328470Y-4871137D01*
X19328470Y-4871143D01*
X19293729Y-5024061D01*
X19229839Y-5167560D01*
X19139288Y-5295924D01*
X19025533Y-5404252D01*
X18892899Y-5488423D01*
X18746449Y-5545227D01*
X18591751Y-5572505D01*
X18434697Y-5569215D01*
X18281278Y-5535483D01*
X18137334Y-5472596D01*
X18008343Y-5382945D01*
X17899224Y-5269949D01*
X17814127Y-5137905D01*
X17756301Y-4991853D01*
X17727945Y-4837351D01*
X17730138Y-4680284D01*
X17762799Y-4526629D01*
X17824682Y-4382246D01*
X17913429Y-4252634D01*
X18025662Y-4142727D01*
X18157100Y-4056716D01*
X18302751Y-3997869D01*
X18457052Y-3968435D01*
X18614131Y-3969532D01*
X18614131Y-3969532D01*
G37*
G36*
X16074131Y-3969532D02*
X16228009Y-4001118D01*
X16372820Y-4061991D01*
X16503048Y-4149831D01*
X16613735Y-4261294D01*
X16700665Y-4392134D01*
X16760524Y-4537364D01*
X16790983Y-4691194D01*
X16791035Y-4691458D01*
X16788529Y-4870878D01*
X16788470Y-4871137D01*
X16788470Y-4871143D01*
X16753729Y-5024061D01*
X16689839Y-5167560D01*
X16599288Y-5295924D01*
X16485533Y-5404252D01*
X16352899Y-5488423D01*
X16206449Y-5545227D01*
X16051751Y-5572505D01*
X15894697Y-5569215D01*
X15741278Y-5535483D01*
X15597334Y-5472596D01*
X15468343Y-5382945D01*
X15359224Y-5269949D01*
X15274127Y-5137905D01*
X15216301Y-4991853D01*
X15187945Y-4837351D01*
X15190138Y-4680284D01*
X15222799Y-4526629D01*
X15284682Y-4382246D01*
X15373429Y-4252634D01*
X15485662Y-4142727D01*
X15617100Y-4056716D01*
X15762751Y-3997869D01*
X15917052Y-3968435D01*
X16074131Y-3969532D01*
X16074131Y-3969532D01*
G37*
G36*
X13534131Y-3969532D02*
X13688009Y-4001118D01*
X13832820Y-4061991D01*
X13963048Y-4149831D01*
X14073735Y-4261294D01*
X14160665Y-4392134D01*
X14220524Y-4537364D01*
X14250983Y-4691194D01*
X14251035Y-4691458D01*
X14248529Y-4870878D01*
X14248470Y-4871137D01*
X14248470Y-4871143D01*
X14213729Y-5024061D01*
X14149839Y-5167560D01*
X14059288Y-5295924D01*
X13945533Y-5404252D01*
X13812899Y-5488423D01*
X13666449Y-5545227D01*
X13511751Y-5572505D01*
X13354697Y-5569215D01*
X13201278Y-5535483D01*
X13057334Y-5472596D01*
X12928343Y-5382945D01*
X12819224Y-5269949D01*
X12734127Y-5137905D01*
X12676301Y-4991853D01*
X12647945Y-4837351D01*
X12650138Y-4680284D01*
X12682799Y-4526629D01*
X12744682Y-4382246D01*
X12833429Y-4252634D01*
X12945662Y-4142727D01*
X13077100Y-4056716D01*
X13222751Y-3997869D01*
X13377052Y-3968435D01*
X13534131Y-3969532D01*
X13534131Y-3969532D01*
G37*
G36*
X8454131Y-3969532D02*
X8608009Y-4001118D01*
X8752820Y-4061991D01*
X8883048Y-4149831D01*
X8993735Y-4261294D01*
X9080665Y-4392134D01*
X9140524Y-4537364D01*
X9170983Y-4691194D01*
X9171035Y-4691458D01*
X9168529Y-4870878D01*
X9168470Y-4871137D01*
X9168470Y-4871143D01*
X9133729Y-5024061D01*
X9069839Y-5167560D01*
X8979288Y-5295924D01*
X8865533Y-5404252D01*
X8732899Y-5488423D01*
X8586449Y-5545227D01*
X8431751Y-5572505D01*
X8274697Y-5569215D01*
X8121278Y-5535483D01*
X7977334Y-5472596D01*
X7848343Y-5382945D01*
X7739224Y-5269949D01*
X7654127Y-5137905D01*
X7596301Y-4991853D01*
X7567945Y-4837351D01*
X7570138Y-4680284D01*
X7602799Y-4526629D01*
X7664682Y-4382246D01*
X7753429Y-4252634D01*
X7865662Y-4142727D01*
X7997100Y-4056716D01*
X8142751Y-3997869D01*
X8297052Y-3968435D01*
X8454131Y-3969532D01*
X8454131Y-3969532D01*
G37*
G36*
X13534131Y-1429532D02*
X13688009Y-1461118D01*
X13832820Y-1521991D01*
X13963048Y-1609831D01*
X14073735Y-1721294D01*
X14160665Y-1852134D01*
X14220524Y-1997364D01*
X14250983Y-2151194D01*
X14251035Y-2151458D01*
X14248529Y-2330878D01*
X14248470Y-2331137D01*
X14248470Y-2331143D01*
X14213729Y-2484061D01*
X14149839Y-2627560D01*
X14059288Y-2755924D01*
X13945533Y-2864252D01*
X13812899Y-2948423D01*
X13666449Y-3005227D01*
X13511751Y-3032505D01*
X13354697Y-3029215D01*
X13201278Y-2995483D01*
X13057334Y-2932596D01*
X12928343Y-2842945D01*
X12819224Y-2729949D01*
X12734127Y-2597905D01*
X12676301Y-2451853D01*
X12647945Y-2297351D01*
X12650138Y-2140284D01*
X12682799Y-1986629D01*
X12744682Y-1842246D01*
X12833429Y-1712634D01*
X12945662Y-1602727D01*
X13077100Y-1516716D01*
X13222751Y-1457869D01*
X13377052Y-1428435D01*
X13534131Y-1429532D01*
X13534131Y-1429532D01*
G37*
G36*
X10994131Y-1429532D02*
X11148009Y-1461118D01*
X11292820Y-1521991D01*
X11423048Y-1609831D01*
X11533735Y-1721294D01*
X11620665Y-1852134D01*
X11680524Y-1997364D01*
X11710983Y-2151194D01*
X11711035Y-2151458D01*
X11708529Y-2330878D01*
X11708470Y-2331137D01*
X11708470Y-2331143D01*
X11673729Y-2484061D01*
X11609839Y-2627560D01*
X11519288Y-2755924D01*
X11405533Y-2864252D01*
X11272899Y-2948423D01*
X11126449Y-3005227D01*
X10971751Y-3032505D01*
X10814697Y-3029215D01*
X10661278Y-2995483D01*
X10517334Y-2932596D01*
X10388343Y-2842945D01*
X10279224Y-2729949D01*
X10194127Y-2597905D01*
X10136301Y-2451853D01*
X10107945Y-2297351D01*
X10110138Y-2140284D01*
X10142799Y-1986629D01*
X10204682Y-1842246D01*
X10293429Y-1712634D01*
X10405662Y-1602727D01*
X10537100Y-1516716D01*
X10682751Y-1457869D01*
X10837052Y-1428435D01*
X10994131Y-1429532D01*
X10994131Y-1429532D01*
G37*
G36*
X8454131Y-1429532D02*
X8608009Y-1461118D01*
X8752820Y-1521991D01*
X8883048Y-1609831D01*
X8993735Y-1721294D01*
X9080665Y-1852134D01*
X9140524Y-1997364D01*
X9170983Y-2151194D01*
X9171035Y-2151458D01*
X9168529Y-2330878D01*
X9168470Y-2331137D01*
X9168470Y-2331143D01*
X9133729Y-2484061D01*
X9069839Y-2627560D01*
X8979288Y-2755924D01*
X8865533Y-2864252D01*
X8732899Y-2948423D01*
X8586449Y-3005227D01*
X8431751Y-3032505D01*
X8274697Y-3029215D01*
X8121278Y-2995483D01*
X7977334Y-2932596D01*
X7848343Y-2842945D01*
X7739224Y-2729949D01*
X7654127Y-2597905D01*
X7596301Y-2451853D01*
X7567945Y-2297351D01*
X7570138Y-2140284D01*
X7602799Y-1986629D01*
X7664682Y-1842246D01*
X7753429Y-1712634D01*
X7865662Y-1602727D01*
X7997100Y-1516716D01*
X8142751Y-1457869D01*
X8297052Y-1428435D01*
X8454131Y-1429532D01*
X8454131Y-1429532D01*
G37*
G36*
X16074131Y-1429532D02*
X16228009Y-1461118D01*
X16372820Y-1521991D01*
X16503048Y-1609831D01*
X16613735Y-1721294D01*
X16700665Y-1852134D01*
X16760524Y-1997364D01*
X16790983Y-2151194D01*
X16791035Y-2151458D01*
X16788529Y-2330878D01*
X16788470Y-2331137D01*
X16788470Y-2331143D01*
X16753729Y-2484061D01*
X16689839Y-2627560D01*
X16599288Y-2755924D01*
X16485533Y-2864252D01*
X16352899Y-2948423D01*
X16206449Y-3005227D01*
X16051751Y-3032505D01*
X15894697Y-3029215D01*
X15741278Y-2995483D01*
X15597334Y-2932596D01*
X15468343Y-2842945D01*
X15359224Y-2729949D01*
X15274127Y-2597905D01*
X15216301Y-2451853D01*
X15187945Y-2297351D01*
X15190138Y-2140284D01*
X15222799Y-1986629D01*
X15284682Y-1842246D01*
X15373429Y-1712634D01*
X15485662Y-1602727D01*
X15617100Y-1516716D01*
X15762751Y-1457869D01*
X15917052Y-1428435D01*
X16074131Y-1429532D01*
X16074131Y-1429532D01*
G37*
G36*
X18614131Y-1429532D02*
X18768009Y-1461118D01*
X18912820Y-1521991D01*
X19043048Y-1609831D01*
X19153735Y-1721294D01*
X19240665Y-1852134D01*
X19300524Y-1997364D01*
X19330983Y-2151194D01*
X19331035Y-2151458D01*
X19328529Y-2330878D01*
X19328470Y-2331137D01*
X19328470Y-2331143D01*
X19293729Y-2484061D01*
X19229839Y-2627560D01*
X19139288Y-2755924D01*
X19025533Y-2864252D01*
X18892899Y-2948423D01*
X18746449Y-3005227D01*
X18591751Y-3032505D01*
X18434697Y-3029215D01*
X18281278Y-2995483D01*
X18137334Y-2932596D01*
X18008343Y-2842945D01*
X17899224Y-2729949D01*
X17814127Y-2597905D01*
X17756301Y-2451853D01*
X17727945Y-2297351D01*
X17730138Y-2140284D01*
X17762799Y-1986629D01*
X17824682Y-1842246D01*
X17913429Y-1712634D01*
X18025662Y-1602727D01*
X18157100Y-1516716D01*
X18302751Y-1457869D01*
X18457052Y-1428435D01*
X18614131Y-1429532D01*
X18614131Y-1429532D01*
G37*
G36*
X21154131Y-1429532D02*
X21308009Y-1461118D01*
X21452820Y-1521991D01*
X21583048Y-1609831D01*
X21693735Y-1721294D01*
X21780665Y-1852134D01*
X21840524Y-1997364D01*
X21870983Y-2151194D01*
X21871035Y-2151458D01*
X21868529Y-2330878D01*
X21868470Y-2331137D01*
X21868470Y-2331143D01*
X21833729Y-2484061D01*
X21769839Y-2627560D01*
X21679288Y-2755924D01*
X21565533Y-2864252D01*
X21432899Y-2948423D01*
X21286449Y-3005227D01*
X21131751Y-3032505D01*
X20974697Y-3029215D01*
X20821278Y-2995483D01*
X20677334Y-2932596D01*
X20548343Y-2842945D01*
X20439224Y-2729949D01*
X20354127Y-2597905D01*
X20296301Y-2451853D01*
X20267945Y-2297351D01*
X20270138Y-2140284D01*
X20302799Y-1986629D01*
X20364682Y-1842246D01*
X20453429Y-1712634D01*
X20565662Y-1602727D01*
X20697100Y-1516716D01*
X20842751Y-1457869D01*
X20997052Y-1428435D01*
X21154131Y-1429532D01*
X21154131Y-1429532D01*
G37*
G36*
X23694131Y-1429532D02*
X23848009Y-1461118D01*
X23992820Y-1521991D01*
X24123048Y-1609831D01*
X24233735Y-1721294D01*
X24320665Y-1852134D01*
X24380524Y-1997364D01*
X24410983Y-2151194D01*
X24411035Y-2151458D01*
X24408529Y-2330878D01*
X24408470Y-2331137D01*
X24408470Y-2331143D01*
X24373729Y-2484061D01*
X24309839Y-2627560D01*
X24219288Y-2755924D01*
X24105533Y-2864252D01*
X23972899Y-2948423D01*
X23826449Y-3005227D01*
X23671751Y-3032505D01*
X23514697Y-3029215D01*
X23361278Y-2995483D01*
X23217334Y-2932596D01*
X23088343Y-2842945D01*
X22979224Y-2729949D01*
X22894127Y-2597905D01*
X22836301Y-2451853D01*
X22807945Y-2297351D01*
X22810138Y-2140284D01*
X22842799Y-1986629D01*
X22904682Y-1842246D01*
X22993429Y-1712634D01*
X23105662Y-1602727D01*
X23237100Y-1516716D01*
X23382751Y-1457869D01*
X23537052Y-1428435D01*
X23694131Y-1429532D01*
X23694131Y-1429532D01*
G37*
G36*
X26234131Y-1429532D02*
X26388009Y-1461118D01*
X26532820Y-1521991D01*
X26663048Y-1609831D01*
X26773735Y-1721294D01*
X26860665Y-1852134D01*
X26920524Y-1997364D01*
X26950983Y-2151194D01*
X26951035Y-2151458D01*
X26948529Y-2330878D01*
X26948470Y-2331137D01*
X26948470Y-2331143D01*
X26913729Y-2484061D01*
X26849839Y-2627560D01*
X26759288Y-2755924D01*
X26645533Y-2864252D01*
X26512899Y-2948423D01*
X26366449Y-3005227D01*
X26211751Y-3032505D01*
X26054697Y-3029215D01*
X25901278Y-2995483D01*
X25757334Y-2932596D01*
X25628343Y-2842945D01*
X25519224Y-2729949D01*
X25434127Y-2597905D01*
X25376301Y-2451853D01*
X25347945Y-2297351D01*
X25350138Y-2140284D01*
X25382799Y-1986629D01*
X25444682Y-1842246D01*
X25533429Y-1712634D01*
X25645662Y-1602727D01*
X25777100Y-1516716D01*
X25922751Y-1457869D01*
X26077052Y-1428435D01*
X26234131Y-1429532D01*
X26234131Y-1429532D01*
G37*
G36*
X28774131Y-1429532D02*
X28928009Y-1461118D01*
X29072820Y-1521991D01*
X29203048Y-1609831D01*
X29313735Y-1721294D01*
X29400665Y-1852134D01*
X29460524Y-1997364D01*
X29490983Y-2151194D01*
X29491035Y-2151458D01*
X29488529Y-2330878D01*
X29488470Y-2331137D01*
X29488470Y-2331143D01*
X29453729Y-2484061D01*
X29389839Y-2627560D01*
X29299288Y-2755924D01*
X29185533Y-2864252D01*
X29052899Y-2948423D01*
X28906449Y-3005227D01*
X28751751Y-3032505D01*
X28594697Y-3029215D01*
X28441278Y-2995483D01*
X28297334Y-2932596D01*
X28168343Y-2842945D01*
X28059224Y-2729949D01*
X27974127Y-2597905D01*
X27916301Y-2451853D01*
X27887945Y-2297351D01*
X27890138Y-2140284D01*
X27922799Y-1986629D01*
X27984682Y-1842246D01*
X28073429Y-1712634D01*
X28185662Y-1602727D01*
X28317100Y-1516716D01*
X28462751Y-1457869D01*
X28617052Y-1428435D01*
X28774131Y-1429532D01*
X28774131Y-1429532D01*
G37*
G36*
X31314131Y-1429532D02*
X31468009Y-1461118D01*
X31612820Y-1521991D01*
X31743048Y-1609831D01*
X31853735Y-1721294D01*
X31940665Y-1852134D01*
X32000524Y-1997364D01*
X32030983Y-2151194D01*
X32031035Y-2151458D01*
X32028529Y-2330878D01*
X32028470Y-2331137D01*
X32028470Y-2331143D01*
X31993729Y-2484061D01*
X31929839Y-2627560D01*
X31839288Y-2755924D01*
X31725533Y-2864252D01*
X31592899Y-2948423D01*
X31446449Y-3005227D01*
X31291751Y-3032505D01*
X31134697Y-3029215D01*
X30981278Y-2995483D01*
X30837334Y-2932596D01*
X30708343Y-2842945D01*
X30599224Y-2729949D01*
X30514127Y-2597905D01*
X30456301Y-2451853D01*
X30427945Y-2297351D01*
X30430138Y-2140284D01*
X30462799Y-1986629D01*
X30524682Y-1842246D01*
X30613429Y-1712634D01*
X30725662Y-1602727D01*
X30857100Y-1516716D01*
X31002751Y-1457869D01*
X31157052Y-1428435D01*
X31314131Y-1429532D01*
X31314131Y-1429532D01*
G37*
G36*
X56714131Y-1429532D02*
X56868009Y-1461118D01*
X57012820Y-1521991D01*
X57143048Y-1609831D01*
X57253735Y-1721294D01*
X57340665Y-1852134D01*
X57400524Y-1997364D01*
X57430983Y-2151194D01*
X57431035Y-2151458D01*
X57428529Y-2330878D01*
X57428470Y-2331137D01*
X57428470Y-2331143D01*
X57393729Y-2484061D01*
X57329839Y-2627560D01*
X57239288Y-2755924D01*
X57125533Y-2864252D01*
X56992899Y-2948423D01*
X56846449Y-3005227D01*
X56691751Y-3032505D01*
X56534697Y-3029215D01*
X56381278Y-2995483D01*
X56237334Y-2932596D01*
X56108343Y-2842945D01*
X55999224Y-2729949D01*
X55914127Y-2597905D01*
X55856301Y-2451853D01*
X55827945Y-2297351D01*
X55830138Y-2140284D01*
X55862799Y-1986629D01*
X55924682Y-1842246D01*
X56013429Y-1712634D01*
X56125662Y-1602727D01*
X56257100Y-1516716D01*
X56402751Y-1457869D01*
X56557052Y-1428435D01*
X56714131Y-1429532D01*
X56714131Y-1429532D01*
G37*
G36*
X54174131Y-1429532D02*
X54328009Y-1461118D01*
X54472820Y-1521991D01*
X54603048Y-1609831D01*
X54713735Y-1721294D01*
X54800665Y-1852134D01*
X54860524Y-1997364D01*
X54890983Y-2151194D01*
X54891035Y-2151458D01*
X54888529Y-2330878D01*
X54888470Y-2331137D01*
X54888470Y-2331143D01*
X54853729Y-2484061D01*
X54789839Y-2627560D01*
X54699288Y-2755924D01*
X54585533Y-2864252D01*
X54452899Y-2948423D01*
X54306449Y-3005227D01*
X54151751Y-3032505D01*
X53994697Y-3029215D01*
X53841278Y-2995483D01*
X53697334Y-2932596D01*
X53568343Y-2842945D01*
X53459224Y-2729949D01*
X53374127Y-2597905D01*
X53316301Y-2451853D01*
X53287945Y-2297351D01*
X53290138Y-2140284D01*
X53322799Y-1986629D01*
X53384682Y-1842246D01*
X53473429Y-1712634D01*
X53585662Y-1602727D01*
X53717100Y-1516716D01*
X53862751Y-1457869D01*
X54017052Y-1428435D01*
X54174131Y-1429532D01*
X54174131Y-1429532D01*
G37*
G36*
X51634131Y-1429532D02*
X51788009Y-1461118D01*
X51932820Y-1521991D01*
X52063048Y-1609831D01*
X52173735Y-1721294D01*
X52260665Y-1852134D01*
X52320524Y-1997364D01*
X52350983Y-2151194D01*
X52351035Y-2151458D01*
X52348529Y-2330878D01*
X52348470Y-2331137D01*
X52348470Y-2331143D01*
X52313729Y-2484061D01*
X52249839Y-2627560D01*
X52159288Y-2755924D01*
X52045533Y-2864252D01*
X51912899Y-2948423D01*
X51766449Y-3005227D01*
X51611751Y-3032505D01*
X51454697Y-3029215D01*
X51301278Y-2995483D01*
X51157334Y-2932596D01*
X51028343Y-2842945D01*
X50919224Y-2729949D01*
X50834127Y-2597905D01*
X50776301Y-2451853D01*
X50747945Y-2297351D01*
X50750138Y-2140284D01*
X50782799Y-1986629D01*
X50844682Y-1842246D01*
X50933429Y-1712634D01*
X51045662Y-1602727D01*
X51177100Y-1516716D01*
X51322751Y-1457869D01*
X51477052Y-1428435D01*
X51634131Y-1429532D01*
X51634131Y-1429532D01*
G37*
G36*
X49094131Y-1429532D02*
X49248009Y-1461118D01*
X49392820Y-1521991D01*
X49523048Y-1609831D01*
X49633735Y-1721294D01*
X49720665Y-1852134D01*
X49780524Y-1997364D01*
X49810983Y-2151194D01*
X49811035Y-2151458D01*
X49808529Y-2330878D01*
X49808470Y-2331137D01*
X49808470Y-2331143D01*
X49773729Y-2484061D01*
X49709839Y-2627560D01*
X49619288Y-2755924D01*
X49505533Y-2864252D01*
X49372899Y-2948423D01*
X49226449Y-3005227D01*
X49071751Y-3032505D01*
X48914697Y-3029215D01*
X48761278Y-2995483D01*
X48617334Y-2932596D01*
X48488343Y-2842945D01*
X48379224Y-2729949D01*
X48294127Y-2597905D01*
X48236301Y-2451853D01*
X48207945Y-2297351D01*
X48210138Y-2140284D01*
X48242799Y-1986629D01*
X48304682Y-1842246D01*
X48393429Y-1712634D01*
X48505662Y-1602727D01*
X48637100Y-1516716D01*
X48782751Y-1457869D01*
X48937052Y-1428435D01*
X49094131Y-1429532D01*
X49094131Y-1429532D01*
G37*
G36*
X46554131Y-1429532D02*
X46708009Y-1461118D01*
X46852820Y-1521991D01*
X46983048Y-1609831D01*
X47093735Y-1721294D01*
X47180665Y-1852134D01*
X47240524Y-1997364D01*
X47270983Y-2151194D01*
X47271035Y-2151458D01*
X47268529Y-2330878D01*
X47268470Y-2331137D01*
X47268470Y-2331143D01*
X47233729Y-2484061D01*
X47169839Y-2627560D01*
X47079288Y-2755924D01*
X46965533Y-2864252D01*
X46832899Y-2948423D01*
X46686449Y-3005227D01*
X46531751Y-3032505D01*
X46374697Y-3029215D01*
X46221278Y-2995483D01*
X46077334Y-2932596D01*
X45948343Y-2842945D01*
X45839224Y-2729949D01*
X45754127Y-2597905D01*
X45696301Y-2451853D01*
X45667945Y-2297351D01*
X45670138Y-2140284D01*
X45702799Y-1986629D01*
X45764682Y-1842246D01*
X45853429Y-1712634D01*
X45965662Y-1602727D01*
X46097100Y-1516716D01*
X46242751Y-1457869D01*
X46397052Y-1428435D01*
X46554131Y-1429532D01*
X46554131Y-1429532D01*
G37*
G36*
X44014131Y-1429532D02*
X44168009Y-1461118D01*
X44312820Y-1521991D01*
X44443048Y-1609831D01*
X44553735Y-1721294D01*
X44640665Y-1852134D01*
X44700524Y-1997364D01*
X44730983Y-2151194D01*
X44731035Y-2151458D01*
X44728529Y-2330878D01*
X44728470Y-2331137D01*
X44728470Y-2331143D01*
X44693729Y-2484061D01*
X44629839Y-2627560D01*
X44539288Y-2755924D01*
X44425533Y-2864252D01*
X44292899Y-2948423D01*
X44146449Y-3005227D01*
X43991751Y-3032505D01*
X43834697Y-3029215D01*
X43681278Y-2995483D01*
X43537334Y-2932596D01*
X43408343Y-2842945D01*
X43299224Y-2729949D01*
X43214127Y-2597905D01*
X43156301Y-2451853D01*
X43127945Y-2297351D01*
X43130138Y-2140284D01*
X43162799Y-1986629D01*
X43224682Y-1842246D01*
X43313429Y-1712634D01*
X43425662Y-1602727D01*
X43557100Y-1516716D01*
X43702751Y-1457869D01*
X43857052Y-1428435D01*
X44014131Y-1429532D01*
X44014131Y-1429532D01*
G37*
G36*
X41474131Y-1429532D02*
X41628009Y-1461118D01*
X41772820Y-1521991D01*
X41903048Y-1609831D01*
X42013735Y-1721294D01*
X42100665Y-1852134D01*
X42160524Y-1997364D01*
X42190983Y-2151194D01*
X42191035Y-2151458D01*
X42188529Y-2330878D01*
X42188470Y-2331137D01*
X42188470Y-2331143D01*
X42153729Y-2484061D01*
X42089839Y-2627560D01*
X41999288Y-2755924D01*
X41885533Y-2864252D01*
X41752899Y-2948423D01*
X41606449Y-3005227D01*
X41451751Y-3032505D01*
X41294697Y-3029215D01*
X41141278Y-2995483D01*
X40997334Y-2932596D01*
X40868343Y-2842945D01*
X40759224Y-2729949D01*
X40674127Y-2597905D01*
X40616301Y-2451853D01*
X40587945Y-2297351D01*
X40590138Y-2140284D01*
X40622799Y-1986629D01*
X40684682Y-1842246D01*
X40773429Y-1712634D01*
X40885662Y-1602727D01*
X41017100Y-1516716D01*
X41162751Y-1457869D01*
X41317052Y-1428435D01*
X41474131Y-1429532D01*
X41474131Y-1429532D01*
G37*
G36*
X38934131Y-1429532D02*
X39088009Y-1461118D01*
X39232820Y-1521991D01*
X39363048Y-1609831D01*
X39473735Y-1721294D01*
X39560665Y-1852134D01*
X39620524Y-1997364D01*
X39650983Y-2151194D01*
X39651035Y-2151458D01*
X39648529Y-2330878D01*
X39648470Y-2331137D01*
X39648470Y-2331143D01*
X39613729Y-2484061D01*
X39549839Y-2627560D01*
X39459288Y-2755924D01*
X39345533Y-2864252D01*
X39212899Y-2948423D01*
X39066449Y-3005227D01*
X38911751Y-3032505D01*
X38754697Y-3029215D01*
X38601278Y-2995483D01*
X38457334Y-2932596D01*
X38328343Y-2842945D01*
X38219224Y-2729949D01*
X38134127Y-2597905D01*
X38076301Y-2451853D01*
X38047945Y-2297351D01*
X38050138Y-2140284D01*
X38082799Y-1986629D01*
X38144682Y-1842246D01*
X38233429Y-1712634D01*
X38345662Y-1602727D01*
X38477100Y-1516716D01*
X38622751Y-1457869D01*
X38777052Y-1428435D01*
X38934131Y-1429532D01*
X38934131Y-1429532D01*
G37*
G36*
X36394131Y-1429532D02*
X36548009Y-1461118D01*
X36692820Y-1521991D01*
X36823048Y-1609831D01*
X36933735Y-1721294D01*
X37020665Y-1852134D01*
X37080524Y-1997364D01*
X37110983Y-2151194D01*
X37111035Y-2151458D01*
X37108529Y-2330878D01*
X37108470Y-2331137D01*
X37108470Y-2331143D01*
X37073729Y-2484061D01*
X37009839Y-2627560D01*
X36919288Y-2755924D01*
X36805533Y-2864252D01*
X36672899Y-2948423D01*
X36526449Y-3005227D01*
X36371751Y-3032505D01*
X36214697Y-3029215D01*
X36061278Y-2995483D01*
X35917334Y-2932596D01*
X35788343Y-2842945D01*
X35679224Y-2729949D01*
X35594127Y-2597905D01*
X35536301Y-2451853D01*
X35507945Y-2297351D01*
X35510138Y-2140284D01*
X35542799Y-1986629D01*
X35604682Y-1842246D01*
X35693429Y-1712634D01*
X35805662Y-1602727D01*
X35937100Y-1516716D01*
X36082751Y-1457869D01*
X36237052Y-1428435D01*
X36394131Y-1429532D01*
X36394131Y-1429532D01*
G37*
G36*
X33854131Y-1429532D02*
X34008009Y-1461118D01*
X34152820Y-1521991D01*
X34283048Y-1609831D01*
X34393735Y-1721294D01*
X34480665Y-1852134D01*
X34540524Y-1997364D01*
X34570983Y-2151194D01*
X34571035Y-2151458D01*
X34568529Y-2330878D01*
X34568470Y-2331137D01*
X34568470Y-2331143D01*
X34533729Y-2484061D01*
X34469839Y-2627560D01*
X34379288Y-2755924D01*
X34265533Y-2864252D01*
X34132899Y-2948423D01*
X33986449Y-3005227D01*
X33831751Y-3032505D01*
X33674697Y-3029215D01*
X33521278Y-2995483D01*
X33377334Y-2932596D01*
X33248343Y-2842945D01*
X33139224Y-2729949D01*
X33054127Y-2597905D01*
X32996301Y-2451853D01*
X32967945Y-2297351D01*
X32970138Y-2140284D01*
X33002799Y-1986629D01*
X33064682Y-1842246D01*
X33153429Y-1712634D01*
X33265662Y-1602727D01*
X33397100Y-1516716D01*
X33542751Y-1457869D01*
X33697052Y-1428435D01*
X33854131Y-1429532D01*
X33854131Y-1429532D01*
G37*
M02*
